<svg width="75" height="63" viewBox="0 0 75 63" fill="none" xmlns="http://www.w3.org/2000/svg">
<path d="M57.2917 61.1667C57.2917 54.6083 48.4306 49.2917 37.5 49.2917C26.5694 49.2917 17.7083 54.6083 17.7083 61.1667M73.125 49.2931C73.125 44.4236 68.24 40.2387 61.25 38.4062M1.875 49.2931C1.875 44.4236 6.75996 40.2387 13.75 38.4062M61.25 22.5179C63.6794 20.3435 65.2083 17.1836 65.2083 13.6667C65.2083 7.10828 59.8917 1.79166 53.3333 1.79166C50.2919 1.79166 47.5176 2.93504 45.4167 4.81541M13.75 22.5179C11.3206 20.3435 9.79167 17.1836 9.79167 13.6667C9.79167 7.10828 15.1083 1.79166 21.6667 1.79166C24.7081 1.79166 27.4824 2.93504 29.5833 4.81541M37.5 37.4167C30.9416 37.4167 25.625 32.1 25.625 25.5417C25.625 18.9833 30.9416 13.6667 37.5 13.6667C44.0584 13.6667 49.375 18.9833 49.375 25.5417C49.375 32.1 44.0584 37.4167 37.5 37.4167Z" stroke="black" stroke-width="2" stroke-linecap="round" stroke-linejoin="round"/>
</svg>
