<svg width="670" height="611" viewBox="0 0 670 611" fill="none" xmlns="http://www.w3.org/2000/svg">
<path d="M143.851 84V0H179.011C185.171 0 190.811 1.04 195.931 3.12C201.051 5.12 205.451 8 209.131 11.76C212.891 15.52 215.771 19.96 217.771 25.08C219.771 30.2 220.771 35.84 220.771 42C220.771 48.16 219.771 53.84 217.771 59.04C215.771 64.16 212.891 68.6 209.131 72.36C205.451 76.04 201.051 78.92 195.931 81C190.811 83 185.171 84 179.011 84H143.851ZM164.251 70.08L161.491 66H178.411C181.771 66 184.771 65.44 187.411 64.32C190.051 63.12 192.291 61.48 194.131 59.4C196.051 57.32 197.531 54.8 198.571 51.84C199.611 48.88 200.131 45.6 200.131 42C200.131 38.4 199.611 35.12 198.571 32.16C197.531 29.2 196.051 26.68 194.131 24.6C192.291 22.52 190.051 20.92 187.411 19.8C184.771 18.6 181.771 18 178.411 18H161.131L164.251 14.16V70.08Z" fill="#B33F0F"/>
<path d="M236.546 84V0H295.106V17.4H256.346V66.6H296.306V84H236.546ZM246.146 49.56V33H289.706V49.56H246.146Z" fill="#B33F0F"/>
<path d="M313.89 84V0H334.29V66H371.73V84H313.89Z" fill="#B33F0F"/>
<path d="M439.095 84V0H459.495V84H439.095ZM387.015 84V0H407.415V84H387.015ZM394.935 51.24L395.055 33H449.895V51.24H394.935Z" fill="#B33F0F"/>
<path d="M478.851 84V66.84H493.011V17.16H478.851V0H527.691V17.16H513.411V66.84H527.691V84H478.851Z" fill="#B33F0F"/>
<g filter="url(#filter0_dddd_817_3387)">
<path d="M416.534 135.953L412.274 141.863L416.534 148.848L420.794 164.43V193.443V214.934L429.883 235.016L425.339 238.247L407.729 239.255V235.351H400.629L405.173 241.143L402.617 253.114L395.517 255.792L383.588 253.114L379.894 258.471L364.274 272.424L354.332 287.467L343.255 268.125H337.859V272.424H328.77L324.225 263.827V253.114L328.77 241.143L324.225 237.366L328.77 232.665L313.717 228.366L308.888 237.366L290.711 244.92H284.178L259.468 255.768L253.787 250.46V239.381L239.302 235.351H225.953L207.775 246.097H198.97L172.414 232.665L173.621 218.696L180.509 205.263L166.733 195.592L175.964 179.473L170.568 175.712L174.26 169.265L162.899 159.594L170.568 148.848L166.876 141.863V130.043L158.923 121.983L166.876 107.343L174.26 111.238L177.668 103.447L183.349 100.492L190.166 103.447L207.775 88.6719H219.704H232.201L246.403 94.5821L253.787 79.8063L265.149 63.6877L274.237 67.1803L280.202 62.345L278.782 58.8524L281.622 55.3599H286.735L290.711 62.345L308.888 65.0312L318.545 74.8364L324.225 69.8672H333.315L337.859 79.8063V88.6719H348.652L360.013 75.7766L368.533 72.5534L398.64 75.7766L402.617 83.8359V88.6719L407.729 100.492L402.617 106.403V116.073L388.416 112.85V126.013L395.517 132.73H412.274L416.534 135.953Z" fill="#FEEDD6" stroke="#FEEDD6" stroke-miterlimit="10"/>
<path d="M343.485 268.143L354.562 287.485L355.698 295.006L353.426 301.453L349.45 310.051H342.633L340.929 315.154L342.633 320.795L349.45 328.319V331.273V336.377L342.633 334.229L339.225 336.377L332.408 334.229L326.728 328.319L321.473 331.541L316.502 328.319L289.307 324.02L284.479 317.573H281.283V312.737H287.674L290.941 301.453L324.455 263.844L329 272.439H338.088V268.143H343.485Z" fill="#FEEDD6" stroke="#FEEDD6" stroke-miterlimit="10"/>
<path d="M72.0106 320.78L75.4193 328.302L79.9636 331.526L90.1886 336.36L94.1651 342.674L97.5729 344.152L104.958 350.464L108.366 353.822L104.958 367.255L111.774 370.21H118.023L121.432 364.3L127.112 363.83L134.497 361.479L141.881 366.18L146.994 364.3H152.674L169.147 368.061L176.533 364.3L193.623 356.241L203.372 360.54L207.775 356.241L220.272 358.658L223.681 353.822L212.319 344.152L216.864 341.196H223.681L239.302 347.107L253.787 353.822L251.515 358.658L264.012 364.3L269.124 360.54H271.823L275.942 356.779L295.221 360.54V368.061L316.272 375.046L311.303 392.239L308.888 396.268L311.303 400.298L318.758 409.433L321.244 417.76L329.338 423.939L343.255 425.282L351.209 430.655L355.468 434.685V443.281L362.285 445.431L364.274 454.93V452.416L372.084 447.58H377.339H389.552L412.273 443.281L423.066 434.685H429.883L434.144 426.627L429.883 423.939V411.582L423.066 407.283H416.534V400.298L423.066 392.239L429.883 387.404L451.469 383.105V379.882L461.694 375.046H474.191L478.736 379.882L483.28 383.105H489.529L497.198 379.882L514.522 360.54L504.866 347.107L489.529 335.286L483.28 333.81L474.191 317.556V310.034L466.807 304.762L447.493 291.229L443.517 265.447L438.404 244.745L429.883 235.016L425.339 238.247L407.729 239.255V235.351H400.629L405.172 241.143L402.617 253.114L407.729 259.798L423.066 268.126V287.467V294.991L407.729 298.214V303.788L399.776 305.735H395.232L397.504 310.034H402.049L397.504 320.78H385.575V315.139L369.102 312.586L355.468 294.991L353.196 301.438L349.22 310.034H342.403L340.699 315.139L342.403 320.78L349.22 328.302V331.258V336.36L342.403 334.212L338.995 336.36L332.179 334.212L326.498 328.302L321.244 331.526L316.272 328.302L289.077 324.003L284.249 317.556H281.054V312.722H287.444L290.711 301.438L324.225 263.827V255.768L328.77 241.143L324.225 237.366L328.77 232.665L313.717 228.366L308.888 237.366L290.711 244.92H284.178L259.468 255.768L253.787 250.46V239.381L239.302 235.351H225.953L207.775 246.097H198.97L193.623 243.393L172.414 232.665L160.911 231.617L152.674 234.941L145.431 250.1L160.911 260.094L158.922 265.977L152.674 272.425L138.188 263.827H134.497L124.272 268.126L114.898 261.705L108.366 263.827L101.265 282.634L97.5729 284.782V291.229L92.1768 301.001L75.4193 301.438L69.1707 305.735H72.0106V312.586V317.959" fill="#FEEDD6"/>
<path d="M72.0106 320.78L75.4193 328.302L79.9636 331.526L90.1886 336.36L94.1651 342.674L97.5729 344.152L104.958 350.464L108.366 353.822L104.958 367.255L111.774 370.21H118.023L121.432 364.3L127.112 363.83L134.497 361.479L141.881 366.18L146.994 364.3H152.674L169.147 368.061L176.533 364.3L193.623 356.241L203.372 360.54L207.775 356.241L220.272 358.658L223.681 353.822L212.319 344.152L216.864 341.196H223.681L239.302 347.107L253.787 353.822L251.515 358.658L264.012 364.3L269.124 360.54H271.823L275.942 356.779L295.221 360.54V368.061L316.272 375.046L311.303 392.239L308.888 396.268L311.303 400.298L318.758 409.433L321.244 417.76L329.338 423.939L343.255 425.282L351.209 430.655L355.468 434.685V443.281L362.285 445.431L364.274 454.93V452.416L372.084 447.58H377.339H389.552L412.273 443.281L423.066 434.685H429.883L434.144 426.627L429.883 423.939V411.582L423.066 407.283H416.534V400.298L423.066 392.239L429.883 387.404L451.469 383.105V379.882L461.694 375.046H474.191L478.736 379.882L483.28 383.105H489.529L497.198 379.882L514.522 360.54L504.866 347.107L489.529 335.286L483.28 333.81L474.191 317.556V310.034L466.807 304.762L447.493 291.229L443.516 265.447L438.404 244.745L429.883 235.016L425.339 238.247L407.729 239.255V235.351H400.629L405.172 241.143L402.617 253.114L407.729 259.798L423.066 268.126V287.467V294.991L407.729 298.214V303.788L399.776 305.735H395.232L397.504 310.034H402.049L397.504 320.78H385.575V315.139L369.102 312.586L355.468 294.991L353.196 301.438L349.22 310.034H342.403L340.699 315.139L342.403 320.78L349.22 328.302V331.258V336.36L342.403 334.212L338.995 336.36L332.179 334.212L326.498 328.302L321.244 331.526L316.272 328.302L289.077 324.003L284.249 317.556H281.054V312.722H287.444L290.711 301.438L324.225 263.827V255.768L328.77 241.143L324.225 237.366L328.77 232.665L313.717 228.366L308.888 237.366L290.711 244.92H284.178L259.468 255.768L253.787 250.46V239.381L239.302 235.351H225.953L207.775 246.097H198.97L193.623 243.393L172.414 232.665L160.911 231.617L152.674 234.941L145.431 250.1L160.911 260.094L158.922 265.977L152.674 272.425L138.188 263.827H134.497L124.272 268.126L114.898 261.705L108.366 263.827L101.265 282.634L97.5729 284.782V291.229L92.1768 301.001L75.4193 301.438L69.1707 305.735H72.0106V312.586V317.959" stroke="#FEEDD6" stroke-miterlimit="10"/>
<path d="M383.817 253.13L395.745 255.809L402.847 253.13L407.958 259.815L423.296 268.143V287.485V295.006L407.958 298.231V303.804L400.006 305.752H395.461L397.734 310.052H402.279L397.734 320.796H385.805V315.154L369.331 312.602L355.698 295.006L354.562 287.485L364.504 272.44L380.124 258.486L383.817 253.13Z" fill="#FEEDD6" stroke="#FEEDD6" stroke-miterlimit="10"/>
<path d="M492.115 250.1L493.891 244.94V236.061L495.921 231.741V225.261L499.791 223.581L504.294 222.381V218.301L501.757 212.541L497.824 206.542V199.222L501.757 194.063L493.891 195.082L490.34 194.063H479.175L474.1 196.102V198.142L471.056 200.302L465.093 198.142L464.205 194.063L465.982 191.183V185.903L452.28 174.863L448.474 175.704L441.877 176.543L437.437 174.863L435.787 169.584L439.086 163.344L435.787 159.024H428.429L418.161 154.796L420.794 164.43V214.935L429.883 235.016L438.404 244.745L443.517 265.447L447.493 291.229L474.191 310.034L475.116 303.978L482.22 297.258L486.279 290.298H497.824L501.757 287.468L508.862 285.738L511.399 281.418L512.414 273.019L510.384 268.699L504.294 263.844L492.115 255.74V249.02" fill="#FEEDD6"/>
<path d="M492.115 250.1L493.891 244.94V236.061L495.921 231.741V225.261L499.791 223.581L504.294 222.381V218.301L501.757 212.541L497.824 206.542V199.222L501.757 194.063L493.891 195.082L490.34 194.063H479.175L474.1 196.102V198.142L471.056 200.302L465.093 198.142L464.205 194.063L465.982 191.183V185.903L452.28 174.863L448.474 175.704L441.877 176.543L437.437 174.863L435.787 169.584L439.086 163.344L435.787 159.024H428.429L418.161 154.796L420.794 164.43V214.935L429.883 235.016L438.404 244.745L443.517 265.447L447.493 291.229L474.191 310.034L475.116 303.978L482.22 297.258L486.279 290.298H497.824L501.757 287.468L508.862 285.738L511.399 281.418L512.414 273.019L510.384 268.699L504.294 263.844L492.115 255.74V249.02" stroke="#FEEDD6" stroke-miterlimit="10"/>
</g>
<path d="M282.706 513.313V501.763H284.972V513.313H282.706ZM283.806 499.211C283.322 499.211 282.948 499.086 282.684 498.837C282.42 498.587 282.288 498.235 282.288 497.781C282.288 497.355 282.42 497.011 282.684 496.747C282.963 496.483 283.337 496.351 283.806 496.351C284.29 496.351 284.664 496.475 284.928 496.725C285.192 496.974 285.324 497.326 285.324 497.781C285.324 498.206 285.185 498.551 284.906 498.815C284.642 499.079 284.275 499.211 283.806 499.211Z" fill="black"/>
<path d="M269.248 513.313V497.033H271.514V504.139L271.118 504.403C271.265 503.889 271.551 503.42 271.976 502.995C272.401 502.555 272.907 502.203 273.494 501.939C274.081 501.66 274.682 501.521 275.298 501.521C276.178 501.521 276.911 501.697 277.498 502.049C278.085 502.386 278.525 502.907 278.818 503.611C279.111 504.315 279.258 505.202 279.258 506.273V513.313H276.992V506.427C276.992 505.767 276.904 505.224 276.728 504.799C276.552 504.359 276.281 504.043 275.914 503.853C275.547 503.647 275.093 503.559 274.55 503.589C274.11 503.589 273.707 503.662 273.34 503.809C272.973 503.941 272.651 504.131 272.372 504.381C272.108 504.63 271.895 504.923 271.734 505.261C271.587 505.583 271.514 505.935 271.514 506.317V513.313H270.392C270.201 513.313 270.011 513.313 269.82 513.313C269.629 513.313 269.439 513.313 269.248 513.313Z" fill="black"/>
<path d="M263.771 513.313V497.033H266.037V513.313H263.771Z" fill="black"/>
<path d="M256.226 513.533C255.038 513.533 253.982 513.283 253.058 512.785C252.148 512.271 251.43 511.575 250.902 510.695C250.388 509.815 250.132 508.803 250.132 507.659C250.132 506.749 250.279 505.921 250.572 505.173C250.865 504.425 251.268 503.779 251.782 503.237C252.31 502.679 252.933 502.254 253.652 501.961C254.385 501.653 255.177 501.499 256.028 501.499C256.776 501.499 257.472 501.645 258.118 501.939C258.763 502.217 259.32 502.606 259.79 503.105C260.274 503.603 260.64 504.197 260.89 504.887C261.154 505.561 261.278 506.302 261.264 507.109L261.242 508.077H251.804L251.298 506.273H259.284L258.954 506.647V506.119C258.91 505.635 258.748 505.202 258.47 504.821C258.191 504.439 257.839 504.139 257.414 503.919C256.988 503.699 256.526 503.589 256.028 503.589C255.236 503.589 254.568 503.743 254.026 504.051C253.483 504.344 253.073 504.784 252.794 505.371C252.515 505.943 252.376 506.654 252.376 507.505C252.376 508.311 252.545 509.015 252.882 509.617C253.219 510.203 253.696 510.658 254.312 510.981C254.928 511.303 255.639 511.465 256.446 511.465C257.018 511.465 257.546 511.369 258.03 511.179C258.529 510.988 259.064 510.643 259.636 510.145L260.78 511.751C260.428 512.103 259.995 512.411 259.482 512.675C258.983 512.939 258.448 513.151 257.876 513.313C257.318 513.459 256.768 513.533 256.226 513.533Z" fill="black"/>
<path d="M234.951 513.313V497.913H240.979C242.079 497.913 243.069 498.096 243.949 498.463C244.844 498.829 245.606 499.357 246.237 500.047C246.868 500.736 247.352 501.55 247.689 502.489C248.026 503.427 248.195 504.469 248.195 505.613C248.195 506.757 248.026 507.805 247.689 508.759C247.352 509.697 246.868 510.511 246.237 511.201C245.621 511.875 244.866 512.396 243.971 512.763C243.076 513.129 242.079 513.313 240.979 513.313H234.951ZM237.327 511.267L237.261 511.025H240.869C241.646 511.025 242.336 510.9 242.937 510.651C243.553 510.401 244.066 510.049 244.477 509.595C244.902 509.125 245.225 508.553 245.445 507.879C245.665 507.204 245.775 506.449 245.775 505.613C245.775 504.777 245.665 504.029 245.445 503.369C245.225 502.694 244.902 502.122 244.477 501.653C244.052 501.183 243.538 500.824 242.937 500.575C242.336 500.325 241.646 500.201 240.869 500.201H237.195L237.327 500.003V511.267Z" fill="black"/>
<path d="M213.455 513.313L209.517 501.763L211.805 501.741L214.621 510.387L214.115 510.343L217.173 503.589H218.537L221.617 510.365L221.023 510.409L223.861 501.763H226.149L222.255 513.313H220.693L217.481 505.965L217.987 506.031L214.995 513.313H213.455Z" fill="black"/>
<path d="M203.331 513.533C202.143 513.533 201.087 513.283 200.163 512.785C199.254 512.271 198.535 511.575 198.007 510.695C197.494 509.815 197.237 508.803 197.237 507.659C197.237 506.749 197.384 505.921 197.677 505.173C197.971 504.425 198.374 503.779 198.887 503.237C199.415 502.679 200.039 502.254 200.757 501.961C201.491 501.653 202.283 501.499 203.133 501.499C203.881 501.499 204.578 501.645 205.223 501.939C205.869 502.217 206.426 502.606 206.895 503.105C207.379 503.603 207.746 504.197 207.995 504.887C208.259 505.561 208.384 506.302 208.369 507.109L208.347 508.077H198.909L198.403 506.273H206.389L206.059 506.647V506.119C206.015 505.635 205.854 505.202 205.575 504.821C205.297 504.439 204.945 504.139 204.519 503.919C204.094 503.699 203.632 503.589 203.133 503.589C202.341 503.589 201.674 503.743 201.131 504.051C200.589 504.344 200.178 504.784 199.899 505.371C199.621 505.943 199.481 506.654 199.481 507.505C199.481 508.311 199.65 509.015 199.987 509.617C200.325 510.203 200.801 510.658 201.417 510.981C202.033 511.303 202.745 511.465 203.551 511.465C204.123 511.465 204.651 511.369 205.135 511.179C205.634 510.988 206.169 510.643 206.741 510.145L207.885 511.751C207.533 512.103 207.101 512.411 206.587 512.675C206.089 512.939 205.553 513.151 204.981 513.313C204.424 513.459 203.874 513.533 203.331 513.533Z" fill="black"/>
<path d="M181.068 513.313V497.913H183.202L192.618 510.519L192.266 510.717C192.207 510.35 192.156 509.954 192.112 509.529C192.068 509.089 192.024 508.627 191.98 508.143C191.951 507.644 191.921 507.123 191.892 506.581C191.877 506.023 191.863 505.444 191.848 504.843C191.833 504.241 191.826 503.618 191.826 502.973V497.913H194.202V513.313H192.024L182.762 501.169L183.004 500.861C183.077 501.755 183.136 502.518 183.18 503.149C183.239 503.765 183.283 504.293 183.312 504.733C183.356 505.158 183.385 505.51 183.4 505.789C183.415 506.053 183.422 506.273 183.422 506.449C183.437 506.625 183.444 506.779 183.444 506.911V513.313H181.068Z" fill="black"/>
<path d="M168.817 517.251L167.981 516.239C168.494 515.945 168.912 515.608 169.235 515.227C169.557 514.845 169.719 514.515 169.719 514.237C169.719 514.09 169.682 513.943 169.609 513.797C169.535 513.665 169.381 513.474 169.147 513.225C168.853 512.946 168.663 512.711 168.575 512.521C168.487 512.33 168.443 512.125 168.443 511.905C168.443 511.553 168.567 511.274 168.817 511.069C169.066 510.849 169.389 510.739 169.785 510.739C170.151 510.739 170.481 510.849 170.775 511.069C171.083 511.274 171.317 511.567 171.479 511.949C171.655 512.315 171.743 512.741 171.743 513.225C171.743 513.665 171.669 514.09 171.523 514.501C171.376 514.911 171.171 515.293 170.907 515.645C170.643 515.997 170.335 516.312 169.983 516.591C169.631 516.869 169.242 517.089 168.817 517.251Z" fill="black"/>
<path d="M160.964 513.533C159.776 513.533 158.72 513.283 157.796 512.785C156.887 512.271 156.168 511.575 155.64 510.695C155.127 509.815 154.87 508.803 154.87 507.659C154.87 506.749 155.017 505.921 155.31 505.173C155.603 504.425 156.007 503.779 156.52 503.237C157.048 502.679 157.671 502.254 158.39 501.961C159.123 501.653 159.915 501.499 160.766 501.499C161.514 501.499 162.211 501.645 162.856 501.939C163.501 502.217 164.059 502.606 164.528 503.105C165.012 503.603 165.379 504.197 165.628 504.887C165.892 505.561 166.017 506.302 166.002 507.109L165.98 508.077H156.542L156.036 506.273H164.022L163.692 506.647V506.119C163.648 505.635 163.487 505.202 163.208 504.821C162.929 504.439 162.577 504.139 162.152 503.919C161.727 503.699 161.265 503.589 160.766 503.589C159.974 503.589 159.307 503.743 158.764 504.051C158.221 504.344 157.811 504.784 157.532 505.371C157.253 505.943 157.114 506.654 157.114 507.505C157.114 508.311 157.283 509.015 157.62 509.617C157.957 510.203 158.434 510.658 159.05 510.981C159.666 511.303 160.377 511.465 161.184 511.465C161.756 511.465 162.284 511.369 162.768 511.179C163.267 510.988 163.802 510.643 164.374 510.145L165.518 511.751C165.166 512.103 164.733 512.411 164.22 512.675C163.721 512.939 163.186 513.151 162.614 513.313C162.057 513.459 161.507 513.533 160.964 513.533Z" fill="black"/>
<path d="M148.707 513.533C147.636 513.533 146.675 513.269 145.825 512.741C144.989 512.213 144.321 511.494 143.823 510.585C143.339 509.675 143.097 508.656 143.097 507.527C143.097 506.397 143.339 505.378 143.823 504.469C144.321 503.559 144.989 502.841 145.825 502.313C146.675 501.785 147.636 501.521 148.707 501.521C149.733 501.521 150.665 501.733 151.501 502.159C152.351 502.569 152.997 503.134 153.437 503.853L152.183 505.393C151.948 505.055 151.647 504.747 151.281 504.469C150.914 504.19 150.525 503.97 150.115 503.809C149.704 503.647 149.308 503.567 148.927 503.567C148.223 503.567 147.592 503.743 147.035 504.095C146.492 504.432 146.059 504.901 145.737 505.503C145.414 506.104 145.253 506.779 145.253 507.527C145.253 508.275 145.421 508.949 145.759 509.551C146.096 510.137 146.543 510.607 147.101 510.959C147.658 511.311 148.274 511.487 148.949 511.487C149.345 511.487 149.726 511.421 150.093 511.289C150.474 511.157 150.841 510.959 151.193 510.695C151.545 510.431 151.875 510.108 152.183 509.727L153.437 511.267C152.967 511.927 152.293 512.469 151.413 512.895C150.547 513.32 149.645 513.533 148.707 513.533Z" fill="black"/>
<path d="M134.323 513.533C133.37 513.533 132.497 513.269 131.705 512.741C130.928 512.213 130.304 511.494 129.835 510.585C129.366 509.675 129.131 508.649 129.131 507.505C129.131 506.346 129.366 505.319 129.835 504.425C130.319 503.515 130.964 502.804 131.771 502.291C132.592 501.777 133.509 501.521 134.521 501.521C135.122 501.521 135.672 501.609 136.171 501.785C136.67 501.961 137.102 502.21 137.469 502.533C137.85 502.841 138.158 503.2 138.393 503.611C138.642 504.021 138.796 504.461 138.855 504.931L138.349 504.755V501.763H140.637V513.313H138.349V510.563L138.877 510.409C138.789 510.805 138.606 511.193 138.327 511.575C138.063 511.941 137.718 512.271 137.293 512.565C136.882 512.858 136.42 513.093 135.907 513.269C135.408 513.445 134.88 513.533 134.323 513.533ZM134.917 511.443C135.606 511.443 136.215 511.274 136.743 510.937C137.271 510.599 137.682 510.137 137.975 509.551C138.283 508.949 138.437 508.267 138.437 507.505C138.437 506.757 138.283 506.089 137.975 505.503C137.682 504.916 137.271 504.454 136.743 504.117C136.215 503.779 135.606 503.611 134.917 503.611C134.242 503.611 133.641 503.779 133.113 504.117C132.6 504.454 132.189 504.916 131.881 505.503C131.588 506.089 131.441 506.757 131.441 507.505C131.441 508.267 131.588 508.949 131.881 509.551C132.189 510.137 132.6 510.599 133.113 510.937C133.641 511.274 134.242 511.443 134.917 511.443Z" fill="black"/>
<path d="M124.616 513.313V497.033H126.882V513.313H124.616Z" fill="black"/>
<path d="M111.201 513.313V497.913H117.471C118.307 497.913 119.062 498.125 119.737 498.551C120.426 498.961 120.976 499.526 121.387 500.245C121.798 500.963 122.003 501.763 122.003 502.643C122.003 503.523 121.798 504.322 121.387 505.041C120.976 505.759 120.426 506.339 119.737 506.779C119.062 507.204 118.307 507.417 117.471 507.417H113.577V513.313H111.201ZM113.577 505.129H117.427C117.823 505.129 118.182 505.019 118.505 504.799C118.828 504.564 119.084 504.263 119.275 503.897C119.48 503.515 119.583 503.097 119.583 502.643C119.583 502.188 119.48 501.777 119.275 501.411C119.084 501.044 118.828 500.751 118.505 500.531C118.182 500.311 117.823 500.201 117.427 500.201H113.577V505.129Z" fill="black"/>
<path d="M95.1906 513.533C94.3692 513.533 93.6506 513.342 93.0346 512.961C92.4332 512.579 91.9639 512.044 91.6266 511.355C91.3039 510.665 91.1426 509.844 91.1426 508.891V501.763H93.4086V508.275C93.4086 508.949 93.5112 509.536 93.7166 510.035C93.9366 510.519 94.2446 510.893 94.6406 511.157C95.0512 511.421 95.5426 511.553 96.1146 511.553C96.5399 511.553 96.9286 511.487 97.2806 511.355C97.6326 511.208 97.9332 511.01 98.1826 510.761C98.4466 510.511 98.6519 510.211 98.7986 509.859C98.9452 509.507 99.0186 509.125 99.0186 508.715V501.763H101.285V513.313H99.0186V510.893L99.4146 510.629C99.2386 511.171 98.9379 511.663 98.5126 512.103C98.1019 512.543 97.6106 512.895 97.0386 513.159C96.4666 513.408 95.8506 513.533 95.1906 513.533Z" fill="black"/>
<path d="M82.2695 513.313V501.763H84.5575V505.393L84.3375 504.513C84.4989 503.955 84.7702 503.449 85.1515 502.995C85.5475 502.54 85.9949 502.181 86.4935 501.917C87.0069 501.653 87.5349 501.521 88.0775 501.521C88.3269 501.521 88.5615 501.543 88.7815 501.587C89.0162 501.631 89.1995 501.682 89.3315 501.741L88.7375 504.205C88.5615 504.131 88.3635 504.073 88.1435 504.029C87.9382 503.97 87.7329 503.941 87.5275 503.941C87.1315 503.941 86.7502 504.021 86.3835 504.183C86.0315 504.329 85.7162 504.542 85.4375 504.821C85.1735 505.085 84.9609 505.4 84.7995 505.767C84.6382 506.119 84.5575 506.507 84.5575 506.933V513.313H82.2695Z" fill="black"/>
<path d="M69.1855 513.313V497.033H71.4515V504.139L71.0555 504.403C71.2022 503.889 71.4882 503.42 71.9135 502.995C72.3389 502.555 72.8449 502.203 73.4315 501.939C74.0182 501.66 74.6195 501.521 75.2355 501.521C76.1156 501.521 76.8489 501.697 77.4355 502.049C78.0222 502.386 78.4622 502.907 78.7555 503.611C79.0489 504.315 79.1955 505.202 79.1955 506.273V513.313H76.9296V506.427C76.9296 505.767 76.8416 505.224 76.6656 504.799C76.4895 504.359 76.2182 504.043 75.8515 503.853C75.4849 503.647 75.0302 503.559 74.4875 503.589C74.0475 503.589 73.6442 503.662 73.2775 503.809C72.9109 503.941 72.5882 504.131 72.3095 504.381C72.0455 504.63 71.8329 504.923 71.6715 505.261C71.5249 505.583 71.4515 505.935 71.4515 506.317V513.313H70.3295C70.1389 513.313 69.9482 513.313 69.7575 513.313C69.5669 513.313 69.3762 513.313 69.1855 513.313Z" fill="black"/>
<path d="M61.6848 513.533C60.4968 513.533 59.4408 513.283 58.5168 512.785C57.6075 512.271 56.8888 511.575 56.3608 510.695C55.8475 509.815 55.5908 508.803 55.5908 507.659C55.5908 506.749 55.7375 505.921 56.0308 505.173C56.3242 504.425 56.7275 503.779 57.2408 503.237C57.7688 502.679 58.3922 502.254 59.1108 501.961C59.8442 501.653 60.6362 501.499 61.4868 501.499C62.2348 501.499 62.9315 501.645 63.5768 501.939C64.2222 502.217 64.7795 502.606 65.2488 503.105C65.7328 503.603 66.0995 504.197 66.3488 504.887C66.6128 505.561 66.7375 506.302 66.7228 507.109L66.7008 508.077H57.2628L56.7568 506.273H64.7428L64.4128 506.647V506.119C64.3688 505.635 64.2075 505.202 63.9288 504.821C63.6502 504.439 63.2982 504.139 62.8728 503.919C62.4475 503.699 61.9855 503.589 61.4868 503.589C60.6948 503.589 60.0275 503.743 59.4848 504.051C58.9422 504.344 58.5315 504.784 58.2528 505.371C57.9742 505.943 57.8348 506.654 57.8348 507.505C57.8348 508.311 58.0035 509.015 58.3408 509.617C58.6782 510.203 59.1548 510.658 59.7708 510.981C60.3868 511.303 61.0982 511.465 61.9048 511.465C62.4768 511.465 63.0048 511.369 63.4888 511.179C63.9875 510.988 64.5228 510.643 65.0948 510.145L66.2388 511.751C65.8868 512.103 65.4542 512.411 64.9408 512.675C64.4422 512.939 63.9068 513.151 63.3348 513.313C62.7775 513.459 62.2275 513.533 61.6848 513.533Z" fill="black"/>
<path d="M39.4216 513.313V497.913H41.5556L50.9716 510.519L50.6196 510.717C50.561 510.35 50.5096 509.954 50.4656 509.529C50.4216 509.089 50.3776 508.627 50.3336 508.143C50.3043 507.644 50.275 507.123 50.2456 506.581C50.231 506.023 50.2163 505.444 50.2016 504.843C50.187 504.241 50.1796 503.618 50.1796 502.973V497.913H52.5556V513.313H50.3776L41.1156 501.169L41.3576 500.861C41.431 501.755 41.4896 502.518 41.5336 503.149C41.5923 503.765 41.6363 504.293 41.6656 504.733C41.7096 505.158 41.739 505.51 41.7536 505.789C41.7683 506.053 41.7756 506.273 41.7756 506.449C41.7903 506.625 41.7976 506.779 41.7976 506.911V513.313H39.4216Z" fill="black"/>
<path d="M27.1702 517.251L26.3342 516.239C26.8476 515.945 27.2656 515.608 27.5882 515.227C27.9109 514.845 28.0722 514.515 28.0722 514.237C28.0722 514.09 28.0356 513.943 27.9622 513.797C27.8889 513.665 27.7349 513.474 27.5002 513.225C27.2069 512.946 27.0162 512.711 26.9282 512.521C26.8402 512.33 26.7962 512.125 26.7962 511.905C26.7962 511.553 26.9209 511.274 27.1702 511.069C27.4196 510.849 27.7422 510.739 28.1382 510.739C28.5049 510.739 28.8349 510.849 29.1282 511.069C29.4362 511.274 29.6709 511.567 29.8322 511.949C30.0082 512.315 30.0962 512.741 30.0962 513.225C30.0962 513.665 30.0229 514.09 29.8762 514.501C29.7296 514.911 29.5242 515.293 29.2602 515.645C28.9962 515.997 28.6882 516.312 28.3362 516.591C27.9842 516.869 27.5956 517.089 27.1702 517.251Z" fill="black"/>
<path d="M18.8522 513.379C17.8988 513.379 17.0262 513.181 16.2342 512.785C15.4568 512.374 14.8335 511.831 14.3642 511.157C13.8948 510.482 13.6602 509.734 13.6602 508.913C13.6602 508.458 13.7188 508.033 13.8362 507.637C13.9682 507.226 14.1588 506.852 14.4082 506.515C14.6722 506.177 14.9875 505.869 15.3542 505.591C15.7208 505.312 16.1462 505.063 16.6302 504.843L16.4982 505.305C16.1168 505.158 15.7722 504.982 15.4642 504.777C15.1708 504.557 14.9142 504.307 14.6942 504.029C14.4742 503.75 14.3055 503.449 14.1882 503.127C14.0855 502.804 14.0342 502.467 14.0342 502.115C14.0342 501.337 14.2468 500.633 14.6722 500.003C15.1122 499.372 15.6915 498.866 16.4102 498.485C17.1435 498.103 17.9575 497.913 18.8522 497.913C19.7468 497.913 20.5535 498.103 21.2722 498.485C22.0055 498.866 22.5848 499.372 23.0102 500.003C23.4502 500.633 23.6702 501.337 23.6702 502.115C23.6702 502.467 23.6115 502.804 23.4942 503.127C23.3915 503.449 23.2375 503.743 23.0322 504.007C22.8268 504.271 22.5628 504.513 22.2402 504.733C21.9322 504.953 21.5802 505.143 21.1842 505.305L21.1182 504.931C21.5582 505.107 21.9542 505.334 22.3062 505.613C22.6728 505.891 22.9882 506.207 23.2522 506.559C23.5162 506.911 23.7142 507.285 23.8462 507.681C23.9928 508.077 24.0662 508.487 24.0662 508.913C24.0662 509.749 23.8315 510.504 23.3622 511.179C22.8928 511.853 22.2622 512.389 21.4702 512.785C20.6928 513.181 19.8202 513.379 18.8522 513.379ZM18.8522 511.179C19.3948 511.179 19.8788 511.076 20.3042 510.871C20.7442 510.665 21.0888 510.387 21.3382 510.035C21.5875 509.683 21.7122 509.279 21.7122 508.825C21.7122 508.341 21.5875 507.915 21.3382 507.549C21.0888 507.167 20.7442 506.867 20.3042 506.647C19.8788 506.427 19.3948 506.317 18.8522 506.317C18.3095 506.317 17.8255 506.427 17.4002 506.647C16.9748 506.867 16.6375 507.167 16.3882 507.549C16.1388 507.915 16.0142 508.341 16.0142 508.825C16.0142 509.265 16.1388 509.661 16.3882 510.013C16.6375 510.365 16.9748 510.651 17.4002 510.871C17.8255 511.076 18.3095 511.179 18.8522 511.179ZM18.8522 504.205C19.3215 504.205 19.7395 504.117 20.1062 503.941C20.4875 503.765 20.7808 503.53 20.9862 503.237C21.2062 502.929 21.3162 502.577 21.3162 502.181C21.3162 501.785 21.2062 501.433 20.9862 501.125C20.7808 500.817 20.4875 500.575 20.1062 500.399C19.7395 500.208 19.3215 500.113 18.8522 500.113C18.3828 500.113 17.9575 500.208 17.5762 500.399C17.2095 500.575 16.9162 500.817 16.6962 501.125C16.4908 501.433 16.3882 501.785 16.3882 502.181C16.3882 502.577 16.4908 502.929 16.6962 503.237C16.9162 503.53 17.2095 503.765 17.5762 503.941C17.9575 504.117 18.3828 504.205 18.8522 504.205Z" fill="black"/>
<path d="M3.46382 513.313L9.84382 499.409L10.1078 500.113H2.31982V497.913H11.8458L12.1538 499.431L6.01582 513.313H3.46382Z" fill="black"/>
<path d="M285.898 480.313V468.763H288.164V471.139L287.768 471.403C287.915 470.889 288.201 470.42 288.626 469.995C289.052 469.555 289.558 469.203 290.144 468.939C290.731 468.66 291.332 468.521 291.948 468.521C292.828 468.521 293.562 468.697 294.148 469.049C294.735 469.386 295.175 469.907 295.468 470.611C295.762 471.315 295.908 472.202 295.908 473.273V480.313H293.642V473.427C293.642 472.767 293.554 472.224 293.378 471.799C293.202 471.359 292.931 471.043 292.564 470.853C292.198 470.647 291.743 470.559 291.2 470.589C290.76 470.589 290.357 470.662 289.99 470.809C289.624 470.941 289.301 471.131 289.022 471.381C288.758 471.63 288.546 471.923 288.384 472.261C288.238 472.583 288.164 472.935 288.164 473.317V480.313H287.042C286.852 480.313 286.661 480.313 286.47 480.313C286.28 480.313 286.089 480.313 285.898 480.313Z" fill="black"/>
<path d="M276.421 480.533C275.467 480.533 274.595 480.269 273.803 479.741C273.025 479.213 272.402 478.494 271.933 477.585C271.463 476.675 271.229 475.649 271.229 474.505C271.229 473.346 271.463 472.319 271.933 471.425C272.417 470.515 273.062 469.804 273.869 469.291C274.69 468.777 275.607 468.521 276.619 468.521C277.22 468.521 277.77 468.609 278.269 468.785C278.767 468.961 279.2 469.21 279.567 469.533C279.948 469.841 280.256 470.2 280.491 470.611C280.74 471.021 280.894 471.461 280.953 471.931L280.447 471.755V468.763H282.735V480.313H280.447V477.563L280.975 477.409C280.887 477.805 280.703 478.193 280.425 478.575C280.161 478.941 279.816 479.271 279.391 479.565C278.98 479.858 278.518 480.093 278.005 480.269C277.506 480.445 276.978 480.533 276.421 480.533ZM277.015 478.443C277.704 478.443 278.313 478.274 278.841 477.937C279.369 477.599 279.779 477.137 280.073 476.551C280.381 475.949 280.535 475.267 280.535 474.505C280.535 473.757 280.381 473.089 280.073 472.503C279.779 471.916 279.369 471.454 278.841 471.117C278.313 470.779 277.704 470.611 277.015 470.611C276.34 470.611 275.739 470.779 275.211 471.117C274.697 471.454 274.287 471.916 273.979 472.503C273.685 473.089 273.539 473.757 273.539 474.505C273.539 475.267 273.685 475.949 273.979 476.551C274.287 477.137 274.697 477.599 275.211 477.937C275.739 478.274 276.34 478.443 277.015 478.443Z" fill="black"/>
<path d="M257.541 480.313L253.603 468.763L255.891 468.741L258.707 477.387L258.201 477.343L261.259 470.589H262.623L265.703 477.365L265.109 477.409L267.947 468.763H270.235L266.341 480.313H264.779L261.567 472.965L262.073 473.031L259.081 480.313H257.541Z" fill="black"/>
<path d="M245.354 480.533C244.401 480.533 243.528 480.269 242.736 479.741C241.959 479.213 241.335 478.494 240.866 477.585C240.397 476.675 240.162 475.649 240.162 474.505C240.162 473.346 240.397 472.319 240.866 471.425C241.35 470.515 241.995 469.804 242.802 469.291C243.623 468.777 244.54 468.521 245.552 468.521C246.153 468.521 246.703 468.609 247.202 468.785C247.701 468.961 248.133 469.21 248.5 469.533C248.881 469.841 249.189 470.2 249.424 470.611C249.673 471.021 249.827 471.461 249.886 471.931L249.38 471.755V468.763H251.668V480.313H249.38V477.563L249.908 477.409C249.82 477.805 249.637 478.193 249.358 478.575C249.094 478.941 248.749 479.271 248.324 479.565C247.913 479.858 247.451 480.093 246.938 480.269C246.439 480.445 245.911 480.533 245.354 480.533ZM245.948 478.443C246.637 478.443 247.246 478.274 247.774 477.937C248.302 477.599 248.713 477.137 249.006 476.551C249.314 475.949 249.468 475.267 249.468 474.505C249.468 473.757 249.314 473.089 249.006 472.503C248.713 471.916 248.302 471.454 247.774 471.117C247.246 470.779 246.637 470.611 245.948 470.611C245.273 470.611 244.672 470.779 244.144 471.117C243.631 471.454 243.22 471.916 242.912 472.503C242.619 473.089 242.472 473.757 242.472 474.505C242.472 475.267 242.619 475.949 242.912 476.551C243.22 477.137 243.631 477.599 244.144 477.937C244.672 478.274 245.273 478.443 245.948 478.443Z" fill="black"/>
<path d="M227.826 480.313V464.033H230.092V471.139L229.696 471.403C229.843 470.889 230.129 470.42 230.554 469.995C230.98 469.555 231.486 469.203 232.072 468.939C232.659 468.66 233.26 468.521 233.876 468.521C234.756 468.521 235.49 468.697 236.076 469.049C236.663 469.386 237.103 469.907 237.396 470.611C237.69 471.315 237.836 472.202 237.836 473.273V480.313H235.57V473.427C235.57 472.767 235.482 472.224 235.306 471.799C235.13 471.359 234.859 471.043 234.492 470.853C234.126 470.647 233.671 470.559 233.128 470.589C232.688 470.589 232.285 470.662 231.918 470.809C231.552 470.941 231.229 471.131 230.95 471.381C230.686 471.63 230.474 471.923 230.312 472.261C230.166 472.583 230.092 472.935 230.092 473.317V480.313H228.97C228.78 480.313 228.589 480.313 228.398 480.313C228.208 480.313 228.017 480.313 227.826 480.313Z" fill="black"/>
<path d="M213.488 480.313V464.913H219.912C220.895 464.913 221.723 465.059 222.398 465.353C223.073 465.646 223.579 466.086 223.916 466.673C224.268 467.245 224.444 467.949 224.444 468.785C224.444 469.621 224.209 470.332 223.74 470.919C223.285 471.505 222.647 471.909 221.826 472.129V471.689C222.515 471.835 223.117 472.099 223.63 472.481C224.143 472.847 224.539 473.309 224.818 473.867C225.111 474.424 225.258 475.062 225.258 475.781C225.258 476.514 225.141 477.167 224.906 477.739C224.686 478.296 224.349 478.765 223.894 479.147C223.454 479.528 222.919 479.821 222.288 480.027C221.657 480.217 220.939 480.313 220.132 480.313H213.488ZM215.864 478.025H220C220.601 478.025 221.107 477.937 221.518 477.761C221.943 477.585 222.266 477.328 222.486 476.991C222.721 476.639 222.838 476.221 222.838 475.737C222.838 475.282 222.713 474.893 222.464 474.571C222.229 474.248 221.892 474.006 221.452 473.845C221.012 473.669 220.491 473.581 219.89 473.581H215.864V478.025ZM215.864 471.293H219.78C220.22 471.293 220.609 471.205 220.946 471.029C221.298 470.853 221.569 470.611 221.76 470.303C221.965 469.995 222.068 469.643 222.068 469.247C222.068 468.587 221.848 468.081 221.408 467.729C220.968 467.377 220.337 467.201 219.516 467.201H215.864V471.293Z" fill="black"/>
<path d="M200.073 480.533C199.105 480.533 198.232 480.364 197.455 480.027C196.677 479.689 196.032 479.191 195.519 478.531L197.059 477.211C197.499 477.724 197.975 478.098 198.489 478.333C199.017 478.553 199.611 478.663 200.271 478.663C200.535 478.663 200.777 478.633 200.997 478.575C201.231 478.501 201.429 478.399 201.591 478.267C201.767 478.135 201.899 477.981 201.987 477.805C202.075 477.614 202.119 477.409 202.119 477.189C202.119 476.807 201.979 476.499 201.701 476.265C201.554 476.162 201.319 476.052 200.997 475.935C200.689 475.803 200.285 475.671 199.787 475.539C198.936 475.319 198.239 475.069 197.697 474.791C197.154 474.512 196.736 474.197 196.443 473.845C196.223 473.566 196.061 473.265 195.959 472.943C195.856 472.605 195.805 472.239 195.805 471.843C195.805 471.359 195.907 470.919 196.113 470.523C196.333 470.112 196.626 469.76 196.993 469.467C197.374 469.159 197.814 468.924 198.313 468.763C198.826 468.601 199.369 468.521 199.941 468.521C200.483 468.521 201.019 468.594 201.547 468.741C202.089 468.887 202.588 469.1 203.043 469.379C203.497 469.657 203.879 469.987 204.187 470.369L202.889 471.799C202.61 471.52 202.302 471.278 201.965 471.073C201.642 470.853 201.312 470.684 200.975 470.567C200.637 470.449 200.329 470.391 200.051 470.391C199.743 470.391 199.464 470.42 199.215 470.479C198.965 470.537 198.753 470.625 198.577 470.743C198.415 470.86 198.291 471.007 198.203 471.183C198.115 471.359 198.071 471.557 198.071 471.777C198.085 471.967 198.129 472.151 198.203 472.327C198.291 472.488 198.408 472.627 198.555 472.745C198.716 472.862 198.958 472.987 199.281 473.119C199.603 473.251 200.014 473.375 200.513 473.493C201.246 473.683 201.847 473.896 202.317 474.131C202.801 474.351 203.182 474.607 203.461 474.901C203.754 475.179 203.959 475.502 204.077 475.869C204.194 476.235 204.253 476.646 204.253 477.101C204.253 477.761 204.062 478.355 203.681 478.883C203.314 479.396 202.815 479.799 202.185 480.093C201.554 480.386 200.85 480.533 200.073 480.533Z" fill="black"/>
<path d="M186.745 480.533C185.791 480.533 184.919 480.269 184.127 479.741C183.349 479.213 182.726 478.494 182.257 477.585C181.787 476.675 181.553 475.649 181.553 474.505C181.553 473.346 181.787 472.319 182.257 471.425C182.741 470.515 183.386 469.804 184.193 469.291C185.014 468.777 185.931 468.521 186.943 468.521C187.544 468.521 188.094 468.609 188.593 468.785C189.091 468.961 189.524 469.21 189.891 469.533C190.272 469.841 190.58 470.2 190.815 470.611C191.064 471.021 191.218 471.461 191.277 471.931L190.771 471.755V468.763H193.059V480.313H190.771V477.563L191.299 477.409C191.211 477.805 191.027 478.193 190.749 478.575C190.485 478.941 190.14 479.271 189.715 479.565C189.304 479.858 188.842 480.093 188.329 480.269C187.83 480.445 187.302 480.533 186.745 480.533ZM187.339 478.443C188.028 478.443 188.637 478.274 189.165 477.937C189.693 477.599 190.103 477.137 190.397 476.551C190.705 475.949 190.859 475.267 190.859 474.505C190.859 473.757 190.705 473.089 190.397 472.503C190.103 471.916 189.693 471.454 189.165 471.117C188.637 470.779 188.028 470.611 187.339 470.611C186.664 470.611 186.063 470.779 185.535 471.117C185.021 471.454 184.611 471.916 184.303 472.503C184.009 473.089 183.863 473.757 183.863 474.505C183.863 475.267 184.009 475.949 184.303 476.551C184.611 477.137 185.021 477.599 185.535 477.937C186.063 478.274 186.664 478.443 187.339 478.443Z" fill="black"/>
<path d="M173.175 480.533C172.119 480.533 171.173 480.276 170.337 479.763C169.516 479.235 168.863 478.523 168.379 477.629C167.895 476.719 167.653 475.685 167.653 474.527C167.653 473.368 167.888 472.341 168.357 471.447C168.841 470.537 169.494 469.826 170.315 469.313C171.137 468.785 172.068 468.521 173.109 468.521C173.681 468.521 174.231 468.616 174.759 468.807C175.302 468.983 175.786 469.232 176.211 469.555C176.637 469.863 176.967 470.207 177.201 470.589C177.451 470.955 177.575 471.329 177.575 471.711L176.915 471.755V464.033H179.181V480.313H176.915V477.563H177.355C177.355 477.915 177.238 478.267 177.003 478.619C176.769 478.956 176.453 479.271 176.057 479.565C175.676 479.858 175.229 480.093 174.715 480.269C174.217 480.445 173.703 480.533 173.175 480.533ZM173.483 478.575C174.173 478.575 174.781 478.399 175.309 478.047C175.837 477.695 176.248 477.218 176.541 476.617C176.849 476.001 177.003 475.304 177.003 474.527C177.003 473.749 176.849 473.06 176.541 472.459C176.248 471.843 175.837 471.359 175.309 471.007C174.781 470.655 174.173 470.479 173.483 470.479C172.794 470.479 172.185 470.655 171.657 471.007C171.129 471.359 170.711 471.843 170.403 472.459C170.11 473.06 169.963 473.749 169.963 474.527C169.963 475.304 170.11 476.001 170.403 476.617C170.711 477.218 171.129 477.695 171.657 478.047C172.185 478.399 172.794 478.575 173.483 478.575Z" fill="black"/>
<path d="M159.979 480.313V468.763H162.267V472.393L162.047 471.513C162.208 470.955 162.479 470.449 162.861 469.995C163.257 469.54 163.704 469.181 164.203 468.917C164.716 468.653 165.244 468.521 165.787 468.521C166.036 468.521 166.271 468.543 166.491 468.587C166.725 468.631 166.909 468.682 167.041 468.741L166.447 471.205C166.271 471.131 166.073 471.073 165.853 471.029C165.647 470.97 165.442 470.941 165.237 470.941C164.841 470.941 164.459 471.021 164.093 471.183C163.741 471.329 163.425 471.542 163.147 471.821C162.883 472.085 162.67 472.4 162.509 472.767C162.347 473.119 162.267 473.507 162.267 473.933V480.313H159.979Z" fill="black"/>
<path d="M150.501 480.533C149.547 480.533 148.675 480.269 147.883 479.741C147.105 479.213 146.482 478.494 146.013 477.585C145.543 476.675 145.309 475.649 145.309 474.505C145.309 473.346 145.543 472.319 146.013 471.425C146.497 470.515 147.142 469.804 147.949 469.291C148.77 468.777 149.687 468.521 150.699 468.521C151.3 468.521 151.85 468.609 152.349 468.785C152.847 468.961 153.28 469.21 153.647 469.533C154.028 469.841 154.336 470.2 154.571 470.611C154.82 471.021 154.974 471.461 155.033 471.931L154.527 471.755V468.763H156.815V480.313H154.527V477.563L155.055 477.409C154.967 477.805 154.783 478.193 154.505 478.575C154.241 478.941 153.896 479.271 153.471 479.565C153.06 479.858 152.598 480.093 152.085 480.269C151.586 480.445 151.058 480.533 150.501 480.533ZM151.095 478.443C151.784 478.443 152.393 478.274 152.921 477.937C153.449 477.599 153.859 477.137 154.153 476.551C154.461 475.949 154.615 475.267 154.615 474.505C154.615 473.757 154.461 473.089 154.153 472.503C153.859 471.916 153.449 471.454 152.921 471.117C152.393 470.779 151.784 470.611 151.095 470.611C150.42 470.611 149.819 470.779 149.291 471.117C148.777 471.454 148.367 471.916 148.059 472.503C147.765 473.089 147.619 473.757 147.619 474.505C147.619 475.267 147.765 475.949 148.059 476.551C148.367 477.137 148.777 477.599 149.291 477.937C149.819 478.274 150.42 478.443 151.095 478.443Z" fill="black"/>
<path d="M125.753 480.313V468.763H128.041V471.227L127.623 471.491C127.74 471.11 127.924 470.743 128.173 470.391C128.437 470.039 128.752 469.731 129.119 469.467C129.5 469.188 129.904 468.968 130.329 468.807C130.769 468.646 131.216 468.565 131.671 468.565C132.331 468.565 132.91 468.675 133.409 468.895C133.908 469.115 134.318 469.445 134.641 469.885C134.964 470.325 135.198 470.875 135.345 471.535L134.993 471.447L135.147 471.073C135.308 470.736 135.528 470.42 135.807 470.127C136.1 469.819 136.43 469.548 136.797 469.313C137.164 469.078 137.552 468.895 137.963 468.763C138.374 468.631 138.777 468.565 139.173 468.565C140.038 468.565 140.75 468.741 141.307 469.093C141.879 469.445 142.304 469.98 142.583 470.699C142.876 471.418 143.023 472.312 143.023 473.383V480.313H140.735V473.515C140.735 472.855 140.647 472.32 140.471 471.909C140.31 471.484 140.06 471.168 139.723 470.963C139.386 470.758 138.953 470.655 138.425 470.655C138.014 470.655 137.626 470.728 137.259 470.875C136.907 471.007 136.599 471.198 136.335 471.447C136.071 471.696 135.866 471.99 135.719 472.327C135.572 472.65 135.499 473.009 135.499 473.405V480.313H133.211V473.471C133.211 472.87 133.123 472.364 132.947 471.953C132.771 471.528 132.514 471.205 132.177 470.985C131.84 470.765 131.429 470.655 130.945 470.655C130.534 470.655 130.153 470.728 129.801 470.875C129.449 471.007 129.141 471.198 128.877 471.447C128.613 471.682 128.408 471.968 128.261 472.305C128.114 472.628 128.041 472.98 128.041 473.361V480.313H125.753Z" fill="black"/>
<path d="M109.359 480.313L115.321 464.913H117.741L123.659 480.313H121.129L117.609 471.029C117.565 470.926 117.477 470.677 117.345 470.281C117.227 469.885 117.088 469.445 116.927 468.961C116.765 468.477 116.619 468.037 116.487 467.641C116.355 467.23 116.267 466.966 116.223 466.849L116.729 466.827C116.641 467.076 116.531 467.391 116.399 467.773C116.281 468.154 116.149 468.557 116.003 468.983C115.871 469.408 115.739 469.811 115.607 470.193C115.475 470.559 115.365 470.867 115.277 471.117L111.779 480.313H109.359ZM111.999 476.485L112.879 474.197H119.875L120.887 476.485H111.999Z" fill="black"/>
<path d="M94.9543 480.533C94.1329 480.533 93.4142 480.342 92.7982 479.961C92.1969 479.579 91.7276 479.044 91.3903 478.355C91.0676 477.665 90.9062 476.844 90.9062 475.891V468.763H93.1722V475.275C93.1722 475.949 93.2749 476.536 93.4802 477.035C93.7002 477.519 94.0083 477.893 94.4043 478.157C94.8149 478.421 95.3063 478.553 95.8783 478.553C96.3036 478.553 96.6923 478.487 97.0443 478.355C97.3963 478.208 97.6969 478.01 97.9463 477.761C98.2103 477.511 98.4156 477.211 98.5622 476.859C98.7089 476.507 98.7822 476.125 98.7822 475.715V468.763H101.048V480.313H98.7822V477.893L99.1783 477.629C99.0023 478.171 98.7016 478.663 98.2763 479.103C97.8656 479.543 97.3743 479.895 96.8023 480.159C96.2303 480.408 95.6143 480.533 94.9543 480.533Z" fill="black"/>
<path d="M82.0332 480.313V468.763H84.3212V472.393L84.1012 471.513C84.2625 470.955 84.5339 470.449 84.9152 469.995C85.3112 469.54 85.7585 469.181 86.2572 468.917C86.7705 468.653 87.2985 468.521 87.8412 468.521C88.0905 468.521 88.3252 468.543 88.5452 468.587C88.7799 468.631 88.9632 468.682 89.0952 468.741L88.5012 471.205C88.3252 471.131 88.1272 471.073 87.9072 471.029C87.7019 470.97 87.4965 470.941 87.2912 470.941C86.8952 470.941 86.5139 471.021 86.1472 471.183C85.7952 471.329 85.4799 471.542 85.2012 471.821C84.9372 472.085 84.7245 472.4 84.5632 472.767C84.4019 473.119 84.3212 473.507 84.3212 473.933V480.313H82.0332Z" fill="black"/>
<path d="M72.7609 480.533C71.9396 480.533 71.2209 480.342 70.6049 479.961C70.0036 479.579 69.5342 479.044 69.1969 478.355C68.8742 477.665 68.7129 476.844 68.7129 475.891V468.763H70.9789V475.275C70.9789 475.949 71.0816 476.536 71.2869 477.035C71.5069 477.519 71.8149 477.893 72.2109 478.157C72.6216 478.421 73.1129 478.553 73.6849 478.553C74.1102 478.553 74.4989 478.487 74.8509 478.355C75.2029 478.208 75.5036 478.01 75.7529 477.761C76.0169 477.511 76.2222 477.211 76.3689 476.859C76.5156 476.507 76.5889 476.125 76.5889 475.715V468.763H78.8549V480.313H76.5889V477.893L76.9849 477.629C76.8089 478.171 76.5082 478.663 76.0829 479.103C75.6722 479.543 75.1809 479.895 74.6089 480.159C74.0369 480.408 73.4209 480.533 72.7609 480.533Z" fill="black"/>
<path d="M59.3271 480.533C58.2124 480.533 57.1711 480.335 56.2031 479.939C55.2351 479.528 54.3844 478.963 53.6511 478.245C52.9177 477.526 52.3457 476.69 51.9351 475.737C51.5391 474.769 51.3411 473.727 51.3411 472.613C51.3411 471.513 51.5391 470.486 51.9351 469.533C52.3457 468.579 52.9104 467.751 53.6291 467.047C54.3624 466.328 55.2131 465.771 56.1811 465.375C57.1491 464.979 58.1904 464.781 59.3051 464.781C60.0824 464.781 60.8377 464.891 61.5711 465.111C62.3191 465.331 62.9937 465.639 63.5951 466.035C64.1964 466.431 64.6877 466.885 65.0691 467.399L63.5291 469.005C63.0891 468.579 62.6344 468.227 62.1651 467.949C61.7104 467.67 61.2411 467.457 60.7571 467.311C60.2731 467.164 59.7891 467.091 59.3051 467.091C58.5131 467.091 57.7797 467.23 57.1051 467.509C56.4451 467.787 55.8584 468.176 55.3451 468.675C54.8464 469.173 54.4577 469.76 54.1791 470.435C53.9004 471.095 53.7611 471.821 53.7611 472.613C53.7611 473.375 53.9077 474.101 54.2011 474.791C54.4944 475.465 54.8977 476.059 55.4111 476.573C55.9391 477.086 56.5404 477.489 57.2151 477.783C57.9044 478.076 58.6304 478.223 59.3931 478.223C59.9651 478.223 60.5077 478.142 61.0211 477.981C61.5344 477.805 61.9891 477.563 62.3851 477.255C62.7811 476.947 63.0891 476.595 63.3091 476.199C63.5291 475.788 63.6391 475.355 63.6391 474.901V474.461L63.9691 474.769H59.2611V472.415H66.0811C66.1104 472.576 66.1324 472.737 66.1471 472.899C66.1617 473.045 66.1691 473.192 66.1691 473.339C66.1837 473.471 66.1911 473.603 66.1911 473.735C66.1911 474.747 66.0151 475.671 65.6631 476.507C65.3111 477.328 64.8197 478.039 64.1891 478.641C63.5731 479.242 62.8471 479.711 62.0111 480.049C61.1897 480.371 60.2951 480.533 59.3271 480.533Z" fill="black"/>
<path d="M40.1898 484.251L39.3538 483.239C39.8671 482.945 40.2851 482.608 40.6078 482.227C40.9304 481.845 41.0918 481.515 41.0918 481.237C41.0918 481.09 41.0551 480.943 40.9818 480.797C40.9084 480.665 40.7544 480.474 40.5198 480.225C40.2264 479.946 40.0358 479.711 39.9478 479.521C39.8598 479.33 39.8158 479.125 39.8158 478.905C39.8158 478.553 39.9404 478.274 40.1898 478.069C40.4391 477.849 40.7618 477.739 41.1578 477.739C41.5244 477.739 41.8544 477.849 42.1478 478.069C42.4558 478.274 42.6904 478.567 42.8518 478.949C43.0278 479.315 43.1158 479.741 43.1158 480.225C43.1158 480.665 43.0424 481.09 42.8958 481.501C42.7491 481.911 42.5438 482.293 42.2798 482.645C42.0158 482.997 41.7078 483.312 41.3558 483.591C41.0038 483.869 40.6151 484.089 40.1898 484.251Z" fill="black"/>
<path d="M32.2337 480.313C31.471 480.313 30.7597 480.181 30.0997 479.917C29.4544 479.638 28.8897 479.257 28.4057 478.773C27.9364 478.289 27.5624 477.717 27.2837 477.057C27.0197 476.397 26.8877 475.671 26.8877 474.879C26.8877 474.483 26.939 474.043 27.0417 473.559C27.159 473.06 27.3277 472.518 27.5477 471.931C27.7824 471.344 28.061 470.728 28.3837 470.083C28.7064 469.423 29.0804 468.741 29.5057 468.037L31.5077 464.649H33.8177L33.9057 464.869L31.4857 468.939C31.0457 469.687 30.6497 470.398 30.2977 471.073C29.9604 471.748 29.6744 472.386 29.4397 472.987C29.205 473.574 29.029 474.109 28.9117 474.593L28.3837 472.327C28.6624 471.872 28.963 471.476 29.2857 471.139C29.6084 470.787 29.953 470.494 30.3197 470.259C30.701 470.024 31.097 469.848 31.5077 469.731C31.9184 469.614 32.3437 469.555 32.7837 469.555C33.6344 469.555 34.4117 469.79 35.1157 470.259C35.8344 470.714 36.4064 471.322 36.8317 472.085C37.2717 472.848 37.4917 473.684 37.4917 474.593C37.4917 475.693 37.2644 476.676 36.8097 477.541C36.3697 478.392 35.7537 479.066 34.9617 479.565C34.1697 480.064 33.2604 480.313 32.2337 480.313ZM32.2337 478.113C32.8057 478.113 33.3117 477.981 33.7517 477.717C34.2064 477.438 34.5584 477.057 34.8077 476.573C35.0717 476.074 35.2037 475.51 35.2037 474.879C35.2037 474.336 35.0717 473.83 34.8077 473.361C34.5437 472.877 34.1917 472.488 33.7517 472.195C33.3117 471.902 32.8204 471.755 32.2777 471.755C31.6764 471.755 31.141 471.894 30.6717 472.173C30.2024 472.452 29.8357 472.826 29.5717 473.295C29.3077 473.764 29.1757 474.285 29.1757 474.857C29.1757 475.473 29.3077 476.03 29.5717 476.529C29.8357 477.013 30.195 477.402 30.6497 477.695C31.1044 477.974 31.6324 478.113 32.2337 478.113Z" fill="black"/>
<path d="M19.3105 480.533C18.1372 480.533 17.1252 480.21 16.2745 479.565C15.4385 478.92 14.7932 478.01 14.3385 476.837C13.8838 475.649 13.6565 474.241 13.6565 472.613C13.6565 470.985 13.8838 469.584 14.3385 468.411C14.7932 467.223 15.4385 466.306 16.2745 465.661C17.1252 465.016 18.1372 464.693 19.3105 464.693C20.4838 464.693 21.4958 465.016 22.3465 465.661C23.1972 466.306 23.8498 467.223 24.3045 468.411C24.7592 469.584 24.9865 470.985 24.9865 472.613C24.9865 474.241 24.7592 475.649 24.3045 476.837C23.8498 478.01 23.1972 478.92 22.3465 479.565C21.4958 480.21 20.4838 480.533 19.3105 480.533ZM19.3105 478.377C20.3812 478.377 21.2098 477.878 21.7965 476.881C22.3832 475.869 22.6765 474.446 22.6765 472.613C22.6765 470.78 22.3832 469.364 21.7965 468.367C21.2098 467.355 20.3812 466.849 19.3105 466.849C18.2398 466.849 17.4112 467.355 16.8245 468.367C16.2378 469.364 15.9445 470.78 15.9445 472.613C15.9445 474.446 16.2378 475.869 16.8245 476.881C17.4112 477.878 18.2398 478.377 19.3105 478.377Z" fill="black"/>
<path d="M6.52194 480.533C5.43661 480.533 4.49061 480.283 3.68394 479.785C2.89194 479.286 2.14394 478.45 1.43994 477.277L3.28794 476.111C3.65461 476.653 4.01394 477.101 4.36594 477.453C4.73261 477.79 5.10661 478.039 5.48794 478.201C5.86928 478.362 6.27261 478.443 6.69794 478.443C7.21127 478.443 7.68794 478.318 8.12794 478.069C8.56794 477.805 8.91994 477.445 9.18394 476.991C9.44794 476.536 9.57994 476.023 9.57994 475.451C9.57994 474.879 9.47727 474.395 9.27194 473.999C9.06661 473.588 8.76594 473.28 8.36994 473.075C7.97394 472.855 7.50461 472.745 6.96194 472.745C6.71261 472.745 6.44861 472.774 6.16994 472.833C5.90594 472.877 5.61994 472.95 5.31194 473.053C5.00394 473.141 4.66661 473.258 4.29994 473.405L3.63994 471.667L8.39194 466.431L8.85394 467.113H2.29794V464.913H11.1199L11.5599 465.793L6.52194 471.381L5.97194 470.809C6.08927 470.75 6.27994 470.699 6.54394 470.655C6.82261 470.596 7.04994 470.567 7.22594 470.567C7.87127 470.567 8.47261 470.691 9.02994 470.941C9.60194 471.175 10.0933 471.513 10.5039 471.953C10.9293 472.378 11.2593 472.884 11.4939 473.471C11.7433 474.043 11.8679 474.659 11.8679 475.319C11.8679 476.316 11.6259 477.211 11.1419 478.003C10.6726 478.78 10.0346 479.396 9.22794 479.851C8.42128 480.305 7.51927 480.533 6.52194 480.533Z" fill="black"/>
<path fill-rule="evenodd" clip-rule="evenodd" d="M285.914 455.812L0.999908 455.812C0.447632 455.812 -9.15136e-05 455.365 -9.14653e-05 454.812C-9.1417e-05 454.26 0.447632 453.812 0.999909 453.812L285.086 453.812L371.588 367.31C371.007 366.456 370.667 365.424 370.667 364.312C370.667 361.367 373.054 358.979 376 358.979C378.945 358.979 381.333 361.367 381.333 364.312C381.333 367.258 378.945 369.646 376 369.646C374.889 369.646 373.857 369.306 373.002 368.724L285.914 455.812Z" fill="#B33F0F"/>
<defs>
<filter id="filter0_dddd_817_3387" x="54.561" y="41.8599" width="614.602" height="568.898" filterUnits="userSpaceOnUse" color-interpolation-filters="sRGB">
<feFlood flood-opacity="0" result="BackgroundImageFix"/>
<feColorMatrix in="SourceAlpha" type="matrix" values="0 0 0 0 0 0 0 0 0 0 0 0 0 0 0 0 0 0 127 0" result="hardAlpha"/>
<feOffset dx="6" dy="6"/>
<feGaussianBlur stdDeviation="9.5"/>
<feColorMatrix type="matrix" values="0 0 0 0 0.611765 0 0 0 0 0.262745 0 0 0 0 0.121569 0 0 0 0.1 0"/>
<feBlend mode="normal" in2="BackgroundImageFix" result="effect1_dropShadow_817_3387"/>
<feColorMatrix in="SourceAlpha" type="matrix" values="0 0 0 0 0 0 0 0 0 0 0 0 0 0 0 0 0 0 127 0" result="hardAlpha"/>
<feOffset dx="25" dy="24"/>
<feGaussianBlur stdDeviation="17.5"/>
<feColorMatrix type="matrix" values="0 0 0 0 0.611765 0 0 0 0 0.262745 0 0 0 0 0.121569 0 0 0 0.09 0"/>
<feBlend mode="normal" in2="effect1_dropShadow_817_3387" result="effect2_dropShadow_817_3387"/>
<feColorMatrix in="SourceAlpha" type="matrix" values="0 0 0 0 0 0 0 0 0 0 0 0 0 0 0 0 0 0 127 0" result="hardAlpha"/>
<feOffset dx="56" dy="54"/>
<feGaussianBlur stdDeviation="23.5"/>
<feColorMatrix type="matrix" values="0 0 0 0 0.611765 0 0 0 0 0.262745 0 0 0 0 0.121569 0 0 0 0.05 0"/>
<feBlend mode="normal" in2="effect2_dropShadow_817_3387" result="effect3_dropShadow_817_3387"/>
<feColorMatrix in="SourceAlpha" type="matrix" values="0 0 0 0 0 0 0 0 0 0 0 0 0 0 0 0 0 0 127 0" result="hardAlpha"/>
<feOffset dx="99" dy="96"/>
<feGaussianBlur stdDeviation="27.5"/>
<feColorMatrix type="matrix" values="0 0 0 0 0.611765 0 0 0 0 0.262745 0 0 0 0 0.121569 0 0 0 0.01 0"/>
<feBlend mode="normal" in2="effect3_dropShadow_817_3387" result="effect4_dropShadow_817_3387"/>
<feBlend mode="normal" in="SourceGraphic" in2="effect4_dropShadow_817_3387" result="shape"/>
</filter>
</defs>
</svg>
