<svg width="516" height="549" viewBox="0 0 516 549" fill="none" xmlns="http://www.w3.org/2000/svg">
<mask id="path-1-outside-1_354_2011" maskUnits="userSpaceOnUse" x="104" y="44" width="387" height="86" fill="black">
<rect fill="white" x="104" y="44" width="387" height="86"/>
<path d="M105.56 129V45H140.72C146.88 45 152.52 46.04 157.64 48.12C162.76 50.12 167.16 53 170.84 56.76C174.6 60.52 177.48 64.96 179.48 70.08C181.48 75.2 182.48 80.84 182.48 87C182.48 93.16 181.48 98.84 179.48 104.04C177.48 109.16 174.6 113.6 170.84 117.36C167.16 121.04 162.76 123.92 157.64 126C152.52 128 146.88 129 140.72 129H105.56ZM125.96 115.08L123.2 111H140.12C143.48 111 146.48 110.44 149.12 109.32C151.76 108.12 154 106.48 155.84 104.4C157.76 102.32 159.24 99.8 160.28 96.84C161.32 93.88 161.84 90.6 161.84 87C161.84 83.4 161.32 80.12 160.28 77.16C159.24 74.2 157.76 71.68 155.84 69.6C154 67.52 151.76 65.92 149.12 64.8C146.48 63.6 143.48 63 140.12 63H122.84L125.96 59.16V115.08ZM198.255 129V45H256.815V62.4H218.055V111.6H258.015V129H198.255ZM207.855 94.56V78H251.415V94.56H207.855ZM275.599 129V45H295.999V111H333.439V129H275.599ZM400.804 129V45H421.204V129H400.804ZM348.724 129V45H369.124V129H348.724ZM356.644 96.24L356.764 78H411.604V96.24H356.644ZM440.56 129V111.84H454.72V62.16H440.56V45H489.4V62.16H475.12V111.84H489.4V129H440.56Z"/>
</mask>
<path d="M105.56 129H104.56V130H105.56V129ZM105.56 45V44H104.56V45H105.56ZM157.64 48.12L157.264 49.0465L157.276 49.0515L157.64 48.12ZM170.84 56.76L170.125 57.4595L170.133 57.4671L170.84 56.76ZM179.48 70.08L180.411 69.7161L179.48 70.08ZM179.48 104.04L180.411 104.404L180.413 104.399L179.48 104.04ZM170.84 117.36L171.547 118.067L170.84 117.36ZM157.64 126L158.004 126.932L158.016 126.926L157.64 126ZM125.96 115.08L125.132 115.64L126.96 118.343V115.08H125.96ZM123.2 111V110H121.316L122.372 111.56L123.2 111ZM149.12 109.32L149.511 110.241L149.522 110.236L149.534 110.23L149.12 109.32ZM155.84 104.4L155.105 103.722L155.098 103.729L155.091 103.737L155.84 104.4ZM155.84 69.6L155.091 70.2626L155.098 70.2705L155.105 70.2783L155.84 69.6ZM149.12 64.8L148.706 65.7104L148.718 65.7156L148.729 65.7206L149.12 64.8ZM122.84 63L122.064 62.3694L120.739 64H122.84V63ZM125.96 59.16H126.96V56.3434L125.184 58.5294L125.96 59.16ZM106.56 129V45H104.56V129H106.56ZM105.56 46H140.72V44H105.56V46ZM140.72 46C146.766 46 152.276 47.0203 157.264 49.0465L158.016 47.1935C152.764 45.0597 146.994 44 140.72 44V46ZM157.276 49.0515C162.27 51.0022 166.549 53.8053 170.125 57.4595L171.555 56.0605C167.771 52.1947 163.25 49.2378 158.004 47.1885L157.276 49.0515ZM170.133 57.4671C173.792 61.1261 176.597 65.4481 178.549 70.4438L180.411 69.7161C178.363 64.4719 175.408 59.9139 171.547 56.0529L170.133 57.4671ZM178.549 70.4438C180.498 75.4347 181.48 80.9495 181.48 87H183.48C183.48 80.7305 182.462 74.9653 180.411 69.7161L178.549 70.4438ZM181.48 87C181.48 93.0502 180.498 98.6071 178.547 103.681L180.413 104.399C182.462 99.0729 183.48 93.2698 183.48 87H181.48ZM178.549 103.676C176.597 108.672 173.792 112.994 170.133 116.653L171.547 118.067C175.408 114.206 178.363 109.648 180.411 104.404L178.549 103.676ZM170.133 116.653C166.553 120.233 162.268 123.041 157.264 125.074L158.016 126.926C163.252 124.799 167.767 121.847 171.547 118.067L170.133 116.653ZM157.276 125.069C152.285 127.018 146.77 128 140.72 128V130C146.99 130 152.755 128.982 158.004 126.931L157.276 125.069ZM140.72 128H105.56V130H140.72V128ZM126.788 114.52L124.028 110.44L122.372 111.56L125.132 115.64L126.788 114.52ZM123.2 112H140.12V110H123.2V112ZM140.12 112C143.591 112 146.728 111.421 149.511 110.241L148.729 108.399C146.232 109.459 143.369 110 140.12 110V112ZM149.534 110.23C152.296 108.975 154.652 107.252 156.589 105.063L155.091 103.737C153.348 105.708 151.224 107.265 148.706 108.41L149.534 110.23ZM156.575 105.078C158.597 102.888 160.143 100.246 161.223 97.1715L159.337 96.5085C158.337 99.3539 156.923 101.752 155.105 103.722L156.575 105.078ZM161.223 97.1715C162.306 94.0905 162.84 90.6965 162.84 87H160.84C160.84 90.5035 160.334 93.6695 159.337 96.5085L161.223 97.1715ZM162.84 87C162.84 83.3035 162.306 79.9095 161.223 76.8285L159.337 77.4915C160.334 80.3305 160.84 83.4965 160.84 87H162.84ZM161.223 76.8285C160.143 73.7539 158.597 71.1122 156.575 68.9217L155.105 70.2783C156.923 72.2478 158.337 74.6461 159.337 77.4915L161.223 76.8285ZM156.589 68.9374C154.647 66.7421 152.283 65.0557 149.511 63.8794L148.729 65.7206C151.237 66.7843 153.353 68.2979 155.091 70.2626L156.589 68.9374ZM149.534 63.8896C146.745 62.6219 143.6 62 140.12 62V64C143.36 64 146.215 64.5781 148.706 65.7104L149.534 63.8896ZM140.12 62H122.84V64H140.12V62ZM123.616 63.6306L126.736 59.7906L125.184 58.5294L122.064 62.3694L123.616 63.6306ZM124.96 59.16V115.08H126.96V59.16H124.96ZM198.255 129H197.255V130H198.255V129ZM198.255 45V44H197.255V45H198.255ZM256.815 45H257.815V44H256.815V45ZM256.815 62.4V63.4H257.815V62.4H256.815ZM218.055 62.4V61.4H217.055V62.4H218.055ZM218.055 111.6H217.055V112.6H218.055V111.6ZM258.015 111.6H259.015V110.6H258.015V111.6ZM258.015 129V130H259.015V129H258.015ZM207.855 94.56H206.855V95.56H207.855V94.56ZM207.855 78V77H206.855V78H207.855ZM251.415 78H252.415V77H251.415V78ZM251.415 94.56V95.56H252.415V94.56H251.415ZM199.255 129V45H197.255V129H199.255ZM198.255 46H256.815V44H198.255V46ZM255.815 45V62.4H257.815V45H255.815ZM256.815 61.4H218.055V63.4H256.815V61.4ZM217.055 62.4V111.6H219.055V62.4H217.055ZM218.055 112.6H258.015V110.6H218.055V112.6ZM257.015 111.6V129H259.015V111.6H257.015ZM258.015 128H198.255V130H258.015V128ZM208.855 94.56V78H206.855V94.56H208.855ZM207.855 79H251.415V77H207.855V79ZM250.415 78V94.56H252.415V78H250.415ZM251.415 93.56H207.855V95.56H251.415V93.56ZM275.599 129H274.599V130H275.599V129ZM275.599 45V44H274.599V45H275.599ZM295.999 45H296.999V44H295.999V45ZM295.999 111H294.999V112H295.999V111ZM333.439 111H334.439V110H333.439V111ZM333.439 129V130H334.439V129H333.439ZM276.599 129V45H274.599V129H276.599ZM275.599 46H295.999V44H275.599V46ZM294.999 45V111H296.999V45H294.999ZM295.999 112H333.439V110H295.999V112ZM332.439 111V129H334.439V111H332.439ZM333.439 128H275.599V130H333.439V128ZM400.804 129H399.804V130H400.804V129ZM400.804 45V44H399.804V45H400.804ZM421.204 45H422.204V44H421.204V45ZM421.204 129V130H422.204V129H421.204ZM348.724 129H347.724V130H348.724V129ZM348.724 45V44H347.724V45H348.724ZM369.124 45H370.124V44H369.124V45ZM369.124 129V130H370.124V129H369.124ZM356.644 96.24L355.644 96.2334L355.637 97.24H356.644V96.24ZM356.764 78V77H355.771L355.764 77.9934L356.764 78ZM411.604 78H412.604V77H411.604V78ZM411.604 96.24V97.24H412.604V96.24H411.604ZM401.804 129V45H399.804V129H401.804ZM400.804 46H421.204V44H400.804V46ZM420.204 45V129H422.204V45H420.204ZM421.204 128H400.804V130H421.204V128ZM349.724 129V45H347.724V129H349.724ZM348.724 46H369.124V44H348.724V46ZM368.124 45V129H370.124V45H368.124ZM369.124 128H348.724V130H369.124V128ZM357.644 96.2466L357.764 78.0066L355.764 77.9934L355.644 96.2334L357.644 96.2466ZM356.764 79H411.604V77H356.764V79ZM410.604 78V96.24H412.604V78H410.604ZM411.604 95.24H356.644V97.24H411.604V95.24ZM440.56 129H439.56V130H440.56V129ZM440.56 111.84V110.84H439.56V111.84H440.56ZM454.72 111.84V112.84H455.72V111.84H454.72ZM454.72 62.16H455.72V61.16H454.72V62.16ZM440.56 62.16H439.56V63.16H440.56V62.16ZM440.56 45V44H439.56V45H440.56ZM489.4 45H490.4V44H489.4V45ZM489.4 62.16V63.16H490.4V62.16H489.4ZM475.12 62.16V61.16H474.12V62.16H475.12ZM475.12 111.84H474.12V112.84H475.12V111.84ZM489.4 111.84H490.4V110.84H489.4V111.84ZM489.4 129V130H490.4V129H489.4ZM441.56 129V111.84H439.56V129H441.56ZM440.56 112.84H454.72V110.84H440.56V112.84ZM455.72 111.84V62.16H453.72V111.84H455.72ZM454.72 61.16H440.56V63.16H454.72V61.16ZM441.56 62.16V45H439.56V62.16H441.56ZM440.56 46H489.4V44H440.56V46ZM488.4 45V62.16H490.4V45H488.4ZM489.4 61.16H475.12V63.16H489.4V61.16ZM474.12 62.16V111.84H476.12V62.16H474.12ZM475.12 112.84H489.4V110.84H475.12V112.84ZM488.4 111.84V129H490.4V111.84H488.4ZM489.4 128H440.56V130H489.4V128Z" fill="#B33F0F" mask="url(#path-1-outside-1_354_2011)"/>
<path d="M416.534 174.953L412.274 180.863L416.534 187.848L420.794 203.43V232.443V253.934L429.883 274.016L425.339 277.247L407.729 278.255V274.351H400.629L405.172 280.143L402.617 292.114L395.517 294.792L383.587 292.114L379.894 297.471L364.274 311.424L354.332 326.467L343.255 307.125H337.859V311.424H328.77L324.225 302.827V292.114L328.77 280.143L324.225 276.366L328.77 271.665L313.717 267.366L308.888 276.366L290.711 283.92H284.178L259.468 294.768L253.787 289.46V278.381L239.302 274.351H225.953L207.775 285.097H198.97L172.414 271.665L173.621 257.696L180.509 244.263L166.733 234.592L175.964 218.473L170.568 214.712L174.26 208.265L162.899 198.594L170.568 187.848L166.875 180.863V169.043L158.923 160.983L166.875 146.343L174.26 150.238L177.668 142.447L183.349 139.492L190.166 142.447L207.775 127.672H219.704H232.201L246.403 133.582L253.787 118.806L265.149 102.688L274.237 106.18L280.202 101.345L278.782 97.8524L281.622 94.3599H286.735L290.711 101.345L308.888 104.031L318.545 113.836L324.225 108.867H333.315L337.859 118.806V127.672H348.652L360.013 114.777L368.533 111.553L398.64 114.777L402.617 122.836V127.672L407.729 139.492L402.617 145.403V155.073L388.416 151.85V165.013L395.517 171.73H412.274L416.534 174.953Z" fill="#B33F0F" stroke="#B33F0F" stroke-miterlimit="10"/>
<path d="M343.485 307.143L354.562 326.485L355.698 334.006L353.426 340.454L349.45 349.051H342.633L340.929 354.154L342.633 359.795L349.45 367.319V370.273V375.378L342.633 373.229L339.225 375.378L332.408 373.229L326.728 367.319L321.473 370.542L316.502 367.319L289.307 363.02L284.479 356.573H281.283V351.737H287.674L290.941 340.454L324.455 302.844L329 311.44H338.088V307.143H343.485Z" fill="#B33F0F" stroke="#B33F0F" stroke-miterlimit="10"/>
<path d="M72.0107 359.78L75.4193 367.302L79.9636 370.526L90.1887 375.36L94.1651 381.674L97.573 383.152L104.958 389.464L108.366 392.822L104.958 406.255L111.774 409.21H118.023L121.432 403.3L127.112 402.83L134.497 400.479L141.881 405.18L146.994 403.3H152.674L169.148 407.061L176.533 403.3L193.623 395.241L203.372 399.54L207.775 395.241L220.272 397.658L223.681 392.822L212.319 383.152L216.864 380.196H223.681L239.302 386.107L253.787 392.822L251.515 397.658L264.012 403.3L269.124 399.54H271.823L275.942 395.779L295.221 399.54V407.061L316.272 414.046L311.303 431.239L308.888 435.268L311.303 439.298L318.758 448.433L321.245 456.76L329.338 462.939L343.255 464.282L351.209 469.655L355.468 473.685V482.281L362.285 484.431L364.274 493.93V491.416L372.084 486.58H377.339H389.552L412.274 482.281L423.066 473.685H429.883L434.144 465.627L429.883 462.939V450.582L423.066 446.283H416.534V439.298L423.066 431.239L429.883 426.404L451.469 422.105V418.882L461.694 414.046H474.191L478.736 418.882L483.28 422.105H489.529L497.198 418.882L514.523 399.54L504.866 386.107L489.529 374.286L483.28 372.81L474.191 356.556V349.034L466.807 343.762L447.493 330.229L443.517 304.447L438.404 283.745L429.883 274.016L425.339 277.247L407.729 278.255V274.351H400.629L405.172 280.143L402.617 292.114L407.729 298.798L423.066 307.126V326.467V333.991L407.729 337.214V342.788L399.776 344.735H395.232L397.504 349.034H402.049L397.504 359.78H385.575V354.139L369.102 351.586L355.468 333.991L353.196 340.438L349.22 349.034H342.403L340.699 354.139L342.403 359.78L349.22 367.302V370.258V375.36L342.403 373.212L338.995 375.36L332.179 373.212L326.498 367.302L321.245 370.526L316.272 367.302L289.077 363.003L284.249 356.556H281.054V351.722H287.444L290.711 340.438L324.225 302.827V294.768L328.77 280.143L324.225 276.366L328.77 271.665L313.717 267.366L308.888 276.366L290.711 283.92H284.178L259.468 294.768L253.787 289.46V278.381L239.302 274.351H225.953L207.775 285.097H198.97L193.623 282.393L172.414 271.665L160.911 270.617L152.674 273.941L145.431 289.1L160.911 299.094L158.923 304.977L152.674 311.425L138.188 302.827H134.497L124.272 307.126L114.898 300.705L108.366 302.827L101.266 321.634L97.573 323.782V330.229L92.1769 340.001L75.4193 340.438L69.1707 344.735H72.0107V351.586V356.959" fill="#B33F0F"/>
<path d="M72.0107 359.78L75.4193 367.302L79.9636 370.526L90.1887 375.36L94.1651 381.674L97.573 383.152L104.958 389.464L108.366 392.822L104.958 406.255L111.774 409.21H118.023L121.432 403.3L127.112 402.83L134.497 400.479L141.881 405.18L146.994 403.3H152.674L169.148 407.061L176.533 403.3L193.623 395.241L203.372 399.54L207.775 395.241L220.272 397.658L223.681 392.822L212.319 383.152L216.864 380.196H223.681L239.302 386.107L253.787 392.822L251.515 397.658L264.012 403.3L269.124 399.54H271.823L275.942 395.779L295.221 399.54V407.061L316.272 414.046L311.303 431.239L308.888 435.268L311.303 439.298L318.758 448.433L321.245 456.76L329.338 462.939L343.255 464.282L351.209 469.655L355.468 473.685V482.281L362.285 484.431L364.274 493.93V491.416L372.084 486.58H377.339H389.552L412.274 482.281L423.066 473.685H429.883L434.144 465.627L429.883 462.939V450.582L423.066 446.283H416.534V439.298L423.066 431.239L429.883 426.404L451.469 422.105V418.882L461.694 414.046H474.191L478.736 418.882L483.28 422.105H489.529L497.198 418.882L514.523 399.54L504.866 386.107L489.529 374.286L483.28 372.81L474.191 356.556V349.034L466.807 343.762L447.493 330.229L443.517 304.447L438.404 283.745L429.883 274.016L425.339 277.247L407.729 278.255V274.351H400.629L405.172 280.143L402.617 292.114L407.729 298.798L423.066 307.126V326.467V333.991L407.729 337.214V342.788L399.776 344.735H395.232L397.504 349.034H402.049L397.504 359.78H385.575V354.139L369.102 351.586L355.468 333.991L353.196 340.438L349.22 349.034H342.403L340.699 354.139L342.403 359.78L349.22 367.302V370.258V375.36L342.403 373.212L338.995 375.36L332.179 373.212L326.498 367.302L321.245 370.526L316.272 367.302L289.077 363.003L284.249 356.556H281.054V351.722H287.444L290.711 340.438L324.225 302.827V294.768L328.77 280.143L324.225 276.366L328.77 271.665L313.717 267.366L308.888 276.366L290.711 283.92H284.178L259.468 294.768L253.787 289.46V278.381L239.302 274.351H225.953L207.775 285.097H198.97L193.623 282.393L172.414 271.665L160.911 270.617L152.674 273.941L145.431 289.1L160.911 299.094L158.923 304.977L152.674 311.425L138.188 302.827H134.497L124.272 307.126L114.898 300.705L108.366 302.827L101.266 321.634L97.573 323.782V330.229L92.1769 340.001L75.4193 340.438L69.1707 344.735H72.0107V351.586V356.959" stroke="#B33F0F" stroke-miterlimit="10"/>
<path d="M383.817 292.13L395.745 294.809L402.847 292.13L407.958 298.814L423.296 307.143V326.485V334.006L407.958 337.231V342.804L400.006 344.752H395.461L397.734 349.051H402.279L397.734 359.795H385.805V354.154L369.331 351.601L355.698 334.006L354.562 326.485L364.504 311.44L380.124 297.486L383.817 292.13Z" fill="#B33F0F" stroke="#B33F0F" stroke-miterlimit="10"/>
<path d="M492.115 289.1L493.891 283.94V275.061L495.921 270.741V264.261L499.791 262.581L504.294 261.381V257.301L501.757 251.541L497.824 245.542V238.222L501.757 233.063L493.891 234.082L490.34 233.063H479.175L474.1 235.102V237.142L471.056 239.302L465.093 237.142L464.205 233.063L465.982 230.183V224.903L452.28 213.863L448.474 214.704L441.877 215.543L437.437 213.863L435.787 208.584L439.086 202.344L435.787 198.024H428.429L418.161 193.796L420.794 203.43V253.935L429.883 274.016L438.404 283.745L443.517 304.447L447.493 330.229L474.191 349.034L475.116 342.978L482.22 336.258L486.279 329.298H497.824L501.757 326.468L508.862 324.738L511.399 320.418L512.414 312.019L510.384 307.699L504.294 302.844L492.115 294.74V288.02" fill="#B33F0F"/>
<path d="M492.115 289.1L493.891 283.94V275.061L495.921 270.741V264.261L499.791 262.581L504.294 261.381V257.301L501.757 251.541L497.824 245.542V238.222L501.757 233.063L493.891 234.082L490.34 233.063H479.175L474.1 235.102V237.142L471.056 239.302L465.093 237.142L464.205 233.063L465.982 230.183V224.903L452.28 213.863L448.474 214.704L441.877 215.543L437.437 213.863L435.787 208.584L439.086 202.344L435.787 198.024H428.429L418.161 193.796L420.794 203.43V253.935L429.883 274.016L438.404 283.745L443.517 304.447L447.493 330.229L474.191 349.034L475.116 342.978L482.22 336.258L486.279 329.298H497.824L501.757 326.468L508.862 324.738L511.399 320.418L512.414 312.019L510.384 307.699L504.294 302.844L492.115 294.74V288.02" stroke="#B33F0F" stroke-miterlimit="10"/>
<path d="M381.333 403C381.333 400.054 378.946 397.667 376 397.667C373.054 397.667 370.667 400.054 370.667 403C370.667 405.946 373.054 408.333 376 408.333C378.946 408.333 381.333 405.946 381.333 403ZM285.5 493.5L285.5 494.5L285.914 494.5L286.207 494.207L285.5 493.5ZM1 492.5C0.447723 492.5 4.82823e-08 492.948 0 493.5C-4.82823e-08 494.052 0.447723 494.5 1 494.5L1 492.5ZM375.293 402.293L284.793 492.793L286.207 494.207L376.707 403.707L375.293 402.293ZM285.5 492.5L1 492.5L1 494.5L285.5 494.5L285.5 492.5Z" fill="#B33F0F"/>
<path d="M390.333 394C390.333 391.054 387.946 388.667 385 388.667C382.054 388.667 379.667 391.054 379.667 394C379.667 396.946 382.054 399.333 385 399.333C387.946 399.333 390.333 396.946 390.333 394ZM384.293 393.293L320.793 456.793L322.207 458.207L385.707 394.707L384.293 393.293Z" fill="#F6F6F6"/>
<path d="M6.522 523.22C5.43667 523.22 4.49067 522.971 3.684 522.472C2.892 521.973 2.144 521.137 1.44 519.964L3.288 518.798C3.65467 519.341 4.014 519.788 4.366 520.14C4.73267 520.477 5.10667 520.727 5.488 520.888C5.86933 521.049 6.27267 521.13 6.698 521.13C7.21133 521.13 7.688 521.005 8.128 520.756C8.568 520.492 8.92 520.133 9.184 519.678C9.448 519.223 9.58 518.71 9.58 518.138C9.58 517.566 9.47733 517.082 9.272 516.686C9.06667 516.275 8.766 515.967 8.37 515.762C7.974 515.542 7.50467 515.432 6.962 515.432C6.71267 515.432 6.44867 515.461 6.17 515.52C5.906 515.564 5.62 515.637 5.312 515.74C5.004 515.828 4.66667 515.945 4.3 516.092L3.64 514.354L8.392 509.118L8.854 509.8H2.298V507.6H11.12L11.56 508.48L6.522 514.068L5.972 513.496C6.08933 513.437 6.28 513.386 6.544 513.342C6.82267 513.283 7.05 513.254 7.226 513.254C7.87133 513.254 8.47267 513.379 9.03 513.628C9.602 513.863 10.0933 514.2 10.504 514.64C10.9293 515.065 11.2593 515.571 11.494 516.158C11.7433 516.73 11.868 517.346 11.868 518.006C11.868 519.003 11.626 519.898 11.142 520.69C10.6727 521.467 10.0347 522.083 9.228 522.538C8.42133 522.993 7.51933 523.22 6.522 523.22ZM19.3105 523.22C18.1372 523.22 17.1252 522.897 16.2745 522.252C15.4385 521.607 14.7932 520.697 14.3385 519.524C13.8839 518.336 13.6565 516.928 13.6565 515.3C13.6565 513.672 13.8839 512.271 14.3385 511.098C14.7932 509.91 15.4385 508.993 16.2745 508.348C17.1252 507.703 18.1372 507.38 19.3105 507.38C20.4839 507.38 21.4959 507.703 22.3465 508.348C23.1972 508.993 23.8499 509.91 24.3045 511.098C24.7592 512.271 24.9865 513.672 24.9865 515.3C24.9865 516.928 24.7592 518.336 24.3045 519.524C23.8499 520.697 23.1972 521.607 22.3465 522.252C21.4959 522.897 20.4839 523.22 19.3105 523.22ZM19.3105 521.064C20.3812 521.064 21.2099 520.565 21.7965 519.568C22.3832 518.556 22.6765 517.133 22.6765 515.3C22.6765 513.467 22.3832 512.051 21.7965 511.054C21.2099 510.042 20.3812 509.536 19.3105 509.536C18.2399 509.536 17.4112 510.042 16.8245 511.054C16.2379 512.051 15.9445 513.467 15.9445 515.3C15.9445 517.133 16.2379 518.556 16.8245 519.568C17.4112 520.565 18.2399 521.064 19.3105 521.064ZM32.2338 523C31.4711 523 30.7598 522.868 30.0998 522.604C29.4545 522.325 28.8898 521.944 28.4058 521.46C27.9365 520.976 27.5625 520.404 27.2838 519.744C27.0198 519.084 26.8878 518.358 26.8878 517.566C26.8878 517.17 26.9391 516.73 27.0418 516.246C27.1591 515.747 27.3278 515.205 27.5478 514.618C27.7825 514.031 28.0611 513.415 28.3838 512.77C28.7065 512.11 29.0805 511.428 29.5058 510.724L31.5078 507.336H33.8178L33.9058 507.556L31.4858 511.626C31.0458 512.374 30.6498 513.085 30.2978 513.76C29.9605 514.435 29.6745 515.073 29.4398 515.674C29.2051 516.261 29.0291 516.796 28.9118 517.28L28.3838 515.014C28.6625 514.559 28.9631 514.163 29.2858 513.826C29.6085 513.474 29.9531 513.181 30.3198 512.946C30.7011 512.711 31.0971 512.535 31.5078 512.418C31.9185 512.301 32.3438 512.242 32.7838 512.242C33.6345 512.242 34.4118 512.477 35.1158 512.946C35.8345 513.401 36.4065 514.009 36.8318 514.772C37.2718 515.535 37.4918 516.371 37.4918 517.28C37.4918 518.38 37.2645 519.363 36.8098 520.228C36.3698 521.079 35.7538 521.753 34.9618 522.252C34.1698 522.751 33.2605 523 32.2338 523ZM32.2338 520.8C32.8058 520.8 33.3118 520.668 33.7518 520.404C34.2065 520.125 34.5585 519.744 34.8078 519.26C35.0718 518.761 35.2038 518.197 35.2038 517.566C35.2038 517.023 35.0718 516.517 34.8078 516.048C34.5438 515.564 34.1918 515.175 33.7518 514.882C33.3118 514.589 32.8205 514.442 32.2778 514.442C31.6765 514.442 31.1411 514.581 30.6718 514.86C30.2025 515.139 29.8358 515.513 29.5718 515.982C29.3078 516.451 29.1758 516.972 29.1758 517.544C29.1758 518.16 29.3078 518.717 29.5718 519.216C29.8358 519.7 30.1951 520.089 30.6498 520.382C31.1045 520.661 31.6325 520.8 32.2338 520.8ZM40.1899 526.938L39.3539 525.926C39.8672 525.633 40.2852 525.295 40.6079 524.914C40.9306 524.533 41.0919 524.203 41.0919 523.924C41.0919 523.777 41.0552 523.631 40.9819 523.484C40.9086 523.352 40.7546 523.161 40.5199 522.912C40.2266 522.633 40.0359 522.399 39.9479 522.208C39.8599 522.017 39.8159 521.812 39.8159 521.592C39.8159 521.24 39.9406 520.961 40.1899 520.756C40.4392 520.536 40.7619 520.426 41.1579 520.426C41.5246 520.426 41.8546 520.536 42.1479 520.756C42.4559 520.961 42.6906 521.255 42.8519 521.636C43.0279 522.003 43.1159 522.428 43.1159 522.912C43.1159 523.352 43.0426 523.777 42.8959 524.188C42.7492 524.599 42.5439 524.98 42.2799 525.332C42.0159 525.684 41.7079 525.999 41.3559 526.278C41.0039 526.557 40.6152 526.777 40.1899 526.938ZM59.3272 523.22C58.2125 523.22 57.1712 523.022 56.2032 522.626C55.2352 522.215 54.3845 521.651 53.6512 520.932C52.9178 520.213 52.3458 519.377 51.9352 518.424C51.5392 517.456 51.3412 516.415 51.3412 515.3C51.3412 514.2 51.5392 513.173 51.9352 512.22C52.3458 511.267 52.9105 510.438 53.6292 509.734C54.3625 509.015 55.2132 508.458 56.1812 508.062C57.1492 507.666 58.1905 507.468 59.3052 507.468C60.0825 507.468 60.8378 507.578 61.5712 507.798C62.3192 508.018 62.9938 508.326 63.5952 508.722C64.1965 509.118 64.6878 509.573 65.0692 510.086L63.5292 511.692C63.0892 511.267 62.6345 510.915 62.1652 510.636C61.7105 510.357 61.2412 510.145 60.7572 509.998C60.2732 509.851 59.7892 509.778 59.3052 509.778C58.5132 509.778 57.7798 509.917 57.1052 510.196C56.4452 510.475 55.8585 510.863 55.3452 511.362C54.8465 511.861 54.4578 512.447 54.1792 513.122C53.9005 513.782 53.7612 514.508 53.7612 515.3C53.7612 516.063 53.9078 516.789 54.2012 517.478C54.4945 518.153 54.8978 518.747 55.4112 519.26C55.9392 519.773 56.5405 520.177 57.2152 520.47C57.9045 520.763 58.6305 520.91 59.3932 520.91C59.9652 520.91 60.5078 520.829 61.0212 520.668C61.5345 520.492 61.9892 520.25 62.3852 519.942C62.7812 519.634 63.0892 519.282 63.3092 518.886C63.5292 518.475 63.6392 518.043 63.6392 517.588V517.148L63.9692 517.456H59.2612V515.102H66.0812C66.1105 515.263 66.1325 515.425 66.1472 515.586C66.1618 515.733 66.1692 515.879 66.1692 516.026C66.1838 516.158 66.1912 516.29 66.1912 516.422C66.1912 517.434 66.0152 518.358 65.6632 519.194C65.3112 520.015 64.8198 520.727 64.1892 521.328C63.5732 521.929 62.8472 522.399 62.0112 522.736C61.1898 523.059 60.2952 523.22 59.3272 523.22ZM72.7609 523.22C71.9396 523.22 71.2209 523.029 70.6049 522.648C70.0036 522.267 69.5342 521.731 69.1969 521.042C68.8742 520.353 68.7129 519.531 68.7129 518.578V511.45H70.9789V517.962C70.9789 518.637 71.0816 519.223 71.2869 519.722C71.5069 520.206 71.8149 520.58 72.2109 520.844C72.6216 521.108 73.1129 521.24 73.6849 521.24C74.1102 521.24 74.4989 521.174 74.8509 521.042C75.2029 520.895 75.5036 520.697 75.7529 520.448C76.0169 520.199 76.2222 519.898 76.3689 519.546C76.5156 519.194 76.5889 518.813 76.5889 518.402V511.45H78.8549V523H76.5889V520.58L76.9849 520.316C76.8089 520.859 76.5082 521.35 76.0829 521.79C75.6722 522.23 75.1809 522.582 74.6089 522.846C74.0369 523.095 73.4209 523.22 72.7609 523.22ZM82.0332 523V511.45H84.3212V515.08L84.1012 514.2C84.2626 513.643 84.5339 513.137 84.9152 512.682C85.3112 512.227 85.7586 511.868 86.2572 511.604C86.7706 511.34 87.2986 511.208 87.8412 511.208C88.0906 511.208 88.3252 511.23 88.5452 511.274C88.7799 511.318 88.9632 511.369 89.0952 511.428L88.5012 513.892C88.3252 513.819 88.1272 513.76 87.9072 513.716C87.7019 513.657 87.4966 513.628 87.2912 513.628C86.8952 513.628 86.5139 513.709 86.1472 513.87C85.7952 514.017 85.4799 514.229 85.2012 514.508C84.9372 514.772 84.7246 515.087 84.5632 515.454C84.4019 515.806 84.3212 516.195 84.3212 516.62V523H82.0332ZM94.9543 523.22C94.1329 523.22 93.4143 523.029 92.7983 522.648C92.1969 522.267 91.7276 521.731 91.3903 521.042C91.0676 520.353 90.9063 519.531 90.9063 518.578V511.45H93.1723V517.962C93.1723 518.637 93.2749 519.223 93.4803 519.722C93.7003 520.206 94.0083 520.58 94.4043 520.844C94.8149 521.108 95.3063 521.24 95.8783 521.24C96.3036 521.24 96.6923 521.174 97.0443 521.042C97.3963 520.895 97.6969 520.697 97.9463 520.448C98.2103 520.199 98.4156 519.898 98.5623 519.546C98.7089 519.194 98.7823 518.813 98.7823 518.402V511.45H101.048V523H98.7823V520.58L99.1783 520.316C99.0023 520.859 98.7016 521.35 98.2763 521.79C97.8656 522.23 97.3743 522.582 96.8023 522.846C96.2303 523.095 95.6143 523.22 94.9543 523.22ZM109.359 523L115.321 507.6H117.741L123.659 523H121.129L117.609 513.716C117.565 513.613 117.477 513.364 117.345 512.968C117.227 512.572 117.088 512.132 116.927 511.648C116.765 511.164 116.619 510.724 116.487 510.328C116.355 509.917 116.267 509.653 116.223 509.536L116.729 509.514C116.641 509.763 116.531 510.079 116.399 510.46C116.281 510.841 116.149 511.245 116.003 511.67C115.871 512.095 115.739 512.499 115.607 512.88C115.475 513.247 115.365 513.555 115.277 513.804L111.779 523H109.359ZM111.999 519.172L112.879 516.884H119.875L120.887 519.172H111.999ZM125.753 523V511.45H128.041V513.914L127.623 514.178C127.74 513.797 127.924 513.43 128.173 513.078C128.437 512.726 128.752 512.418 129.119 512.154C129.5 511.875 129.904 511.655 130.329 511.494C130.769 511.333 131.216 511.252 131.671 511.252C132.331 511.252 132.91 511.362 133.409 511.582C133.908 511.802 134.318 512.132 134.641 512.572C134.964 513.012 135.198 513.562 135.345 514.222L134.993 514.134L135.147 513.76C135.308 513.423 135.528 513.107 135.807 512.814C136.1 512.506 136.43 512.235 136.797 512C137.164 511.765 137.552 511.582 137.963 511.45C138.374 511.318 138.777 511.252 139.173 511.252C140.038 511.252 140.75 511.428 141.307 511.78C141.879 512.132 142.304 512.667 142.583 513.386C142.876 514.105 143.023 514.999 143.023 516.07V523H140.735V516.202C140.735 515.542 140.647 515.007 140.471 514.596C140.31 514.171 140.06 513.855 139.723 513.65C139.386 513.445 138.953 513.342 138.425 513.342C138.014 513.342 137.626 513.415 137.259 513.562C136.907 513.694 136.599 513.885 136.335 514.134C136.071 514.383 135.866 514.677 135.719 515.014C135.572 515.337 135.499 515.696 135.499 516.092V523H133.211V516.158C133.211 515.557 133.123 515.051 132.947 514.64C132.771 514.215 132.514 513.892 132.177 513.672C131.84 513.452 131.429 513.342 130.945 513.342C130.534 513.342 130.153 513.415 129.801 513.562C129.449 513.694 129.141 513.885 128.877 514.134C128.613 514.369 128.408 514.655 128.261 514.992C128.114 515.315 128.041 515.667 128.041 516.048V523H125.753ZM150.501 523.22C149.547 523.22 148.675 522.956 147.883 522.428C147.105 521.9 146.482 521.181 146.013 520.272C145.543 519.363 145.309 518.336 145.309 517.192C145.309 516.033 145.543 515.007 146.013 514.112C146.497 513.203 147.142 512.491 147.949 511.978C148.77 511.465 149.687 511.208 150.699 511.208C151.3 511.208 151.85 511.296 152.349 511.472C152.847 511.648 153.28 511.897 153.647 512.22C154.028 512.528 154.336 512.887 154.571 513.298C154.82 513.709 154.974 514.149 155.033 514.618L154.527 514.442V511.45H156.815V523H154.527V520.25L155.055 520.096C154.967 520.492 154.783 520.881 154.505 521.262C154.241 521.629 153.896 521.959 153.471 522.252C153.06 522.545 152.598 522.78 152.085 522.956C151.586 523.132 151.058 523.22 150.501 523.22ZM151.095 521.13C151.784 521.13 152.393 520.961 152.921 520.624C153.449 520.287 153.859 519.825 154.153 519.238C154.461 518.637 154.615 517.955 154.615 517.192C154.615 516.444 154.461 515.777 154.153 515.19C153.859 514.603 153.449 514.141 152.921 513.804C152.393 513.467 151.784 513.298 151.095 513.298C150.42 513.298 149.819 513.467 149.291 513.804C148.777 514.141 148.367 514.603 148.059 515.19C147.765 515.777 147.619 516.444 147.619 517.192C147.619 517.955 147.765 518.637 148.059 519.238C148.367 519.825 148.777 520.287 149.291 520.624C149.819 520.961 150.42 521.13 151.095 521.13ZM159.979 523V511.45H162.267V515.08L162.047 514.2C162.208 513.643 162.479 513.137 162.861 512.682C163.257 512.227 163.704 511.868 164.203 511.604C164.716 511.34 165.244 511.208 165.787 511.208C166.036 511.208 166.271 511.23 166.491 511.274C166.725 511.318 166.909 511.369 167.041 511.428L166.447 513.892C166.271 513.819 166.073 513.76 165.853 513.716C165.647 513.657 165.442 513.628 165.237 513.628C164.841 513.628 164.459 513.709 164.093 513.87C163.741 514.017 163.425 514.229 163.147 514.508C162.883 514.772 162.67 515.087 162.509 515.454C162.347 515.806 162.267 516.195 162.267 516.62V523H159.979ZM173.175 523.22C172.119 523.22 171.173 522.963 170.337 522.45C169.516 521.922 168.863 521.211 168.379 520.316C167.895 519.407 167.653 518.373 167.653 517.214C167.653 516.055 167.888 515.029 168.357 514.134C168.841 513.225 169.494 512.513 170.315 512C171.137 511.472 172.068 511.208 173.109 511.208C173.681 511.208 174.231 511.303 174.759 511.494C175.302 511.67 175.786 511.919 176.211 512.242C176.637 512.55 176.967 512.895 177.201 513.276C177.451 513.643 177.575 514.017 177.575 514.398L176.915 514.442V506.72H179.181V523H176.915V520.25H177.355C177.355 520.602 177.238 520.954 177.003 521.306C176.769 521.643 176.453 521.959 176.057 522.252C175.676 522.545 175.229 522.78 174.715 522.956C174.217 523.132 173.703 523.22 173.175 523.22ZM173.483 521.262C174.173 521.262 174.781 521.086 175.309 520.734C175.837 520.382 176.248 519.905 176.541 519.304C176.849 518.688 177.003 517.991 177.003 517.214C177.003 516.437 176.849 515.747 176.541 515.146C176.248 514.53 175.837 514.046 175.309 513.694C174.781 513.342 174.173 513.166 173.483 513.166C172.794 513.166 172.185 513.342 171.657 513.694C171.129 514.046 170.711 514.53 170.403 515.146C170.11 515.747 169.963 516.437 169.963 517.214C169.963 517.991 170.11 518.688 170.403 519.304C170.711 519.905 171.129 520.382 171.657 520.734C172.185 521.086 172.794 521.262 173.483 521.262ZM186.745 523.22C185.791 523.22 184.919 522.956 184.127 522.428C183.349 521.9 182.726 521.181 182.257 520.272C181.787 519.363 181.553 518.336 181.553 517.192C181.553 516.033 181.787 515.007 182.257 514.112C182.741 513.203 183.386 512.491 184.193 511.978C185.014 511.465 185.931 511.208 186.943 511.208C187.544 511.208 188.094 511.296 188.593 511.472C189.091 511.648 189.524 511.897 189.891 512.22C190.272 512.528 190.58 512.887 190.815 513.298C191.064 513.709 191.218 514.149 191.277 514.618L190.771 514.442V511.45H193.059V523H190.771V520.25L191.299 520.096C191.211 520.492 191.027 520.881 190.749 521.262C190.485 521.629 190.14 521.959 189.715 522.252C189.304 522.545 188.842 522.78 188.329 522.956C187.83 523.132 187.302 523.22 186.745 523.22ZM187.339 521.13C188.028 521.13 188.637 520.961 189.165 520.624C189.693 520.287 190.103 519.825 190.397 519.238C190.705 518.637 190.859 517.955 190.859 517.192C190.859 516.444 190.705 515.777 190.397 515.19C190.103 514.603 189.693 514.141 189.165 513.804C188.637 513.467 188.028 513.298 187.339 513.298C186.664 513.298 186.063 513.467 185.535 513.804C185.021 514.141 184.611 514.603 184.303 515.19C184.009 515.777 183.863 516.444 183.863 517.192C183.863 517.955 184.009 518.637 184.303 519.238C184.611 519.825 185.021 520.287 185.535 520.624C186.063 520.961 186.664 521.13 187.339 521.13ZM200.073 523.22C199.105 523.22 198.232 523.051 197.455 522.714C196.677 522.377 196.032 521.878 195.519 521.218L197.059 519.898C197.499 520.411 197.975 520.785 198.489 521.02C199.017 521.24 199.611 521.35 200.271 521.35C200.535 521.35 200.777 521.321 200.997 521.262C201.231 521.189 201.429 521.086 201.591 520.954C201.767 520.822 201.899 520.668 201.987 520.492C202.075 520.301 202.119 520.096 202.119 519.876C202.119 519.495 201.979 519.187 201.701 518.952C201.554 518.849 201.319 518.739 200.997 518.622C200.689 518.49 200.285 518.358 199.787 518.226C198.936 518.006 198.239 517.757 197.697 517.478C197.154 517.199 196.736 516.884 196.443 516.532C196.223 516.253 196.061 515.953 195.959 515.63C195.856 515.293 195.805 514.926 195.805 514.53C195.805 514.046 195.907 513.606 196.113 513.21C196.333 512.799 196.626 512.447 196.993 512.154C197.374 511.846 197.814 511.611 198.313 511.45C198.826 511.289 199.369 511.208 199.941 511.208C200.483 511.208 201.019 511.281 201.547 511.428C202.089 511.575 202.588 511.787 203.043 512.066C203.497 512.345 203.879 512.675 204.187 513.056L202.889 514.486C202.61 514.207 202.302 513.965 201.965 513.76C201.642 513.54 201.312 513.371 200.975 513.254C200.637 513.137 200.329 513.078 200.051 513.078C199.743 513.078 199.464 513.107 199.215 513.166C198.965 513.225 198.753 513.313 198.577 513.43C198.415 513.547 198.291 513.694 198.203 513.87C198.115 514.046 198.071 514.244 198.071 514.464C198.085 514.655 198.129 514.838 198.203 515.014C198.291 515.175 198.408 515.315 198.555 515.432C198.716 515.549 198.958 515.674 199.281 515.806C199.603 515.938 200.014 516.063 200.513 516.18C201.246 516.371 201.847 516.583 202.317 516.818C202.801 517.038 203.182 517.295 203.461 517.588C203.754 517.867 203.959 518.189 204.077 518.556C204.194 518.923 204.253 519.333 204.253 519.788C204.253 520.448 204.062 521.042 203.681 521.57C203.314 522.083 202.815 522.487 202.185 522.78C201.554 523.073 200.85 523.22 200.073 523.22ZM213.488 523V507.6H219.912C220.895 507.6 221.723 507.747 222.398 508.04C223.073 508.333 223.579 508.773 223.916 509.36C224.268 509.932 224.444 510.636 224.444 511.472C224.444 512.308 224.209 513.019 223.74 513.606C223.285 514.193 222.647 514.596 221.826 514.816V514.376C222.515 514.523 223.117 514.787 223.63 515.168C224.143 515.535 224.539 515.997 224.818 516.554C225.111 517.111 225.258 517.749 225.258 518.468C225.258 519.201 225.141 519.854 224.906 520.426C224.686 520.983 224.349 521.453 223.894 521.834C223.454 522.215 222.919 522.509 222.288 522.714C221.657 522.905 220.939 523 220.132 523H213.488ZM215.864 520.712H220C220.601 520.712 221.107 520.624 221.518 520.448C221.943 520.272 222.266 520.015 222.486 519.678C222.721 519.326 222.838 518.908 222.838 518.424C222.838 517.969 222.713 517.581 222.464 517.258C222.229 516.935 221.892 516.693 221.452 516.532C221.012 516.356 220.491 516.268 219.89 516.268H215.864V520.712ZM215.864 513.98H219.78C220.22 513.98 220.609 513.892 220.946 513.716C221.298 513.54 221.569 513.298 221.76 512.99C221.965 512.682 222.068 512.33 222.068 511.934C222.068 511.274 221.848 510.768 221.408 510.416C220.968 510.064 220.337 509.888 219.516 509.888H215.864V513.98ZM227.826 523V506.72H230.092V513.826L229.696 514.09C229.843 513.577 230.129 513.107 230.554 512.682C230.98 512.242 231.486 511.89 232.072 511.626C232.659 511.347 233.26 511.208 233.876 511.208C234.756 511.208 235.49 511.384 236.076 511.736C236.663 512.073 237.103 512.594 237.396 513.298C237.69 514.002 237.836 514.889 237.836 515.96V523H235.57V516.114C235.57 515.454 235.482 514.911 235.306 514.486C235.13 514.046 234.859 513.731 234.492 513.54C234.126 513.335 233.671 513.247 233.128 513.276C232.688 513.276 232.285 513.349 231.918 513.496C231.552 513.628 231.229 513.819 230.95 514.068C230.686 514.317 230.474 514.611 230.312 514.948C230.166 515.271 230.092 515.623 230.092 516.004V523H228.97C228.78 523 228.589 523 228.398 523C228.208 523 228.017 523 227.826 523ZM245.354 523.22C244.401 523.22 243.528 522.956 242.736 522.428C241.959 521.9 241.336 521.181 240.866 520.272C240.397 519.363 240.162 518.336 240.162 517.192C240.162 516.033 240.397 515.007 240.866 514.112C241.35 513.203 241.996 512.491 242.802 511.978C243.624 511.465 244.54 511.208 245.552 511.208C246.154 511.208 246.704 511.296 247.202 511.472C247.701 511.648 248.134 511.897 248.5 512.22C248.882 512.528 249.19 512.887 249.424 513.298C249.674 513.709 249.828 514.149 249.886 514.618L249.38 514.442V511.45H251.668V523H249.38V520.25L249.908 520.096C249.82 520.492 249.637 520.881 249.358 521.262C249.094 521.629 248.75 521.959 248.324 522.252C247.914 522.545 247.452 522.78 246.938 522.956C246.44 523.132 245.912 523.22 245.354 523.22ZM245.948 521.13C246.638 521.13 247.246 520.961 247.774 520.624C248.302 520.287 248.713 519.825 249.006 519.238C249.314 518.637 249.468 517.955 249.468 517.192C249.468 516.444 249.314 515.777 249.006 515.19C248.713 514.603 248.302 514.141 247.774 513.804C247.246 513.467 246.638 513.298 245.948 513.298C245.274 513.298 244.672 513.467 244.144 513.804C243.631 514.141 243.22 514.603 242.912 515.19C242.619 515.777 242.472 516.444 242.472 517.192C242.472 517.955 242.619 518.637 242.912 519.238C243.22 519.825 243.631 520.287 244.144 520.624C244.672 520.961 245.274 521.13 245.948 521.13ZM257.541 523L253.603 511.45L255.891 511.428L258.707 520.074L258.201 520.03L261.259 513.276H262.623L265.703 520.052L265.109 520.096L267.947 511.45H270.235L266.341 523H264.779L261.567 515.652L262.073 515.718L259.081 523H257.541ZM276.421 523.22C275.467 523.22 274.595 522.956 273.803 522.428C273.025 521.9 272.402 521.181 271.933 520.272C271.463 519.363 271.229 518.336 271.229 517.192C271.229 516.033 271.463 515.007 271.933 514.112C272.417 513.203 273.062 512.491 273.869 511.978C274.69 511.465 275.607 511.208 276.619 511.208C277.22 511.208 277.77 511.296 278.269 511.472C278.767 511.648 279.2 511.897 279.567 512.22C279.948 512.528 280.256 512.887 280.491 513.298C280.74 513.709 280.894 514.149 280.953 514.618L280.447 514.442V511.45H282.735V523H280.447V520.25L280.975 520.096C280.887 520.492 280.703 520.881 280.425 521.262C280.161 521.629 279.816 521.959 279.391 522.252C278.98 522.545 278.518 522.78 278.005 522.956C277.506 523.132 276.978 523.22 276.421 523.22ZM277.015 521.13C277.704 521.13 278.313 520.961 278.841 520.624C279.369 520.287 279.779 519.825 280.073 519.238C280.381 518.637 280.535 517.955 280.535 517.192C280.535 516.444 280.381 515.777 280.073 515.19C279.779 514.603 279.369 514.141 278.841 513.804C278.313 513.467 277.704 513.298 277.015 513.298C276.34 513.298 275.739 513.467 275.211 513.804C274.697 514.141 274.287 514.603 273.979 515.19C273.685 515.777 273.539 516.444 273.539 517.192C273.539 517.955 273.685 518.637 273.979 519.238C274.287 519.825 274.697 520.287 275.211 520.624C275.739 520.961 276.34 521.13 277.015 521.13ZM285.898 523V511.45H288.164V513.826L287.768 514.09C287.915 513.577 288.201 513.107 288.626 512.682C289.052 512.242 289.558 511.89 290.144 511.626C290.731 511.347 291.332 511.208 291.948 511.208C292.828 511.208 293.562 511.384 294.148 511.736C294.735 512.073 295.175 512.594 295.468 513.298C295.762 514.002 295.908 514.889 295.908 515.96V523H293.642V516.114C293.642 515.454 293.554 514.911 293.378 514.486C293.202 514.046 292.931 513.731 292.564 513.54C292.198 513.335 291.743 513.247 291.2 513.276C290.76 513.276 290.357 513.349 289.99 513.496C289.624 513.628 289.301 513.819 289.022 514.068C288.758 514.317 288.546 514.611 288.384 514.948C288.238 515.271 288.164 515.623 288.164 516.004V523H287.042C286.852 523 286.661 523 286.47 523C286.28 523 286.089 523 285.898 523ZM3.464 545L9.844 531.096L10.108 531.8H2.32V529.6H11.846L12.154 531.118L6.016 545H3.464ZM18.8521 545.066C17.8988 545.066 17.0261 544.868 16.2341 544.472C15.4568 544.061 14.8335 543.519 14.3641 542.844C13.8948 542.169 13.6601 541.421 13.6601 540.6C13.6601 540.145 13.7188 539.72 13.8361 539.324C13.9681 538.913 14.1588 538.539 14.4081 538.202C14.6721 537.865 14.9875 537.557 15.3541 537.278C15.7208 536.999 16.1461 536.75 16.6301 536.53L16.4981 536.992C16.1168 536.845 15.7721 536.669 15.4641 536.464C15.1708 536.244 14.9141 535.995 14.6941 535.716C14.4741 535.437 14.3055 535.137 14.1881 534.814C14.0855 534.491 14.0341 534.154 14.0341 533.802C14.0341 533.025 14.2468 532.321 14.6721 531.69C15.1121 531.059 15.6915 530.553 16.4101 530.172C17.1435 529.791 17.9575 529.6 18.8521 529.6C19.7468 529.6 20.5535 529.791 21.2721 530.172C22.0055 530.553 22.5848 531.059 23.0101 531.69C23.4501 532.321 23.6701 533.025 23.6701 533.802C23.6701 534.154 23.6115 534.491 23.4941 534.814C23.3915 535.137 23.2375 535.43 23.0321 535.694C22.8268 535.958 22.5628 536.2 22.2401 536.42C21.9321 536.64 21.5801 536.831 21.1841 536.992L21.1181 536.618C21.5581 536.794 21.9541 537.021 22.3061 537.3C22.6728 537.579 22.9881 537.894 23.2521 538.246C23.5161 538.598 23.7141 538.972 23.8461 539.368C23.9928 539.764 24.0661 540.175 24.0661 540.6C24.0661 541.436 23.8315 542.191 23.3621 542.866C22.8928 543.541 22.2621 544.076 21.4701 544.472C20.6928 544.868 19.8201 545.066 18.8521 545.066ZM18.8521 542.866C19.3948 542.866 19.8788 542.763 20.3041 542.558C20.7441 542.353 21.0888 542.074 21.3381 541.722C21.5875 541.37 21.7121 540.967 21.7121 540.512C21.7121 540.028 21.5875 539.603 21.3381 539.236C21.0888 538.855 20.7441 538.554 20.3041 538.334C19.8788 538.114 19.3948 538.004 18.8521 538.004C18.3095 538.004 17.8255 538.114 17.4001 538.334C16.9748 538.554 16.6375 538.855 16.3881 539.236C16.1388 539.603 16.0141 540.028 16.0141 540.512C16.0141 540.952 16.1388 541.348 16.3881 541.7C16.6375 542.052 16.9748 542.338 17.4001 542.558C17.8255 542.763 18.3095 542.866 18.8521 542.866ZM18.8521 535.892C19.3215 535.892 19.7395 535.804 20.1061 535.628C20.4875 535.452 20.7808 535.217 20.9861 534.924C21.2061 534.616 21.3161 534.264 21.3161 533.868C21.3161 533.472 21.2061 533.12 20.9861 532.812C20.7808 532.504 20.4875 532.262 20.1061 532.086C19.7395 531.895 19.3215 531.8 18.8521 531.8C18.3828 531.8 17.9575 531.895 17.5761 532.086C17.2095 532.262 16.9161 532.504 16.6961 532.812C16.4908 533.12 16.3881 533.472 16.3881 533.868C16.3881 534.264 16.4908 534.616 16.6961 534.924C16.9161 535.217 17.2095 535.452 17.5761 535.628C17.9575 535.804 18.3828 535.892 18.8521 535.892ZM27.1704 548.938L26.3344 547.926C26.8477 547.633 27.2657 547.295 27.5884 546.914C27.911 546.533 28.0724 546.203 28.0724 545.924C28.0724 545.777 28.0357 545.631 27.9624 545.484C27.889 545.352 27.735 545.161 27.5004 544.912C27.207 544.633 27.0164 544.399 26.9284 544.208C26.8404 544.017 26.7964 543.812 26.7964 543.592C26.7964 543.24 26.921 542.961 27.1704 542.756C27.4197 542.536 27.7424 542.426 28.1384 542.426C28.505 542.426 28.835 542.536 29.1284 542.756C29.4364 542.961 29.671 543.255 29.8324 543.636C30.0084 544.003 30.0964 544.428 30.0964 544.912C30.0964 545.352 30.023 545.777 29.8764 546.188C29.7297 546.599 29.5244 546.98 29.2604 547.332C28.9964 547.684 28.6884 547.999 28.3364 548.278C27.9844 548.557 27.5957 548.777 27.1704 548.938ZM39.4216 545V529.6H41.5556L50.9716 542.206L50.6196 542.404C50.561 542.037 50.5096 541.641 50.4656 541.216C50.4216 540.776 50.3776 540.314 50.3336 539.83C50.3043 539.331 50.275 538.811 50.2456 538.268C50.231 537.711 50.2163 537.131 50.2016 536.53C50.187 535.929 50.1796 535.305 50.1796 534.66V529.6H52.5556V545H50.3776L41.1156 532.856L41.3576 532.548C41.431 533.443 41.4896 534.205 41.5336 534.836C41.5923 535.452 41.6363 535.98 41.6656 536.42C41.7096 536.845 41.739 537.197 41.7536 537.476C41.7683 537.74 41.7756 537.96 41.7756 538.136C41.7903 538.312 41.7976 538.466 41.7976 538.598V545H39.4216ZM61.6849 545.22C60.4969 545.22 59.4409 544.971 58.5169 544.472C57.6076 543.959 56.8889 543.262 56.3609 542.382C55.8476 541.502 55.5909 540.49 55.5909 539.346C55.5909 538.437 55.7376 537.608 56.0309 536.86C56.3243 536.112 56.7276 535.467 57.2409 534.924C57.7689 534.367 58.3923 533.941 59.1109 533.648C59.8443 533.34 60.6363 533.186 61.4869 533.186C62.2349 533.186 62.9316 533.333 63.5769 533.626C64.2223 533.905 64.7796 534.293 65.2489 534.792C65.7329 535.291 66.0996 535.885 66.3489 536.574C66.6129 537.249 66.7376 537.989 66.7229 538.796L66.7009 539.764H57.2629L56.7569 537.96H64.7429L64.4129 538.334V537.806C64.3689 537.322 64.2076 536.889 63.9289 536.508C63.6503 536.127 63.2983 535.826 62.8729 535.606C62.4476 535.386 61.9856 535.276 61.4869 535.276C60.6949 535.276 60.0276 535.43 59.4849 535.738C58.9423 536.031 58.5316 536.471 58.2529 537.058C57.9743 537.63 57.8349 538.341 57.8349 539.192C57.8349 539.999 58.0036 540.703 58.3409 541.304C58.6783 541.891 59.1549 542.345 59.7709 542.668C60.3869 542.991 61.0983 543.152 61.9049 543.152C62.4769 543.152 63.0049 543.057 63.4889 542.866C63.9876 542.675 64.5229 542.331 65.0949 541.832L66.2389 543.438C65.8869 543.79 65.4543 544.098 64.9409 544.362C64.4423 544.626 63.9069 544.839 63.3349 545C62.7776 545.147 62.2276 545.22 61.6849 545.22ZM69.1856 545V528.72H71.4516V535.826L71.0556 536.09C71.2022 535.577 71.4882 535.107 71.9136 534.682C72.3389 534.242 72.8449 533.89 73.4316 533.626C74.0182 533.347 74.6196 533.208 75.2356 533.208C76.1156 533.208 76.8489 533.384 77.4356 533.736C78.0222 534.073 78.4622 534.594 78.7556 535.298C79.0489 536.002 79.1956 536.889 79.1956 537.96V545H76.9296V538.114C76.9296 537.454 76.8416 536.911 76.6656 536.486C76.4896 536.046 76.2182 535.731 75.8516 535.54C75.4849 535.335 75.0302 535.247 74.4876 535.276C74.0476 535.276 73.6442 535.349 73.2776 535.496C72.9109 535.628 72.5882 535.819 72.3096 536.068C72.0456 536.317 71.8329 536.611 71.6716 536.948C71.5249 537.271 71.4516 537.623 71.4516 538.004V545H70.3296C70.1389 545 69.9482 545 69.7576 545C69.5669 545 69.3762 545 69.1856 545ZM82.2695 545V533.45H84.5575V537.08L84.3375 536.2C84.4989 535.643 84.7702 535.137 85.1515 534.682C85.5475 534.227 85.9949 533.868 86.4935 533.604C87.0069 533.34 87.5349 533.208 88.0775 533.208C88.3269 533.208 88.5615 533.23 88.7815 533.274C89.0162 533.318 89.1995 533.369 89.3315 533.428L88.7375 535.892C88.5615 535.819 88.3635 535.76 88.1435 535.716C87.9382 535.657 87.7329 535.628 87.5275 535.628C87.1315 535.628 86.7502 535.709 86.3835 535.87C86.0315 536.017 85.7162 536.229 85.4375 536.508C85.1735 536.772 84.9609 537.087 84.7995 537.454C84.6382 537.806 84.5575 538.195 84.5575 538.62V545H82.2695ZM95.1906 545.22C94.3693 545.22 93.6506 545.029 93.0346 544.648C92.4333 544.267 91.9639 543.731 91.6266 543.042C91.3039 542.353 91.1426 541.531 91.1426 540.578V533.45H93.4086V539.962C93.4086 540.637 93.5113 541.223 93.7166 541.722C93.9366 542.206 94.2446 542.58 94.6406 542.844C95.0513 543.108 95.5426 543.24 96.1146 543.24C96.5399 543.24 96.9286 543.174 97.2806 543.042C97.6326 542.895 97.9333 542.697 98.1826 542.448C98.4466 542.199 98.6519 541.898 98.7986 541.546C98.9453 541.194 99.0186 540.813 99.0186 540.402V533.45H101.285V545H99.0186V542.58L99.4146 542.316C99.2386 542.859 98.9379 543.35 98.5126 543.79C98.1019 544.23 97.6106 544.582 97.0386 544.846C96.4666 545.095 95.8506 545.22 95.1906 545.22ZM111.201 545V529.6H117.471C118.307 529.6 119.062 529.813 119.737 530.238C120.426 530.649 120.976 531.213 121.387 531.932C121.798 532.651 122.003 533.45 122.003 534.33C122.003 535.21 121.798 536.009 121.387 536.728C120.976 537.447 120.426 538.026 119.737 538.466C119.062 538.891 118.307 539.104 117.471 539.104H113.577V545H111.201ZM113.577 536.816H117.427C117.823 536.816 118.182 536.706 118.505 536.486C118.828 536.251 119.084 535.951 119.275 535.584C119.48 535.203 119.583 534.785 119.583 534.33C119.583 533.875 119.48 533.465 119.275 533.098C119.084 532.731 118.828 532.438 118.505 532.218C118.182 531.998 117.823 531.888 117.427 531.888H113.577V536.816ZM124.616 545V528.72H126.882V545H124.616ZM134.323 545.22C133.37 545.22 132.497 544.956 131.705 544.428C130.928 543.9 130.304 543.181 129.835 542.272C129.366 541.363 129.131 540.336 129.131 539.192C129.131 538.033 129.366 537.007 129.835 536.112C130.319 535.203 130.964 534.491 131.771 533.978C132.592 533.465 133.509 533.208 134.521 533.208C135.122 533.208 135.672 533.296 136.171 533.472C136.67 533.648 137.102 533.897 137.469 534.22C137.85 534.528 138.158 534.887 138.393 535.298C138.642 535.709 138.796 536.149 138.855 536.618L138.349 536.442V533.45H140.637V545H138.349V542.25L138.877 542.096C138.789 542.492 138.606 542.881 138.327 543.262C138.063 543.629 137.718 543.959 137.293 544.252C136.882 544.545 136.42 544.78 135.907 544.956C135.408 545.132 134.88 545.22 134.323 545.22ZM134.917 543.13C135.606 543.13 136.215 542.961 136.743 542.624C137.271 542.287 137.682 541.825 137.975 541.238C138.283 540.637 138.437 539.955 138.437 539.192C138.437 538.444 138.283 537.777 137.975 537.19C137.682 536.603 137.271 536.141 136.743 535.804C136.215 535.467 135.606 535.298 134.917 535.298C134.242 535.298 133.641 535.467 133.113 535.804C132.6 536.141 132.189 536.603 131.881 537.19C131.588 537.777 131.441 538.444 131.441 539.192C131.441 539.955 131.588 540.637 131.881 541.238C132.189 541.825 132.6 542.287 133.113 542.624C133.641 542.961 134.242 543.13 134.917 543.13ZM148.707 545.22C147.636 545.22 146.675 544.956 145.825 544.428C144.989 543.9 144.321 543.181 143.823 542.272C143.339 541.363 143.097 540.343 143.097 539.214C143.097 538.085 143.339 537.065 143.823 536.156C144.321 535.247 144.989 534.528 145.825 534C146.675 533.472 147.636 533.208 148.707 533.208C149.733 533.208 150.665 533.421 151.501 533.846C152.351 534.257 152.997 534.821 153.437 535.54L152.183 537.08C151.948 536.743 151.647 536.435 151.281 536.156C150.914 535.877 150.525 535.657 150.115 535.496C149.704 535.335 149.308 535.254 148.927 535.254C148.223 535.254 147.592 535.43 147.035 535.782C146.492 536.119 146.059 536.589 145.737 537.19C145.414 537.791 145.253 538.466 145.253 539.214C145.253 539.962 145.421 540.637 145.759 541.238C146.096 541.825 146.543 542.294 147.101 542.646C147.658 542.998 148.274 543.174 148.949 543.174C149.345 543.174 149.726 543.108 150.093 542.976C150.474 542.844 150.841 542.646 151.193 542.382C151.545 542.118 151.875 541.795 152.183 541.414L153.437 542.954C152.967 543.614 152.293 544.157 151.413 544.582C150.547 545.007 149.645 545.22 148.707 545.22ZM160.964 545.22C159.776 545.22 158.72 544.971 157.796 544.472C156.887 543.959 156.168 543.262 155.64 542.382C155.127 541.502 154.87 540.49 154.87 539.346C154.87 538.437 155.017 537.608 155.31 536.86C155.604 536.112 156.007 535.467 156.52 534.924C157.048 534.367 157.672 533.941 158.39 533.648C159.124 533.34 159.916 533.186 160.766 533.186C161.514 533.186 162.211 533.333 162.856 533.626C163.502 533.905 164.059 534.293 164.528 534.792C165.012 535.291 165.379 535.885 165.628 536.574C165.892 537.249 166.017 537.989 166.002 538.796L165.98 539.764H156.542L156.036 537.96H164.022L163.692 538.334V537.806C163.648 537.322 163.487 536.889 163.208 536.508C162.93 536.127 162.578 535.826 162.152 535.606C161.727 535.386 161.265 535.276 160.766 535.276C159.974 535.276 159.307 535.43 158.764 535.738C158.222 536.031 157.811 536.471 157.532 537.058C157.254 537.63 157.114 538.341 157.114 539.192C157.114 539.999 157.283 540.703 157.62 541.304C157.958 541.891 158.434 542.345 159.05 542.668C159.666 542.991 160.378 543.152 161.184 543.152C161.756 543.152 162.284 543.057 162.768 542.866C163.267 542.675 163.802 542.331 164.374 541.832L165.518 543.438C165.166 543.79 164.734 544.098 164.22 544.362C163.722 544.626 163.186 544.839 162.614 545C162.057 545.147 161.507 545.22 160.964 545.22ZM168.817 548.938L167.981 547.926C168.494 547.633 168.912 547.295 169.235 546.914C169.558 546.533 169.719 546.203 169.719 545.924C169.719 545.777 169.682 545.631 169.609 545.484C169.536 545.352 169.382 545.161 169.147 544.912C168.854 544.633 168.663 544.399 168.575 544.208C168.487 544.017 168.443 543.812 168.443 543.592C168.443 543.24 168.568 542.961 168.817 542.756C169.066 542.536 169.389 542.426 169.785 542.426C170.152 542.426 170.482 542.536 170.775 542.756C171.083 542.961 171.318 543.255 171.479 543.636C171.655 544.003 171.743 544.428 171.743 544.912C171.743 545.352 171.67 545.777 171.523 546.188C171.376 546.599 171.171 546.98 170.907 547.332C170.643 547.684 170.335 547.999 169.983 548.278C169.631 548.557 169.242 548.777 168.817 548.938ZM181.068 545V529.6H183.202L192.618 542.206L192.266 542.404C192.207 542.037 192.156 541.641 192.112 541.216C192.068 540.776 192.024 540.314 191.98 539.83C191.951 539.331 191.921 538.811 191.892 538.268C191.877 537.711 191.863 537.131 191.848 536.53C191.833 535.929 191.826 535.305 191.826 534.66V529.6H194.202V545H192.024L182.762 532.856L183.004 532.548C183.077 533.443 183.136 534.205 183.18 534.836C183.239 535.452 183.283 535.98 183.312 536.42C183.356 536.845 183.385 537.197 183.4 537.476C183.415 537.74 183.422 537.96 183.422 538.136C183.437 538.312 183.444 538.466 183.444 538.598V545H181.068ZM203.331 545.22C202.143 545.22 201.087 544.971 200.163 544.472C199.254 543.959 198.535 543.262 198.007 542.382C197.494 541.502 197.237 540.49 197.237 539.346C197.237 538.437 197.384 537.608 197.677 536.86C197.971 536.112 198.374 535.467 198.887 534.924C199.415 534.367 200.039 533.941 200.757 533.648C201.491 533.34 202.283 533.186 203.133 533.186C203.881 533.186 204.578 533.333 205.223 533.626C205.869 533.905 206.426 534.293 206.895 534.792C207.379 535.291 207.746 535.885 207.995 536.574C208.259 537.249 208.384 537.989 208.369 538.796L208.347 539.764H198.909L198.403 537.96H206.389L206.059 538.334V537.806C206.015 537.322 205.854 536.889 205.575 536.508C205.297 536.127 204.945 535.826 204.519 535.606C204.094 535.386 203.632 535.276 203.133 535.276C202.341 535.276 201.674 535.43 201.131 535.738C200.589 536.031 200.178 536.471 199.899 537.058C199.621 537.63 199.481 538.341 199.481 539.192C199.481 539.999 199.65 540.703 199.987 541.304C200.325 541.891 200.801 542.345 201.417 542.668C202.033 542.991 202.745 543.152 203.551 543.152C204.123 543.152 204.651 543.057 205.135 542.866C205.634 542.675 206.169 542.331 206.741 541.832L207.885 543.438C207.533 543.79 207.101 544.098 206.587 544.362C206.089 544.626 205.553 544.839 204.981 545C204.424 545.147 203.874 545.22 203.331 545.22ZM213.455 545L209.517 533.45L211.805 533.428L214.621 542.074L214.115 542.03L217.173 535.276H218.537L221.617 542.052L221.023 542.096L223.861 533.45H226.149L222.255 545H220.693L217.481 537.652L217.987 537.718L214.995 545H213.455ZM234.951 545V529.6H240.979C242.079 529.6 243.069 529.783 243.949 530.15C244.844 530.517 245.606 531.045 246.237 531.734C246.868 532.423 247.352 533.237 247.689 534.176C248.026 535.115 248.195 536.156 248.195 537.3C248.195 538.444 248.026 539.493 247.689 540.446C247.352 541.385 246.868 542.199 246.237 542.888C245.621 543.563 244.866 544.083 243.971 544.45C243.076 544.817 242.079 545 240.979 545H234.951ZM237.327 542.954L237.261 542.712H240.869C241.646 542.712 242.336 542.587 242.937 542.338C243.553 542.089 244.066 541.737 244.477 541.282C244.902 540.813 245.225 540.241 245.445 539.566C245.665 538.891 245.775 538.136 245.775 537.3C245.775 536.464 245.665 535.716 245.445 535.056C245.225 534.381 244.902 533.809 244.477 533.34C244.052 532.871 243.538 532.511 242.937 532.262C242.336 532.013 241.646 531.888 240.869 531.888H237.195L237.327 531.69V542.954ZM256.226 545.22C255.038 545.22 253.982 544.971 253.058 544.472C252.149 543.959 251.43 543.262 250.902 542.382C250.389 541.502 250.132 540.49 250.132 539.346C250.132 538.437 250.279 537.608 250.572 536.86C250.865 536.112 251.269 535.467 251.782 534.924C252.31 534.367 252.933 533.941 253.652 533.648C254.385 533.34 255.177 533.186 256.028 533.186C256.776 533.186 257.473 533.333 258.118 533.626C258.763 533.905 259.321 534.293 259.79 534.792C260.274 535.291 260.641 535.885 260.89 536.574C261.154 537.249 261.279 537.989 261.264 538.796L261.242 539.764H251.804L251.298 537.96H259.284L258.954 538.334V537.806C258.91 537.322 258.749 536.889 258.47 536.508C258.191 536.127 257.839 535.826 257.414 535.606C256.989 535.386 256.527 535.276 256.028 535.276C255.236 535.276 254.569 535.43 254.026 535.738C253.483 536.031 253.073 536.471 252.794 537.058C252.515 537.63 252.376 538.341 252.376 539.192C252.376 539.999 252.545 540.703 252.882 541.304C253.219 541.891 253.696 542.345 254.312 542.668C254.928 542.991 255.639 543.152 256.446 543.152C257.018 543.152 257.546 543.057 258.03 542.866C258.529 542.675 259.064 542.331 259.636 541.832L260.78 543.438C260.428 543.79 259.995 544.098 259.482 544.362C258.983 544.626 258.448 544.839 257.876 545C257.319 545.147 256.769 545.22 256.226 545.22ZM263.771 545V528.72H266.037V545H263.771ZM269.248 545V528.72H271.514V535.826L271.118 536.09C271.265 535.577 271.551 535.107 271.976 534.682C272.401 534.242 272.907 533.89 273.494 533.626C274.081 533.347 274.682 533.208 275.298 533.208C276.178 533.208 276.911 533.384 277.498 533.736C278.085 534.073 278.525 534.594 278.818 535.298C279.111 536.002 279.258 536.889 279.258 537.96V545H276.992V538.114C276.992 537.454 276.904 536.911 276.728 536.486C276.552 536.046 276.281 535.731 275.914 535.54C275.547 535.335 275.093 535.247 274.55 535.276C274.11 535.276 273.707 535.349 273.34 535.496C272.973 535.628 272.651 535.819 272.372 536.068C272.108 536.317 271.895 536.611 271.734 536.948C271.587 537.271 271.514 537.623 271.514 538.004V545H270.392C270.201 545 270.011 545 269.82 545C269.629 545 269.439 545 269.248 545ZM282.706 545V533.45H284.972V545H282.706ZM283.806 530.898C283.322 530.898 282.948 530.773 282.684 530.524C282.42 530.275 282.288 529.923 282.288 529.468C282.288 529.043 282.42 528.698 282.684 528.434C282.963 528.17 283.337 528.038 283.806 528.038C284.29 528.038 284.664 528.163 284.928 528.412C285.192 528.661 285.324 529.013 285.324 529.468C285.324 529.893 285.185 530.238 284.906 530.502C284.642 530.766 284.275 530.898 283.806 530.898Z" fill="black"/>
</svg>
