<svg width="260" height="57" viewBox="0 0 260 57" fill="none" xmlns="http://www.w3.org/2000/svg">
<g clip-path="url(#clip0_714_32)">
<path d="M204.224 27.0153V23.5432L208.192 23.1428C209.572 22.9981 210.162 21.8845 210.326 21.6288L220.236 7.38022C221.044 6.26321 220.259 5.27069 219.215 5.16639L213.993 4.6348V1.10883H236.595C237.857 1.10883 238.665 1.88266 239.194 2.5421L252.394 20.3503C253.43 21.7836 254.231 22.8972 255.553 23.0419L259.708 23.449V27.0153H234.32V23.5095L237.544 23.1731C239.091 23.0183 240.357 22.3959 239.091 20.7338L237.872 19.1021H219.843L218.464 21.0837C217.598 22.295 218.464 23.0183 219.782 23.1731L223.015 23.5095V27.0153H204.224ZM223.091 14.5095H234.491L228.736 6.51891L223.091 14.5095ZM187.381 1.10883H158.318V4.6348L161.974 4.97125C163.319 5.14957 163.879 6.0176 163.879 7.19181V21.1241C163.879 22.0897 163.422 23.0049 162.218 23.1596L158.296 23.6037V27.0153L187.373 27.0321C200.759 27.0321 206.511 21.289 206.511 13.7054C206.511 6.889 200.759 1.12229 187.373 1.12229M182.899 22.046H175.405V6.06471H182.899C190.041 6.06471 193.049 7.53162 193.049 14.0419C193.049 20.606 190.041 22.046 182.899 22.046ZM0.5 27.0153H24.0169V23.5634L19.9919 23.1596C19.0734 23.052 18.1472 22.5439 18.1472 20.8045V16.6426H36.2479V20.6228C36.2479 21.8004 36.0231 22.914 34.4527 23.0688L30.363 23.4591V27.0153H53.8799V23.4591L49.7292 23.052C48.9249 22.951 47.9988 22.3791 47.9988 20.9189V7.43741C47.9988 6.06471 48.5667 5.13611 49.7863 5.04191L53.8799 4.6348V1.10883H30.363V4.5877L34.4527 5.04191C35.8401 5.19667 36.2479 6.16228 36.2479 7.43741V11.4748H18.1472V7.38022C18.1472 5.85275 18.8371 5.13611 20.0529 5.02508L24.0169 4.6348V1.10883H0.553361V4.6348L4.47919 5.04191C6.0419 5.19667 6.44211 6.21274 6.38494 7.53162V20.6531C6.38494 22.1166 5.92375 22.9914 4.42583 23.1462L0.5 23.5634V27.0153ZM55.0348 13.9376C55.0348 5.8191 62.471 0.0994873 79.0662 0.0994873C95.5623 0.0994873 103.002 5.8191 103.002 13.9376C103.002 22.2815 95.5623 27.9305 79.0662 27.9305C62.471 27.9305 55.0538 22.2815 55.0538 13.9376M79.0166 5.09237C72.3389 5.09237 68.535 7.28601 68.535 13.9948C68.535 20.8146 72.3465 23.0049 79.0166 23.0049C85.6867 23.0049 89.5135 20.8146 89.5135 13.9948C89.5135 7.28601 85.702 5.09237 79.0166 5.09237ZM104.302 27.0153H123.093V23.5634L119.056 23.1596C117.913 23.052 117.212 22.1974 117.212 21.0198V7.83779L132.839 26.006C133.136 26.3198 133.507 26.5727 133.927 26.747C134.346 26.9213 134.803 27.0128 135.267 27.0153H150.009V7.38022C150.009 6.45499 150.28 5.20004 151.793 5.02508L155.891 4.61798V1.10883H137.1V4.5877L141.201 5.04191C142.638 5.19667 142.985 6.26321 142.985 7.47779V20.3065L127.472 2.24602C127.205 1.89652 126.846 1.61009 126.424 1.41183C126.003 1.21357 125.533 1.10953 125.056 1.10883H104.302V4.6348L108.224 5.04191C109.604 5.22359 110.13 5.84265 110.13 7.53162V20.6531C110.13 22.2041 109.65 22.9477 108.171 23.1462L104.31 23.5499V27.0153" fill="#CC0000"/>
<path d="M10.0173 38.0643H15.9746V48.8407H18.1319V38.0643H24.0169V36.631H10.0173V38.0643ZM32.6918 39.2822C30.7861 39.2822 29.2386 39.9551 28.301 41.163V36.631H26.2161V48.8474H28.301V44.5106C28.301 41.597 30.4125 40.5574 32.3831 40.5574C34.468 40.5574 35.5733 41.6273 35.5733 43.6493V48.8575H37.6506V43.5517C37.6506 40.8097 35.8897 39.2822 32.6918 39.2822ZM83.4723 40.2377C82.3669 39.3562 80.7318 38.8919 78.6164 38.8919C76.5963 38.8919 74.9383 39.3731 73.8178 40.2882C73.26 40.7634 72.8233 41.3381 72.5368 41.9739C72.2502 42.6097 72.1204 43.2921 72.156 43.9757C72.156 45.5906 72.7201 46.8523 73.8216 47.7237C74.9231 48.5951 76.543 49.0493 78.6202 49.0493C82.8129 49.0493 85.0998 47.2459 85.0998 43.9757C85.115 42.3641 84.5585 41.1058 83.4723 40.2377ZM82.912 43.9757C82.9507 44.479 82.8664 44.9838 82.6648 45.4559C82.4632 45.928 82.1489 46.3563 81.7433 46.7117C81.3378 47.0672 80.8503 47.3415 80.3141 47.5161C79.7779 47.6907 79.2054 47.7615 78.6355 47.7237C78.05 47.7486 77.4651 47.6657 76.9179 47.4804C76.3706 47.295 75.873 47.0113 75.4567 46.6471C74.7182 45.9136 74.3302 44.9562 74.3742 43.9757C74.3742 41.6205 75.9636 40.231 78.6355 40.231C81.3455 40.231 82.912 41.597 82.912 43.9757ZM145.474 40.2377C144.368 39.3562 142.729 38.8919 140.614 38.8919C138.594 38.8919 136.932 39.3731 135.804 40.2882C135.244 40.759 134.804 41.33 134.514 41.9631C134.224 42.5962 134.091 43.2766 134.123 43.9588C134.123 47.2291 136.429 49.0325 140.603 49.0325C142.68 49.0325 144.3 48.5884 145.417 47.7069C146.533 46.8254 147.086 45.5738 147.086 43.9588C147.086 42.3439 146.552 41.1058 145.474 40.2377ZM137.42 41.274C137.844 40.9176 138.346 40.6413 138.895 40.462C139.445 40.2827 140.029 40.2041 140.614 40.231C143.351 40.231 144.925 41.597 144.925 43.9757C144.958 44.4805 144.869 44.9859 144.664 45.4579C144.458 45.93 144.141 46.3578 143.732 46.7127C143.324 47.0676 142.835 47.3414 142.297 47.5157C141.759 47.6901 141.185 47.761 140.614 47.7237C138.003 47.7237 136.319 46.2534 136.319 43.9757C136.269 42.9822 136.664 42.0115 137.42 41.274ZM187.434 39.0265C185.346 39.1712 184.24 40.3319 183.535 41.4624V39.1073H181.671V48.8643H183.787V43.7267C183.796 43.2922 183.907 42.864 184.114 42.4696C184.321 42.0751 184.618 41.723 184.987 41.4355C185.772 40.8425 186.78 40.5305 187.812 40.5607L188.833 40.5439V39.0265H188.807C188.349 39.0046 187.891 39.0046 187.434 39.0265ZM64.9141 36.6209H58.6214V48.8272H60.771V44.1506H65.2076C67.0714 44.1506 68.5198 43.7805 69.507 43.0538C69.9618 42.7086 70.3227 42.2774 70.5628 41.7922C70.803 41.307 70.9163 40.7803 70.8944 40.2512C70.9171 39.8188 70.8395 39.3869 70.6665 38.982C70.4935 38.577 70.2286 38.2075 69.8881 37.896C68.92 37.0516 67.2429 36.6209 64.9141 36.6209ZM68.5998 40.268C68.5998 41.994 67.4945 42.7644 65.0208 42.7644H60.771V38.0138H64.876C67.4145 38.0138 68.5998 38.7304 68.5998 40.268ZM176.751 38.2157C175.409 37.1592 173.32 36.6276 170.588 36.6276H164.417V48.8575H170.668C173.225 48.8575 175.241 48.3158 176.61 47.2762C177.978 46.2366 178.706 44.6889 178.706 42.7342C178.706 40.7794 178.051 39.225 176.751 38.2157ZM166.601 38.0306H170.085C172.596 38.0306 174.224 38.4175 175.2 39.225C176.069 39.9517 176.461 41.0418 176.461 42.7476C176.461 45.9203 174.479 47.4579 170.401 47.4579H166.589L166.601 38.0306ZM214.873 46.7783V42.7409C214.873 41.7316 214.843 40.8938 213.73 40.0493C212.777 39.326 211.153 38.9222 209.537 38.9222C207.921 38.9222 205.017 39.3461 204.483 41.3615H206.77C207.109 40.7121 208.165 40.2276 209.549 40.2276C211.519 40.2276 212.876 40.9981 212.876 42.4919V42.8284H211.115C209.209 42.8284 206.278 42.8957 204.88 44.1573C204.617 44.3945 204.412 44.6758 204.276 44.9844C204.14 45.2931 204.075 45.6229 204.087 45.954C204.087 47.7742 205.863 49.0527 208.497 49.0527C210.559 49.0527 211.824 48.7465 212.952 47.4142C212.96 47.8978 212.997 48.3807 213.063 48.8609H215.06C214.955 48.1702 214.893 47.475 214.873 46.7783ZM212.842 44.5106C212.842 46.6572 211.584 47.7405 208.985 47.7405C207.22 47.7405 206.252 47.0676 206.252 45.9338C206.246 45.75 206.283 45.5671 206.36 45.3964C206.438 45.2257 206.554 45.0708 206.701 44.9413C207.551 44.1775 209.408 44.0934 210.791 44.0934H212.842V44.5106ZM231.476 38.9256C229.189 38.9256 228.019 40.2108 227.466 41.2807C227.196 40.6 226.696 40.009 226.032 39.5877C225.369 39.1665 224.575 38.9353 223.758 38.9256C222.962 38.9048 222.176 39.0859 221.493 39.4472C220.81 39.8085 220.259 40.3351 219.904 40.9645C219.904 40.9645 219.904 40.0661 219.817 39.1073H217.854C217.915 39.834 217.923 40.7222 217.923 41.4859V48.8542H220V44.1742C220 41.5061 221.662 40.2916 223.308 40.2916C225.023 40.2916 225.828 41.4388 225.828 43.9016V48.8609H227.897V44.1742C227.897 42.7544 228.324 41.6979 229.159 41.0183C229.699 40.5713 230.405 40.313 231.145 40.2916C232.143 40.2916 232.803 40.5876 233.207 41.2134C233.588 41.7888 233.755 42.6669 233.755 43.9891V48.8609H235.833V43.2624C235.833 41.8022 235.413 40.6852 234.59 39.9585C234.176 39.6108 233.687 39.3402 233.152 39.1627C232.617 38.9853 232.047 38.9046 231.476 38.9256ZM246.57 43.5484L243.109 42.9192C241.47 42.6299 240.746 42.2463 240.746 41.5734C240.746 40.6852 242.042 40.2276 243.932 40.2276C245.483 40.2276 246.6 40.5944 246.947 41.3547H249.203C249.132 40.9433 248.943 40.5547 248.654 40.2256C248.365 39.8965 247.986 39.6379 247.553 39.474C246.474 39.003 244.942 38.9054 243.993 38.9054C242.745 38.8615 241.505 39.1001 240.391 39.5985C239.362 40.1166 238.672 40.8837 238.672 41.8695C238.672 43.1581 239.743 43.9319 241.683 44.3054L244.961 44.9211C246.105 45.1297 247.248 45.4157 247.248 46.2669C247.248 47.2762 246.047 47.7708 243.867 47.7708C242.068 47.7708 240.978 47.3132 240.612 46.3611H238.325C238.76 48.585 241.397 49.0527 243.604 49.0527C247.526 49.0527 249.436 48.0433 249.436 46.0246C249.455 44.6385 248.628 43.9252 246.57 43.5484ZM154.56 36.4359C153.417 36.4359 152.441 36.5402 151.61 37.139C151.182 37.4631 150.866 37.8877 150.699 38.3637C150.497 39.0095 150.408 39.6791 150.436 40.3488H148.172V41.671H150.436V48.8508H152.552V41.6777H156.363V40.3555H152.552C152.552 39.0097 152.624 38.5622 153.074 38.182C153.379 37.9297 153.836 37.7547 154.839 37.7547C155.395 37.7453 155.949 37.8007 156.489 37.9196V36.5738C155.852 36.4798 155.206 36.4337 154.56 36.4359ZM101.84 43.4273C101.428 44.6048 100.982 45.9203 100.433 47.5656C99.9874 46.2534 99.5148 44.874 99.0269 43.5282L97.5671 39.5749H94.3579L92.8866 43.5416C92.395 44.8672 91.9223 46.2332 91.484 47.579C90.9352 45.9304 90.4892 44.6149 90.0814 43.4407L88.7207 39.5817H86.4338L89.8451 48.8643V48.8811H93.0582L94.5827 44.8437L94.9639 43.8175C95.3069 42.8519 95.6652 41.8527 96.0006 40.8534C96.3513 41.8964 96.7286 42.9394 97.0869 43.9521L97.4071 44.8437L98.9317 48.8508V48.8676H102.145L105.552 39.5985V39.5682H103.265L101.84 43.4273ZM126.946 39.0265C124.861 39.1712 123.756 40.3319 123.051 41.4624V39.1073H121.187V48.8643H123.302V43.7267C123.311 43.2922 123.423 42.864 123.63 42.4696C123.836 42.0751 124.134 41.723 124.503 41.4355C125.286 40.8431 126.292 40.531 127.323 40.5607L128.349 40.5439V39.0265H128.322C127.864 39.0046 127.404 39.0046 126.946 39.0265ZM116.91 40.2579C115.939 39.4033 114.524 38.9121 112.718 38.9121C108.925 38.9121 106.753 40.8635 106.753 44.1641C106.753 45.6243 107.286 46.8557 108.304 47.6833C109.322 48.511 110.877 49.0527 112.703 49.0527C113.945 49.0675 115.171 48.7998 116.262 48.2755C117.152 47.875 117.834 47.1887 118.168 46.3577H115.881C115.317 47.2628 114.086 47.7506 112.584 47.7506C111.904 47.782 111.228 47.6364 110.641 47.332C110.054 47.0276 109.58 46.5777 109.28 46.0381C109.012 45.5543 108.849 45.0305 108.8 44.4938H118.378V43.9319C118.374 42.3439 117.894 41.1091 116.91 40.2579ZM108.845 43.1884C108.866 43.0051 108.906 42.8238 108.963 42.6467C109.413 41.0822 110.705 40.2142 112.668 40.2142C115.199 40.2142 116.152 41.7753 116.194 43.1884H108.845ZM200.077 40.2579C199.109 39.4033 197.695 38.9121 195.884 38.9121C192.096 38.9121 189.919 40.8635 189.919 44.1641C189.919 45.6243 190.457 46.8557 191.471 47.6833C192.485 48.511 194.044 49.0527 195.869 49.0527C197.112 49.0675 198.338 48.7998 199.429 48.2755C200.32 47.8761 201.002 47.1894 201.335 46.3577H199.048C198.488 47.2628 197.253 47.7506 195.751 47.7506C195.071 47.7826 194.396 47.6373 193.809 47.3328C193.222 47.0283 192.749 46.578 192.45 46.0381C192.179 45.5555 192.016 45.0311 191.97 44.4938H201.545C201.564 44.0874 201.55 43.6804 201.503 43.2759C201.447 42.1526 200.942 41.0831 200.077 40.2579ZM192.012 43.1884C192.033 43.0051 192.072 42.8238 192.13 42.6467C192.58 41.0822 193.872 40.2142 195.839 40.2142C198.366 40.2142 199.319 41.7753 199.361 43.1884H192.012ZM50.3276 40.2579C49.3556 39.4033 47.9416 38.9121 46.1349 38.9121C42.3463 38.9121 40.17 40.8635 40.17 44.1641C40.17 45.6243 40.7074 46.8557 41.7212 47.6833C42.7351 48.511 44.2978 49.0527 46.1197 49.0527C47.3635 49.0681 48.5908 48.8004 49.6834 48.2755C50.5747 47.8767 51.2574 47.1897 51.5892 46.3577H49.3023C48.742 47.2628 47.5109 47.7506 46.0053 47.7506C45.3255 47.7826 44.65 47.6373 44.063 47.3328C43.4761 47.0283 43.0036 46.578 42.7046 46.0381C42.4332 45.5555 42.2701 45.0311 42.2243 44.4938H51.7988V43.9319C51.7874 42.3439 51.2957 41.1091 50.3276 40.2579ZM42.2586 43.1884C42.2796 43.0051 42.3191 42.8238 42.3768 42.6467C42.8304 41.0822 44.1187 40.2142 46.0854 40.2142C48.6162 40.2142 49.5653 41.7753 49.6072 43.1884H42.2586Z" fill="#221714"/>
</g>
<defs>
<clipPath id="clip0_714_32">
<rect width="259.208" height="57.2935" fill="white" transform="translate(0.5 0.0825195)"/>
</clipPath>
</defs>
</svg>
