<svg width="694" height="801" viewBox="0 0 694 801" fill="none" xmlns="http://www.w3.org/2000/svg">
<path d="M648.63 787.536L650.678 792.817L649.825 798.609L648.289 800.142L645.046 793.669L643.169 793.158L643.681 788.558L648.63 787.536ZM636.855 767.945L637.537 770.33L633.442 768.286L635.66 766.412L636.855 767.945ZM639.073 766.412L638.391 764.878L636.855 762.153L638.903 760.449L639.073 766.412ZM611.769 692.477V698.099L610.233 700.143L606.649 699.291L607.673 696.906L606.478 692.818L610.233 689.581L611.769 692.477ZM622.179 656.191L621.667 658.917L623.032 661.983L619.789 659.769L622.179 656.191ZM619.277 633.363L617.059 635.237L619.448 636.259L620.643 645.629L618.424 654.317L615.011 657.724L614.67 660.791L616.376 663.346L615.864 669.99L612.963 677.145L611.427 667.605L609.55 663.005L611.769 663.346L611.939 656.191L612.963 653.976L615.864 654.147L613.817 650.058L613.646 643.585L615.182 641.711L613.817 637.963L615.352 636.6L616.547 626.379L615.864 623.994L618.424 618.202L620.984 617.179L621.667 621.609L620.301 623.823L622.349 625.697L620.984 631.83L619.277 633.363Z" fill="white" stroke="black" stroke-width="0.6" stroke-miterlimit="11"/>
<path d="M484.802 402.53L486.338 404.915L485.655 408.663L483.778 408.322L484.802 402.53ZM478.147 278.511L479.853 272.889L477.293 266.415L474.563 263.69L475.075 259.771L477.976 262.497L483.949 263.69L487.191 260.964L492.311 261.475L496.236 265.734L501.526 269.652L507.158 268.46L513.643 270.334L513.472 271.526L519.615 271.185L520.639 276.126L519.615 281.577L515.861 285.495L513.643 286.858V291.458L508.864 290.947L503.403 287.71L502.209 282.429L498.625 279.874L497.431 281.747L501.014 284.814L495.553 285.495L491.628 280.896L485.314 277.489L483.437 279.703L486.85 280.214L483.608 287.029L480.194 288.902L478.488 295.206L479.853 298.613L482.242 297.761L487.021 301.509L489.922 305.427L493.505 306.108L495.724 305.086L497.772 309.686L500.844 310.027L499.82 313.774L491.97 313.604L488.045 314.456V317.693L485.655 322.803L482.925 320.929L479 329.107L482.072 333.025L490.434 337.454L494.359 337.795L497.26 339.498L495.724 341.543L496.919 347.505L494.017 349.209L492.993 355.001L497.601 359.6L498.796 359.43L497.089 364.2L497.772 365.563L503.745 366.755L501.356 369.822V372.888L503.915 375.784L503.233 378.68L508.182 394.012L508.011 399.805L506.816 400.827L509.035 406.789L506.987 408.833L504.086 407.13L501.356 410.367L499.308 406.789L499.99 397.76L496.748 410.707L494.871 411.389L495.383 403.552L493.676 405.426L493.847 409.004L491.287 407.471L488.898 411.048L487.021 407.641L487.533 404.404L485.997 400.486L487.703 397.249L486.167 395.375L481.901 404.063L475.587 409.174L470.126 410.537L468.249 405.937L465.006 405.426L462.788 401.678L459.545 403.212L458.01 399.634L450.159 395.375L454.085 392.82L450.671 388.731L451.354 386.687L447.941 385.154L447.258 383.28L442.651 380.725L443.675 374.762L436.166 374.421L433.094 371.185L429.852 371.014L428.316 368.459L429.852 364.37L428.145 362.667L432.241 361.645L432.753 359.089L435.313 359.771L437.531 363.007L440.432 361.304L443.333 357.726L451.354 355.171L453.061 350.06L458.01 352.445L461.935 351.423L462.617 348.357L467.566 345.972L467.395 343.757L471.491 341.883L470.638 339.669L472.686 338.306L474.392 333.365L473.027 330.98H476.099L475.758 322.974L473.027 317.863V314.626L474.222 312.923L471.832 309.686L476.781 305.938L479.512 306.96L478.829 302.361L472.856 297.25L473.368 293.502L476.611 289.754L483.949 283.621L481.048 278.851L478.147 278.511Z" fill="#FEEDD6" stroke="black" stroke-width="0.6" stroke-miterlimit="11"/>
<path d="M105.099 762.834L104.245 763.004L105.269 762.493L105.781 761.642L105.099 762.834Z" fill="white" stroke="black" stroke-width="0.6" stroke-miterlimit="11"/>
<path d="M261.929 740.006L262.099 740.347L261.588 740.006L261.758 739.836L261.929 740.006Z" fill="white" stroke="black" stroke-width="0.6" stroke-miterlimit="11"/>
<path d="M342.989 542.734L341.283 542.052H342.648L344.354 541.711L342.989 542.734ZM282.066 693.158L281.895 694.01L282.066 697.758L278.482 695.203L279.335 693.158H282.066ZM282.236 667.605L281.554 669.479L281.383 670.671L278.653 669.99L278.141 666.242L282.236 667.605ZM165.509 663.687L164.485 664.538L163.462 664.198V662.153L167.899 661.131L165.509 663.687Z" fill="white" stroke="black" stroke-width="0.6" stroke-miterlimit="11"/>
<path d="M110.218 440.52L110.56 438.986L111.072 438.305L111.754 440.349L110.218 440.52ZM65.8484 428.595L65.6777 428.935L64.9951 429.276L65.3364 428.424L65.8484 428.595Z" fill="white" stroke="black" stroke-width="0.6" stroke-miterlimit="11"/>
<path d="M607.843 336.091L610.403 343.928L611.939 346.142L611.768 360.112L610.233 363.348L606.308 364.03L607.502 367.267L605.454 370.503L606.478 377.488L608.355 380.725L608.185 386.006L605.284 385.835L604.601 391.457L601.359 390.946L596.922 387.88L596.41 391.628L594.532 392.82L594.191 387.709L591.119 373.74L587.024 366.926L586 361.304L586.512 358.067L583.269 349.72V346.994L584.293 342.906L583.781 333.877L582.928 332.684L585.829 332.343L587.024 335.069L590.949 331.832L593.338 325.359L595.556 327.744L600.164 326.722L600.335 334.899L603.065 335.921L607.843 336.091Z" fill="white" stroke="black" stroke-width="0.6" stroke-miterlimit="11"/>
<path d="M519.616 271.186L525.077 270.163L526.955 267.608L531.733 265.564L536.682 268.289L539.754 268.46L551.017 266.586L552.894 267.097L555.795 264.371L558.696 266.075L562.962 265.564L567.399 263.008L570.812 263.519L571.666 261.646L574.738 261.475L588.731 256.364L593.851 258.579L602.213 256.876L604.261 257.727L609.721 255.513L612.623 252.787L612.793 250.061L621.155 240.351L620.814 237.114L626.446 237.966L645.217 227.574L650.678 226.722L654.433 223.826L660.235 222.975L656.822 230.981L659.894 234.9L660.576 239.158L662.453 237.455L663.477 239.67L661.259 242.395L655.286 244.44L652.897 243.417L650.337 247.336L644.876 250.743L641.804 253.809L639.074 253.639L634.125 260.112L629.517 262.327L626.957 267.438L624.739 266.075L623.032 271.356L619.449 276.807L619.619 283.281L617.742 285.836L614.841 286.858L615.182 283.792L604.943 295.717L608.356 299.635V301.85L607.162 303.724L603.237 315.649L601.701 315.819V322.122L600.165 327.062L595.557 328.085L593.339 325.7L590.95 332.173L587.025 335.41L585.83 332.684L582.929 333.025L580.881 332.514L581.564 328.936L578.663 325.188L580.369 315.308L583.612 316.841L586.001 314.115L583.441 312.412L587.366 307.983L592.997 305.427L592.315 302.19L587.195 298.613V296.228L581.734 291.969L576.785 294.184L578.321 284.473L575.932 283.792L570.3 285.666L567.741 284.473L565.522 287.88L562.109 286.688L559.891 291.288L557.331 291.969L553.918 295.035L553.406 291.628L549.481 292.821L547.945 290.095H542.996L537.706 291.799V289.925L533.61 289.414L528.149 291.288L524.565 295.717L524.053 298.783L525.589 301.339L521.152 305.598L521.494 300.316L519.958 295.035L520.982 292.48L516.374 286.007L520.128 282.088L521.152 276.637L519.616 271.186Z" fill="white" stroke="black" stroke-width="0.6" stroke-miterlimit="11"/>
<path d="M151.686 181.408L149.639 177.319L154.758 172.89L161.584 163.52L163.12 163.861L169.264 159.091L165.851 156.536L168.752 149.721L166.363 142.396L168.24 139.159L174.383 134.56L179.332 132.856L182.234 133.367L184.964 131.834L186.5 128.938L185.305 127.064L188.377 126.553L189.742 128.256L197.763 122.805L199.128 125.19L194.009 129.108L191.278 133.708L197.763 137.115L199.469 140.522L198.446 141.714L201.347 148.188L203.053 154.321L205.613 155.173L208.002 152.447L209.197 155.173L212.439 157.558L213.634 163.69L216.364 166.246L217.729 167.949L217.217 169.312L214.658 169.483L217.217 172.208L218.753 174.423V180.215L214.658 179.363L214.487 181.237L210.221 183.793L212.61 184.644L210.05 187.711L207.149 184.985L206.637 186.689L203.224 186.007L201.859 190.777L202.541 193.333L196.568 196.058L192.814 193.503L188.548 195.036L184.964 193.844L179.844 199.976L178.65 196.569L180.186 195.036L176.602 191.118L174.895 191.459L171.141 188.392L167.045 189.925L164.144 188.903L149.809 187.029L151.857 183.111L151.686 181.408Z" fill="white" stroke="black" stroke-width="0.6" stroke-miterlimit="11"/>
<path d="M136.328 587.537L131.891 582.256L132.915 580.042L131.721 575.272L129.331 572.376L127.284 565.05L130.526 563.517L133.427 567.606L137.352 567.435L140.595 567.776L142.13 577.316L140.424 585.663L136.328 587.537Z" fill="white" stroke="black" stroke-width="0.6" stroke-miterlimit="11"/>
<path d="M107.529 449.208L108.908 443.645L110.804 441.038L112.356 440.864L111.666 438.778L113.218 431.651L112.7 427.131L108.736 422.09L109.425 418.787L106.667 416.701L105.805 413.398L107.357 410.791L115.286 405.924L107.529 405.576L105.461 404.707L108.046 397.927L105.116 397.58L106.322 392.712L108.736 391.495L111.494 392.712L114.079 390.8L106.84 389.236L102.875 389.757L103.22 386.628L100.634 390.105L100.462 394.277L95.8075 396.537L96.6694 400.535L92.7047 399.839L93.0494 402.099L96.6694 401.752L99.5998 405.75L98.0484 410.269L94.4285 414.615L94.2561 417.57L77.7079 425.219L66.1586 428.696L65.6415 428.522L65.2967 429.391H62.0215L54.6093 426.088L49.6104 422.612L43.06 416.006L33.2345 402.447L23.2366 391.495L17.5482 382.456L18.5824 379.675L24.2709 380.196L24.0985 383.673L31.166 382.108L32.8898 379.327L34.4411 382.108L37.5439 378.979L38.7506 380.718L43.2324 377.936L48.5761 377.589L54.0922 368.723L58.0568 365.594L56.6778 362.639L54.6093 367.506L50.6446 365.768L49.7827 366.985L40.4743 368.897L37.3715 371.678L25.8223 368.202L17.031 362.639L11.3426 357.424V353.774L7.03315 349.949L8.75692 348.211L7.72265 344.908L18.0653 338.998L13.2387 339.867L7.3779 342.996L5.13699 345.777L0.999939 345.082L4.10274 343.517L1.51708 341.084L2.20658 338.476L8.58453 335.695L15.8244 336.39L16.6863 327.525L20.8233 327.003L22.3747 328.915H30.1317L37.0268 329.785L39.4401 332.392L46.8523 333.609L50.4722 330.132L60.6425 327.699L61.332 331.523L65.9862 333.435L70.1233 330.132L74.2603 329.089L71.847 327.525L71.5023 324.222L74.2603 321.441L78.9145 323.353L86.1544 322.484L95.8075 323.874L98.3932 322.831L106.84 328.568L107.529 331.001L110.115 329.263L114.597 332.914L118.906 333.783L120.975 330.306L122.871 329.958L124.077 334.652L122.526 338.129L126.318 343.517L129.076 341.258L130.628 345.777L128.904 349.949L134.937 355.86V359.858L139.419 360.205L142.867 362.465L149.417 368.376L151.485 371.678L152.347 376.024L154.588 378.11L152.347 382.108L146.831 385.411L143.384 386.28L148.21 390.105H144.418L144.246 394.103L145.797 397.58L145.28 400.709L137.178 403.49L137.35 408.531L135.454 409.574L137.006 412.355L141.487 411.312L148.727 412.877L140.281 415.658L139.247 418.266L136.316 418.44L133.386 422.612L137.523 426.784L138.212 432.172L135.11 436.692L130.972 437.735L126.835 433.389L124.595 435.301L126.835 438.083L124.25 442.602L124.077 447.817L121.836 447.296L119.078 449.208L116.838 443.124L112.356 445.905L113.562 448.513L109.081 449.034L107.529 449.208Z" fill="#FEEDD6" stroke="black" stroke-width="0.6" stroke-miterlimit="11"/>
<path d="M197.763 122.635L189.742 128.086L188.377 126.382L185.305 126.893L179.332 122.975L172.677 122.805L170.629 119.398L172.336 112.924L168.581 114.968L157.148 108.325L153.734 106.962L149.468 103.725L148.956 96.57L150.321 94.8664L150.151 82.6007L148.956 80.0454L148.444 73.0608L147.079 69.9944L148.444 65.2244L152.369 65.3947L155.782 59.6026L161.414 57.7287L164.144 51.9366L160.049 49.0405L155.953 48.5295L155.27 45.8038L157.659 42.3966L157.318 40.182L149.809 38.9895L144.349 34.0492L143.666 29.6199L137.693 30.131L131.72 27.9163L133.427 25.1906L132.403 22.6353L133.427 19.2281L136.157 18.3764L142.642 13.6064L145.372 10.3696L145.202 7.81426L152.369 6.96248L161.926 8.8364V6.96248L158.854 3.7257L163.632 5.76998L166.704 6.1107L173.189 2.19249L176.09 3.38499L178.821 1L183.94 3.7257L187.865 3.21464L192.985 5.59962L194.009 10.1992L197.422 9.85853L201.859 12.2435L205.442 18.8874L209.026 19.7392L210.733 22.6353L213.805 22.976L214.658 24.8499L219.607 26.3831L221.484 28.5977L221.655 33.8788L226.433 36.4341L228.139 38.6488L233.6 39.3302L236.16 41.2041L237.013 45.9741L244.863 46.1445L246.399 43.9298L249.812 44.4409L250.324 42.7373L256.809 38.8191L259.198 38.3081L262.611 35.0713L267.731 35.412L275.24 33.5381L278.141 34.5602L278.312 36.7749L282.749 38.3081L283.26 42.2263L288.38 43.4188L290.087 48.0184L292.305 48.5295L295.036 45.2927L298.107 47.5073L295.718 51.5959L295.889 54.6623L293.841 57.8991V62.4987L290.94 68.4612L286.674 69.1426L283.772 71.8683L282.749 75.2754L279.335 75.6161L280.189 79.364L278.994 83.2822L276.434 85.6672H266.878L265.854 87.2004L268.072 92.4814L268.243 95.8885H265.854L266.195 102.021L267.39 104.236L276.264 108.154L275.24 113.606L278.823 119.398L278.312 121.953L273.875 125.871L270.291 126.212L269.438 128.938L265.854 129.278L262.782 126.382L261.588 121.612L259.71 123.146L254.249 124.338L251.69 125.02L254.079 121.272V118.205L246.058 122.123L242.986 114.968L240.085 111.221L231.723 114.798L227.115 113.095L223.19 110.369L218.583 105.599L214.658 104.577L208.685 106.451L206.808 109.006L201.347 112.413L197.592 112.583L199.811 115.991V120.079L197.763 122.635Z" fill="white" stroke="black" stroke-width="0.6" stroke-miterlimit="11"/>
<path d="M164.315 189.073L167.216 190.096L171.312 188.562L175.066 191.629L176.773 191.288L180.357 195.206L178.821 196.739L180.015 200.147L185.135 194.014L188.719 195.206L192.985 193.673L196.739 196.228L202.712 193.503L202.03 190.947L203.395 186.177L206.808 186.859L207.32 185.155L210.221 187.881L212.781 184.815L210.392 183.963L214.658 181.407L214.829 179.533L218.924 180.385V174.593L217.389 172.378V171.016L217.218 169.482L217.73 168.12L216.365 166.416L219.436 166.757L221.484 170.164L224.044 171.697L224.215 175.615L225.751 177.489L234.283 180.896L233.771 183.622L225.751 191.458L224.385 196.058L221.484 202.532L223.532 206.62L223.02 213.945L224.215 220.589L221.143 220.249L218.071 221.952L218.242 225.189L215.511 228.255L216.365 229.789L220.972 229.618L223.703 232.174L226.774 229.959L230.529 233.366L231.211 237.114L229.676 242.565L231.041 245.121L225.068 248.869L219.607 248.698L220.29 250.572L216.535 252.276L217.559 240.18L215.682 237.455L210.733 241.032L208.344 243.928L206.125 241.543L206.296 238.818L199.982 241.032L199.299 242.565L200.494 247.335L195.545 247.165L194.18 244.099L196.398 240.862L194.521 239.84L197.763 238.477L193.497 232.344L191.108 231.492L187.012 225.7L184.282 215.479L181.893 207.302L176.09 208.664L170.459 204.065L165.51 205.598L163.974 202.702L165.51 202.021L165.68 194.014L162.779 194.525L164.827 191.458L164.315 189.073Z" fill="#FEEDD6" stroke="black" stroke-width="0.6" stroke-miterlimit="11"/>
<path d="M647.606 261.134L644.705 262.667L643.169 266.415L644.022 272.548L647.094 277.659L643.851 281.407L644.534 286.347L639.414 293.672L636.854 295.206L633.953 293.672L634.465 288.902L629.004 294.183L626.274 294.865L621.666 293.843L616.376 294.695L616.717 297.25L612.451 304.064L608.526 301.849V299.635L605.113 295.717L615.352 283.792L615.011 286.858L617.912 285.836L619.789 283.281L619.619 276.807L623.202 271.356L624.909 266.075L627.127 267.437L629.687 262.327L634.295 260.112L639.073 253.979L641.803 254.15L644.875 251.083L646.07 255.513L647.606 261.134Z" fill="white" stroke="black" stroke-width="0.6" stroke-miterlimit="11"/>
<path d="M599.994 326.892L601.53 321.952V315.649L603.066 315.478L606.991 303.553L608.185 301.679L612.111 303.894L616.377 297.08L616.036 294.524L621.326 293.673L625.934 294.695L628.664 294.013L634.125 288.732L633.613 293.502L636.514 295.035L634.637 300.657L638.221 303.212L639.074 306.109L637.026 313.945L635.319 315.308L630.882 326.211L629.347 335.069L627.469 339.498L624.91 337.795L620.131 337.624L615.182 336.091L611.599 337.795L609.209 334.728L607.674 336.091L602.895 336.262L600.165 335.24L599.994 326.892Z" fill="white" stroke="black" stroke-width="0.6" stroke-miterlimit="11"/>
<path d="M582.928 332.684L583.781 333.877L584.293 342.905L583.269 346.994L580.539 346.483L577.126 348.868L575.249 346.994L575.76 353.127L572.347 356.875L571.324 359.43L573.03 364.2L568.081 368.289L564.668 362.156L562.45 360.622L562.791 365.904L560.914 363.859L558.525 355.171L556.135 351.423L557.33 343.416L560.231 341.031L560.572 338.135L565.351 337.965L566.716 334.899L569.276 333.877L572.689 335.75L573.713 330.469L578.15 328.425L578.832 324.677L581.733 328.425L581.051 332.003L582.928 332.684Z" fill="white" stroke="black" stroke-width="0.6" stroke-miterlimit="11"/>
<path d="M144.512 400.06L145.022 396.962L143.492 393.52L143.662 389.562H147.401L142.642 385.776L146.041 384.915L151.48 381.646L153.69 377.687L151.48 375.622L150.631 371.32L154.37 370.804L160.319 367.878L156.07 365.813L157.089 362.715L163.378 359.445L166.438 354.626L165.928 348.947L167.457 345.505L165.248 339.998L162.018 339.138L164.908 334.491L161.849 332.082L163.718 328.296L168.137 327.779L168.477 325.37L165.248 324.854L165.078 321.24L168.647 323.305L171.197 322.789L172.557 318.83L176.976 318.658L176.126 323.133L173.576 322.789V327.435L179.355 328.296L186.834 326.575L189.383 333.631L185.984 336.04L187.514 339.31L186.154 342.408L187.514 344.301L185.474 347.398L181.055 346.194L179.865 348.775L182.245 352.217L184.794 353.078L186.664 350.668L191.423 348.947L192.103 346.366L194.992 344.129L195.502 338.966L197.882 340.515L203.321 341.031L205.36 342.58L207.91 340.17L210.629 344.301L213.689 342.063L211.989 338.966V333.631L214.369 335.18L218.108 333.631L216.068 328.984L211.649 326.23L214.199 324.682L213.689 320.895L221.507 318.658L225.077 319.002L226.606 316.593L225.077 310.398L221.507 312.979L215.219 313.667L209.1 311.602L206.72 309.365L205.19 302.481L206.89 299.211L211.309 297.49L215.728 292.672L222.867 289.23L225.587 286.304L228.136 285.788L237.654 280.625L239.354 278.388L243.433 278.043L243.943 275.118L246.323 274.257L250.232 273.741L254.651 276.322L258.05 275.29L262.98 277.871L266.039 287.165L263.659 289.23L263.32 293.704L259.75 300.76L258.22 302.137L257.541 306.611L249.382 308.332L246.833 312.119L249.212 318.142L248.362 322.616L244.283 326.575L246.323 331.221L245.473 335.352L249.042 341.547L251.592 338.794L258.73 344.129L263.32 337.417L260.43 332.77L257.541 332.942V328.124L255.501 324.165L254.821 319.691L252.612 316.249L254.651 312.291L257.881 314.012L257.711 310.226L259.41 312.119L261.96 309.193L262.98 311.602L261.45 318.83L265.019 316.593L264.509 319.002L270.288 319.347L270.968 316.765L274.028 316.937L271.988 319.691L273.178 321.756L276.747 319.002L284.396 319.691L284.226 317.109L292.214 312.807H294.424L297.653 319.002L294.424 323.477L299.863 322.789L298.503 320.895L308.021 319.002L305.982 324.682L311.421 324.854L313.63 326.403L315.67 324.682L317.029 319.519L323.998 318.658L325.188 321.928L330.627 323.133L332.157 326.058L341.335 329.672L342.355 333.803L345.244 331.393L353.403 332.598L352.553 335.696L353.403 340.17L352.723 344.817L351.193 345.85L354.253 350.668L353.403 352.561L347.794 356.692L336.916 356.175L333.516 355.143L329.777 356.347L326.038 354.626L327.568 359.273L325.358 362.715L326.548 364.78L328.927 363.231L333.346 364.436L334.876 367.017L339.635 369.771L338.275 374.934L333.856 376.483L333.686 379.064L330.117 381.474L329.607 386.636L326.718 389.734L321.279 390.939L319.409 389.39L315.5 389.906L313.97 394.725L311.59 397.479L310.571 401.265L309.211 400.06L307.171 404.018V406.772L304.622 410.214L304.452 416.753L303.432 419.851L296.973 418.819V416.753L291.534 412.279L287.115 414.688L283.206 415.032L282.186 413.484L276.237 414.516L273.008 410.73L268.759 410.042L268.079 411.59L260.94 413.656L260.43 415.377L255.501 416.237L249.042 415.205L247.512 412.107L239.184 416.925L231.366 418.302L225.927 417.786L224.567 415.032L227.456 414V409.87L225.247 407.804L222.187 407.632L219.298 409.525L216.748 408.837L208.76 412.623L207.06 416.925L204.68 418.819L204.171 422.433L199.751 425.014L193.633 425.358L191.423 417.786L186.494 416.753L178.165 417.27L172.726 416.753L168.307 415.032L166.438 411.935L162.698 410.214L158.109 410.042L153.52 406.772L153.18 400.92L151.31 398.683L146.211 401.265L144.512 400.06Z" fill="#FEEDD6" stroke="black" stroke-width="0.6" stroke-miterlimit="11"/>
<path d="M303.909 419.907L304.933 416.84L305.104 410.367L307.664 406.959V404.234L309.712 400.316L311.077 401.508L312.101 397.76L314.49 395.035L316.026 390.264L319.951 389.753L321.828 391.287L327.289 388.22L330.19 385.154L330.702 380.043L334.286 377.658L334.456 375.103L338.893 373.57L340.259 368.459L335.48 365.733L333.944 363.178L329.507 361.985L327.118 363.519L325.924 361.474L328.142 358.067L326.606 353.468L330.361 355.171L334.115 353.979L337.528 355.001L348.45 355.512L354.082 351.423L354.935 349.549L358.86 351.764L364.662 350.912L367.734 345.631L372.171 347.505L373.024 350.912L376.437 353.979L378.485 360.111L381.557 360.622L383.263 358.578L384.287 360.963L382.751 365.733L384.287 365.392L384.799 371.696L386.847 375.443L392.137 375.955L392.649 378.34L388.895 383.28L383.605 387.709L384.287 390.264L374.901 396.908L372.853 403.041L373.877 406.448L371.83 407.3L368.416 415.477L369.27 419.736L367.222 419.225L365.345 424.165L362.444 425.869L359.542 424.165L352.375 425.017L349.815 430.298L347.255 433.024L344.525 432.683V440.69L346.573 444.097V453.637L351.522 455.852L353.57 455.511L354.082 459.259L350.668 461.644V459.6L345.72 458.577L343.501 459.94L341.965 456.704L334.798 452.956L331.897 457.726L337.187 461.474V468.288L340.6 471.695L340.429 478.679L341.965 481.405L339.917 488.56L335.651 490.264L334.286 494.012L330.019 498.952L325.07 501.507L322.681 511.558L321.487 513.432L315.343 512.58L312.783 514.284L311.248 512.58L310.053 506.107L305.957 502.189L304.08 497.419L299.302 492.478L295.547 492.649L293.5 489.582L295.377 486.005L293.67 482.598L296.913 475.443L301.179 471.695L304.763 474.932L307.493 472.717L309.029 469.14L304.592 466.243L300.326 460.451L298.619 461.644L297.595 458.237L300.155 457.385V451.934L297.595 451.593V449.208L302.544 446.823V439.668L299.472 439.838L301.35 437.113L300.838 431.32L297.937 429.106L299.131 424.677L302.544 422.632L303.909 419.907Z" fill="white" stroke="black" stroke-width="0.6" stroke-miterlimit="11"/>
<path d="M644.705 250.913L650.166 247.506L652.725 243.588L655.115 244.61L661.087 242.565L663.306 239.84L662.282 237.625L660.405 239.329L659.722 235.07L656.65 231.152L660.064 223.145L654.261 223.997L650.507 226.893L645.046 227.744L626.274 238.136L620.642 237.284L620.984 240.521L612.622 250.231L612.451 252.957L609.55 255.683L604.089 257.898L602.041 257.046L593.679 258.749L588.56 256.535L574.566 261.645L571.494 261.816L568.934 255.683L570.641 251.594L567.74 247.335L562.62 249.209L558.695 246.143L559.037 240.351L567.057 240.521L569.105 238.477L574.566 238.136L581.904 234.048L583.269 230.64L582.075 228.937L586.512 226.211L591.631 220.93L592.826 217.353L599.14 211.901L603.236 211.561L614.499 204.235L619.107 200.317L617.059 198.443L619.619 195.206L622.52 194.184L624.568 191.629L628.493 195.377L632.588 194.866L640.438 197.08L640.78 194.695L645.558 194.184L647.094 190.777L649.995 191.288L650.166 187.881L659.381 186.007L661.258 188.733L664.159 187.711L663.989 190.607L660.917 192.821L661.599 195.036L665.012 192.651L671.327 199.806L672.18 202.361L668.767 205.428L670.815 210.368L671.668 205.768L675.081 205.257L682.248 211.39L685.662 209.857L691.122 213.094L690.952 216.501L693 219.056L692.658 221.782L690.098 221.952L682.76 230.64L684.296 236.262L690.781 243.076L688.221 244.439L683.443 242.395L680.883 238.477L676.788 238.647L675.252 240.521L666.548 242.736L663.647 244.95L661.087 249.72L658.528 250.913L654.603 256.194L652.213 256.705L650.166 260.112L646.753 261.645L645.046 255.853L644.705 250.913Z" fill="white" stroke="black" stroke-width="0.6" stroke-miterlimit="11"/>
<path d="M583.44 312.071L581.393 310.367L573.884 308.153L561.255 310.367L555.453 309.175L545.555 311.56L543.508 311.049L534.633 312.241L523.37 309.175L521.664 309.686L520.811 305.597L525.248 301.338L523.712 298.783L524.224 295.717L527.807 291.287L533.268 289.414L537.364 289.925V291.799L542.654 290.095H547.603L549.139 292.821L553.064 291.628L553.576 295.035L556.989 291.969L559.549 291.287L561.767 286.688L565.18 287.88L567.399 284.473L569.959 285.666L575.59 283.792L577.979 284.473L576.444 294.184L581.393 291.969L586.853 296.228V298.613L591.973 302.19L592.656 305.427L587.024 307.982L583.44 312.071Z" fill="white" stroke="black" stroke-width="0.6" stroke-miterlimit="11"/>
<path d="M163.462 664.198L156.806 650.399L154.417 644.436L156.806 644.266L160.902 648.184L164.998 649.036L167.899 657.213L173.872 662.494L177.285 663.346L179.503 666.412L184.964 666.242L194.009 674.249L191.961 676.123L189.401 675.782L189.743 679.019L193.668 680.041L197.081 682.767L194.521 686.003L199.641 686.344L202.883 690.433L200.835 693.499L204.248 695.032L205.955 697.588L204.078 701.506L204.589 710.024L208.344 712.238L213.634 709.002L215.853 712.749L214.487 716.668L215.341 719.223L213.293 728.422L217.218 729.274L218.754 731.489L214.999 741.54L212.61 744.776L214.829 748.524L212.952 752.954L215.511 757.553L212.61 763.345L211.074 763.856L208.173 761.642L196.91 747.843L191.961 736.259L190.767 731.829L189.572 721.438L193.497 726.889L192.132 720.756L189.231 718.882L184.452 704.913L181.21 698.269L178.991 689.581L175.578 680.893L173.531 679.36L171.483 673.397L165.851 666.924V664.027L168.24 661.472L163.803 662.494V664.198H163.462Z" fill="white" stroke="black" stroke-width="0.6" stroke-miterlimit="11"/>
<path d="M194.009 674.249L204.419 675.441L206.808 670.842L211.245 672.034L215.853 670.501L220.29 670.671L221.826 667.775L226.433 666.583L228.993 662.664L226.433 660.45L221.996 660.28L225.409 653.125L224.044 650.91L225.068 648.014L227.457 647.844L230.017 643.244L236.502 643.585L240.939 645.97L245.717 649.377L249.983 645.629L251.519 639.837L253.396 638.304L259.199 637.281L264.66 638.644L266.878 635.919L271.315 634.045L271.827 631.489L277.629 632.341L280.53 634.215L281.384 632.341L288.551 627.912L292.647 627.741L293.841 628.423L293.159 626.549V626.379L293.329 626.038L293.841 628.253L294.353 628.593L294.524 634.726L293.329 638.133L291.793 648.355L289.916 653.636L282.408 665.39L282.066 667.264L277.971 666.072L278.483 669.819L281.213 670.501L279.677 677.145L280.53 681.063L278.141 684.3L281.725 683.278L282.066 692.818L279.165 692.647L278.312 694.692L281.896 697.247V711.046L275.069 709.342L270.121 709.853L266.025 713.942L267.049 717.349L265.001 719.052L259.199 727.059L257.492 732.17L260.735 736.258L266.195 737.11L267.902 736.258L270.632 740.688L267.219 738.303L258.516 737.451L249.642 741.028L245.205 741.54L239.744 745.458L236.502 753.465L236.843 758.064L235.137 761.131L220.802 768.967L215.682 767.434L210.392 763.175L211.928 762.664L214.829 756.872L212.269 752.272L214.146 747.843L211.928 744.095L214.317 740.858L218.071 730.807L216.535 728.592L212.61 727.741L214.658 718.541L213.805 715.986L215.17 712.068L212.952 708.32L207.661 711.557L203.907 709.342L203.395 700.824L205.272 696.906L200.153 692.818L202.2 689.751L198.958 685.663L193.838 685.322L196.398 682.085L192.985 679.359L189.06 678.337L188.719 675.101L194.009 674.249Z" fill="#FEEDD6" stroke="black" stroke-width="0.6" stroke-miterlimit="11"/>
<path d="M293.329 626.549L289.916 620.757L287.698 623.653L289.404 626.719L292.988 627.571L288.892 627.741L281.725 632.171L280.872 634.045L277.971 632.171L272.168 631.319L271.656 633.874L267.219 635.748L265.001 638.474L259.54 637.111L253.738 638.133L251.861 639.666L250.325 645.458L246.058 649.206L241.28 645.799L241.621 643.244L246.058 640.859L249.983 633.704L244.523 629.615L245.034 623.823L240.256 623.482L238.038 621.097L236.502 615.987L233.601 617.35L234.113 613.943L230.358 614.454V616.157L225.409 619.564L221.484 620.586L219.948 616.668L213.805 614.965L213.464 618.201H209.027L210.392 614.965L206.808 608.321L209.368 607.98L210.05 610.706L212.952 612.409L217.389 612.239L220.119 615.305L218.583 609.173L221.996 607.639L216.706 603.721L213.805 603.38L211.245 606.277L207.832 605.425L206.637 602.018L208.515 600.484L204.078 597.418L203.907 594.692L205.955 588.048L203.395 586.174L204.59 583.449L211.245 585.834L213.805 582.597L213.293 577.997L211.245 576.805L209.88 572.716L212.952 568.457L211.757 563.006L214.488 560.791L222.167 561.132L223.191 559.769L223.703 550.059L217.73 548.015L222.167 544.267L221.655 540.86L223.191 532.512L220.972 527.742L228.993 518.884L226.775 519.224L222.167 517.01L225.068 513.943L224.556 512.24L227.457 509.344L225.921 499.122L224.727 497.248L227.116 492.819L229.334 492.308L230.188 489.242L235.137 485.494L231.212 479.872L233.259 477.998L235.137 472.547L241.621 474.421L241.792 471.354L245.034 468.628L247.594 461.985L245.888 457.896L249.471 460.281L250.837 459.77L256.81 460.962L261.759 466.414L266.537 464.54L272.68 467.606L280.53 465.903L285.309 469.14L286.162 471.354L285.309 480.553L285.821 485.494L284.797 486.516L289.063 489.923L293.5 489.582L295.548 492.649L299.302 492.478L304.081 497.419L305.958 502.189L310.054 506.107L311.248 512.58L312.784 514.284L315.344 512.58L321.487 513.432L326.095 513.603L334.628 508.322L337.529 507.129L342.478 508.492L344.696 507.129L344.184 503.211L345.72 497.419L347.768 494.693L351.522 499.804L351.352 502.018L356.13 498.952L362.615 497.93L363.639 494.352L362.103 491.286L364.663 488.219L366.54 488.56L371.318 485.153L368.929 482.087L372.683 482.598L376.608 478.339L379.851 483.62L381.387 481.746L383.946 486.857L390.431 487.197L394.356 486.516L399.305 480.553L403.401 477.146L405.449 478.339L402.718 483.279L396.916 491.286L390.09 498.27L388.554 500.996L377.12 507.129L373.537 510.877L368.076 519.224L359.543 523.994L355.106 525.698L349.133 529.616L344.696 534.216L343.843 538.475L346.232 538.645L344.867 545.97L336.846 550.57L331.044 552.955L322.17 551.422L318.074 553.125L315.685 561.984L311.76 565.732L309.03 564.539L306.982 569.139L306.128 564.709H300.497L295.548 567.435L292.988 569.991L288.551 579.701L287.527 587.367L288.892 595.544L291.111 599.292L289.234 607.299L290.258 614.454L292.135 618.372L291.623 622.12L293.329 626.549ZM342.99 542.733L344.355 541.711L342.648 542.052H341.283L342.99 542.733Z" fill="white" stroke="black" stroke-width="0.6" stroke-miterlimit="11"/>
<path d="M194.009 674.249L184.965 666.242L179.504 666.412L177.285 663.346L173.872 662.494L167.899 657.213L164.998 649.036L160.902 648.184L156.807 644.266L154.418 644.436L153.394 641.881L150.322 624.164L148.274 614.113L146.226 611.217L143.666 599.122L141.448 597.248L140.595 592.648L136.499 590.093V587.537L140.424 585.834L142.131 577.486L140.595 567.946L137.352 567.606L139.571 564.369L143.325 564.539L147.079 555.51L146.738 551.592L143.666 550.74L144.178 548.015L141.619 543.926H144.349L146.397 541.371L149.298 543.926L152.37 542.734L152.882 540.008L157.319 538.815L157.148 536.26L160.049 533.705L165.169 536.09L167.558 533.705L176.602 533.534L177.456 530.468L175.408 522.461L176.944 520.247L181.21 522.972L183.429 521.95L184.965 524.335L191.961 522.802L195.204 523.824L194.862 516.839L199.811 512.921L203.907 514.795L209.368 507.811L209.709 503.381L214.658 502.189L220.119 495.375L223.362 500.144L226.263 499.633L227.799 509.855L224.897 512.751L225.409 514.454L222.508 517.521L227.116 519.735L229.334 519.395L221.314 528.253L223.532 533.023L221.996 541.371L222.508 544.778L218.071 548.526L224.044 550.57L223.532 560.28L222.508 561.643L214.829 561.302L212.098 563.517L213.293 568.968L210.221 573.227L211.586 577.316L213.634 578.508L214.146 583.108L211.586 586.345L204.931 583.96L203.736 586.686L206.296 588.559L204.248 595.203L204.419 597.929L208.856 600.996L206.979 602.529L208.173 605.936L211.586 606.788L214.146 603.892L217.047 604.232L222.338 608.15L218.925 609.684L220.46 615.816L217.73 612.75L213.293 612.92L210.392 611.217L209.709 608.491L207.149 608.832L210.733 615.476L209.368 618.713H213.805L214.146 615.476L220.29 617.179L221.826 621.098L225.751 620.075L230.7 616.668V614.965L234.454 614.454L233.942 617.861L236.843 616.498L238.379 621.609L240.598 623.994L245.376 624.334L244.864 630.126L250.325 634.215L246.4 641.37L241.963 643.755L241.622 646.31L237.185 643.925L230.7 643.585L228.14 648.184L225.751 648.355L224.727 651.251L226.092 653.465L222.679 660.62L227.116 660.791L229.676 663.005L227.116 666.923L222.508 668.116L220.972 671.012L216.535 670.842L211.928 672.375L207.491 671.182L205.102 675.782L194.009 674.249Z" fill="#FEEDD6" stroke="black" stroke-width="0.6" stroke-miterlimit="11"/>
<path d="M118.409 448.015L121.14 446.142L123.358 446.653L123.529 441.542L126.089 437.113L123.87 434.387L126.089 432.513L130.184 436.772L134.28 435.75L137.352 431.321L136.669 426.04L132.574 421.951L135.475 417.862L138.376 417.692L139.4 415.137L147.762 412.411L140.594 410.878L136.157 411.9L134.621 409.174L136.499 408.152L136.328 403.212L144.349 400.486L146.226 401.338L151.346 398.782L153.223 400.997L153.564 406.789L158.172 410.026L162.779 410.196L166.534 411.9L168.411 414.966L172.848 416.67L178.309 417.181L186.671 416.67L191.62 417.692L193.838 425.188L199.982 424.847L204.419 422.292L204.931 418.714L207.32 416.84L209.026 412.581L217.047 408.833L219.607 409.515L222.508 407.641L225.58 407.811L227.798 409.856V413.944L224.897 414.966L226.262 417.692L231.723 418.203L239.573 416.84L247.935 412.07L249.471 415.137L255.956 416.159L260.905 415.307L261.417 413.604L268.584 411.559L269.267 410.026L273.533 410.707L276.776 414.455L282.749 413.433L283.773 414.966L287.698 414.626L292.135 412.241L297.596 416.67V418.885L304.08 419.907L302.715 422.803L299.302 424.847L298.108 429.276L301.009 431.491L301.521 437.283L299.643 440.009L302.715 439.838V446.993L297.766 449.378V451.763L300.326 452.104V457.555L297.766 458.407L298.79 461.814L300.497 460.622L304.763 466.414L309.2 469.31L307.664 472.888L304.934 475.102L301.35 471.865L297.084 475.613L293.841 482.768L295.548 486.175L293.671 489.753L289.234 490.094L284.967 486.686L285.991 485.664L285.479 480.724L286.332 471.525L285.479 469.31L280.701 466.073L272.851 467.777L266.707 464.71L261.929 466.584L256.98 461.133L251.007 459.94L249.642 460.452L246.058 458.067L247.765 462.155L245.205 468.799L241.963 471.525L241.792 474.591L235.307 472.717L233.43 478.169L231.382 480.043L235.307 485.664L230.358 489.412L229.505 492.479L227.286 492.99L224.897 497.419L226.092 499.293L223.191 499.804L219.948 495.034L214.487 501.848L209.538 503.041L209.197 507.47L203.736 514.454L199.64 512.581L194.691 516.499L195.033 523.483L191.79 522.461L184.794 523.994L183.258 521.609L181.039 522.632L176.773 519.906L175.237 522.121L177.285 530.127L176.432 533.194L167.387 533.364L164.998 535.749L159.878 533.364L156.977 535.919L157.148 538.475L152.711 539.667L152.199 542.393L149.127 543.585L146.226 541.03L144.178 543.585H141.448L144.007 547.674L143.495 550.4L146.567 551.251L146.908 555.17L143.154 564.199L139.4 564.028L137.181 567.265L133.256 567.435L130.355 563.347L127.283 565.05L121.14 555.681L118.068 542.393L117.727 528.594L115.338 519.565L114.655 511.388L111.413 501.848V497.419L113.972 498.1L110.047 494.012L110.218 488.901L109.023 483.279L112.436 480.724L110.389 480.043L112.948 477.317L108 477.487L108.853 472.376L105.44 454.489L107.146 448.356L108.682 447.675L113.119 447.164L114.143 449.549H118.239L118.409 448.015Z" fill="#FEEDD6" stroke="black" stroke-width="0.6" stroke-miterlimit="11"/>
<path d="M449.819 394.524L457.669 398.782L459.205 402.36L462.447 400.827L464.666 404.575L467.908 405.086L469.785 409.685L463.13 411.559L459.887 413.774L456.474 417.862L454.597 421.951L459.034 435.068L453.744 439.498L452.549 445.46L447.088 448.186L444.87 453.637L437.02 457.555L428.828 459.94L421.661 462.666L424.391 460.111V457.044L421.832 456.533L415.859 461.133L412.958 466.584L415.517 466.755L416.883 463.007L420.125 461.985L418.93 465.051L415.005 467.777L405.278 477.487L403.23 476.295L399.135 479.702L394.186 485.664L390.261 486.346L383.776 486.005L381.216 480.894L379.68 482.768L376.438 477.487L372.513 481.746L368.758 481.235L371.147 484.301L366.369 487.709L364.492 487.368L361.932 490.434L363.468 493.501L362.444 497.078L355.959 498.1L351.181 501.167L351.352 498.952L347.597 493.841L345.549 496.567L344.013 502.359L344.525 506.277L342.307 507.64L337.358 506.277L334.457 507.47L325.924 512.751L321.317 512.581L322.511 510.707L324.9 500.656L329.849 498.1L334.116 493.16L335.481 489.412L339.747 487.709L341.795 480.554L340.259 477.828L340.43 470.843L337.017 467.436V460.622L331.726 456.874L334.628 452.104L341.795 455.852L343.331 459.089L345.549 457.726L350.498 458.748V460.792L353.911 458.407L353.399 454.659L351.352 455L346.403 452.785V443.245L344.355 439.838V431.832L347.085 432.172L349.645 429.447L352.205 424.166L359.372 423.314L362.273 425.017L365.175 423.314L367.052 418.373L369.1 418.885L368.246 414.626L371.659 406.448L373.707 405.597L372.683 402.19L374.731 396.057L384.117 389.413L383.434 386.857L387.871 390.776L394.527 391.968L397.087 389.583L406.302 389.242L410.056 387.028L410.739 392.82L408.35 397.42H411.251L413.981 399.294L418.93 395.546L425.245 397.76L427.975 396.227V399.294L431.217 398.953L432.583 396.738V389.072L431.388 386.346L433.777 384.813L441.798 390.435L444.699 390.094L449.819 394.524Z" fill="white" stroke="black" stroke-width="0.6" stroke-miterlimit="11"/>
<path d="M118.409 448.015L118.238 449.889H114.143L113.119 447.504L111.924 444.949L116.361 442.223L118.409 448.015Z" fill="white" stroke="black" stroke-width="0.6" stroke-miterlimit="11"/>
<path d="M227.116 229.789L224.044 232.003L221.313 229.448L216.706 229.618L215.853 228.085L218.583 225.019L218.412 221.782L221.484 220.078L224.556 220.419L226.945 224.678L227.116 229.789Z" fill="#FEEDD6" stroke="black" stroke-width="0.6" stroke-miterlimit="11"/>
<path d="M234.453 180.556L225.921 177.149L224.385 175.275L224.214 171.356L221.654 169.823L219.607 166.416L216.535 166.075L213.804 163.52L212.61 157.387L209.367 155.002L208.173 152.276L205.784 155.002L203.224 154.15L201.517 148.018L198.616 141.544L199.64 140.352L197.934 136.944L191.449 133.537L194.179 128.938L199.299 125.019L197.934 122.634L199.64 120.079V115.991L197.422 112.583L201.176 112.413L206.637 109.006L208.514 106.451L214.487 104.577L218.412 105.599L223.02 110.369L226.945 113.094L231.552 114.798L239.914 111.221L242.815 114.968L245.887 122.123L253.908 118.205V121.272L251.519 125.019L254.079 124.338L255.614 127.404V132.345L261.758 139.5L260.051 144.61L263.294 149.04L260.563 151.595L261.929 153.299L261.417 156.195L264.488 157.217L267.048 161.646L264.318 161.987L262.611 159.602L256.126 159.091L251.348 157.217L245.717 160.113H243.498L239.061 165.394L239.914 166.416L237.866 170.164L240.085 177.489L234.453 180.045V180.556Z" fill="white" stroke="black" stroke-width="0.6" stroke-miterlimit="11"/>
<path d="M164.315 189.073L164.827 191.288L162.779 194.354L165.681 193.843L165.51 201.85L163.974 202.532L165.51 205.428L170.459 203.894L176.09 208.494L181.893 207.131L184.452 214.457L187.183 224.678L191.279 230.47L193.668 231.322L197.934 237.455L194.692 238.818L196.569 239.84L194.35 243.076L195.716 246.143L200.665 246.313L199.47 241.543L200.153 240.01L206.467 237.795L206.296 240.521L208.515 242.906L210.904 240.01L215.853 236.433L217.73 239.158L216.706 251.254L220.46 249.55L219.778 247.676L225.239 247.846L226.604 255.001L229.164 259.26L232.577 260.964L233.771 264.201L230.017 266.926L234.625 269.652L228.993 271.696L227.286 274.763L234.625 271.356L240.939 272.207L244.011 271.185L247.253 272.037L246.229 274.422L243.84 275.274L243.328 278.17L239.232 278.511L237.526 280.725L227.969 285.836L225.409 286.347L222.679 289.243L215.511 292.65L211.074 297.42L206.637 299.124L204.931 302.361L206.467 309.175L208.856 311.389L214.999 313.434L221.314 312.752L224.897 310.197L226.433 316.33L224.897 318.715L221.314 318.374L213.464 320.589L213.975 324.336L211.416 325.87L215.853 328.595L217.901 333.195L214.146 334.728L211.757 333.195V338.476L213.464 341.542L210.392 343.757L207.661 339.669L205.102 342.054L203.054 340.52L197.593 340.009L195.204 338.476L194.692 343.587L191.791 345.801L191.108 348.357L186.33 350.06L184.452 352.445L181.893 351.594L179.503 348.186L180.698 345.631L185.135 346.824L187.183 343.757L185.818 341.883L187.183 338.817L185.647 335.58L189.06 333.195L186.5 326.21L178.992 327.914L173.189 327.062V322.463L175.749 322.803L176.602 318.374L172.165 318.544L170.8 322.463L168.24 322.974L164.657 320.929L164.827 324.507L168.07 325.018L167.728 327.403L163.291 327.914L161.414 331.662L164.486 334.047L161.585 338.646L164.827 339.498L167.046 344.95L165.51 348.357L166.022 353.979L162.95 358.748L156.636 361.985L155.612 365.052L159.878 367.096L153.905 369.992L150.151 370.503L148.103 367.266L141.618 361.474L138.205 359.26L133.768 358.919V355.001L127.795 349.209L129.502 345.12L127.966 340.691L125.236 342.905L121.481 337.624L123.017 334.217L121.823 329.618L119.945 329.958L117.898 333.365L113.631 332.514L109.194 328.936L106.634 330.64L105.952 328.255L97.5898 322.633L95.03 323.655L85.4734 322.292L78.3059 323.144L73.6983 321.27L70.2852 312.752L69.7733 309.004L65.3363 300.827L65.5069 293.672L59.0221 293.843L56.8036 292.991L52.7079 285.154L54.7557 279.873L56.121 270.504L53.9025 268.8L48.1003 268.46L41.1035 263.69L40.2502 261.645L41.7861 255.342L43.8339 251.765L50.8307 246.484L55.2677 241.714L57.4862 236.773L63.971 231.492L66.7015 230.981L70.6265 234.218L71.9918 239.499L74.7222 240.691L86.3266 237.284L92.1289 237.625L99.2963 236.092L100.32 232.174L102.88 228.937L106.805 225.87L109.706 218.375L112.949 214.968L125.406 209.516L133.939 196.399L137.864 186.177L146.397 183.622L151.346 179.704L151.858 181.578L149.81 185.496L164.315 189.073Z" fill="#FEEDD6" stroke="black" stroke-width="0.6" stroke-miterlimit="11"/>
<path d="M246.228 274.933L247.252 272.548L244.01 271.696L240.938 272.719L234.624 271.867L227.286 275.274L228.992 272.207L234.624 270.163L230.016 267.438L233.771 264.712L232.576 261.475L229.163 259.771L226.603 255.513L225.238 248.358L231.211 244.61L229.846 242.054L231.381 236.603L230.699 232.855L226.944 229.448L226.603 224.167L224.214 219.908L223.019 213.264L223.531 205.939L221.484 201.85L224.385 195.377L225.75 190.777L233.771 182.941L234.283 180.215L235.989 179.874L242.303 184.474L237.525 190.947L239.232 199.295L242.133 197.762L245.546 199.636L247.423 198.273L246.74 192.481L248.447 191.97L251.86 196.91L254.078 198.102L257.662 203.043L263.976 206.109L259.369 209.857L262.611 211.731L263.635 214.627L266.877 213.435L272.338 218.204L274.045 218.375L275.751 221.441L278.482 220.76L284.796 221.441L287.356 224.678L290.086 222.463L296.4 227.744L299.643 228.937L299.814 226.382L303.227 227.915L311.418 233.877L314.831 234.388L318.585 240.862L320.633 239.84L322.169 242.054L332.067 248.017L335.992 246.484L344.183 252.446L349.986 251.594L352.375 257.046L361.249 258.238L365.345 261.134L366.539 257.727L371.829 257.898L377.973 260.623L380.191 263.69L383.434 271.526L387.359 272.719L387.529 275.785L390.772 278.681H384.116L380.021 283.451L386.164 285.155L386.506 288.221L381.898 289.754L383.775 293.161L388.553 297.761L391.284 297.42L395.038 299.465L396.745 302.531L394.014 303.723L391.284 302.02L388.212 305.257L385.823 303.042L380.362 308.493L368.246 316.5L367.051 318.204L367.904 326.381L371.488 328.936L372 335.069L369.099 335.921L370.464 339.669L367.734 345.461L364.662 350.742L358.86 351.594L354.935 349.379L351.863 344.609L353.399 343.587L354.081 338.987L353.228 334.558L354.081 331.492L345.89 330.299L342.989 332.684L341.965 328.595L332.75 325.018L331.214 322.122L325.753 320.929L324.558 317.693L317.562 318.544L316.196 323.655L314.148 325.359L311.93 323.825L306.469 323.655L308.517 318.033L298.96 319.907L300.326 321.781L294.865 322.463L298.107 318.033L294.865 311.901H292.646L284.625 316.159L284.796 318.715L277.117 318.033L273.533 320.759L272.338 318.715L274.386 315.989L271.314 315.819L270.632 318.374L264.83 318.033L265.342 315.648L261.758 317.863L263.294 310.708L262.27 308.323L259.71 311.219L258.003 309.345L258.174 313.093L254.932 311.389L252.884 315.308L255.102 318.715L255.785 323.144L257.833 327.062V331.832L260.734 331.662L263.635 336.261L259.027 342.905L251.86 337.624L249.3 340.35L245.716 334.217L246.57 330.129L244.522 325.529L248.617 321.611L249.471 317.182L247.082 311.219L249.641 307.471L257.833 305.768L258.515 301.338L260.051 299.976L263.635 292.991L263.976 288.562L266.365 286.517L263.294 277.318L258.345 274.763L254.932 275.785L250.495 273.23L246.228 274.933Z" fill="#FEEDD6" stroke="black" stroke-width="0.6" stroke-miterlimit="11"/>
<path d="M234.454 180.556L233.942 179.704L239.574 177.148L237.355 169.823L239.403 166.075L238.55 165.053L242.987 159.772H245.205L250.837 156.876L255.615 158.75L262.1 159.261L263.806 161.646L266.537 161.305L263.977 156.876L266.196 156.365L268.243 153.299L271.145 156.365L273.192 161.646L275.582 164.372L279.507 166.757L285.309 166.246L290.428 170.845L294.353 172.549L293.159 176.978L296.401 177.319L305.446 181.407L306.811 183.281L311.76 186.177L308.347 188.051L303.91 192.651L302.033 193.162L299.814 196.91L297.255 198.102L297.596 202.191L293.671 207.131L295.207 209.857L294.183 214.457L291.964 215.138L289.575 220.249L290.428 222.804L287.698 225.019L285.138 221.782L278.824 221.1L276.094 221.782L274.387 218.715L272.68 218.545L267.219 213.775L263.977 214.968L262.953 212.072L259.711 210.198L264.318 206.45L258.004 203.383L254.42 198.443L252.202 197.251L248.789 192.31L247.082 192.821L247.765 198.613L245.888 199.976L242.475 198.102L239.574 199.636L237.867 191.288L242.645 184.815L236.331 180.215L234.454 180.556Z" fill="white" stroke="black" stroke-width="0.6" stroke-miterlimit="11"/>
<path d="M367.734 345.972L370.465 340.18L369.1 336.432L372.001 335.58L376.096 336.091L381.387 335.069L384.288 332.855L385.653 335.921L390.602 335.069L390.773 337.284L394.698 341.032L399.135 339.158L402.377 335.921L406.302 339.669L416.371 335.069L419.613 335.24L422.685 333.366L422.173 331.151L424.391 327.914L428.487 329.618L431.047 328.425L434.46 333.195H437.702L437.532 336.262L441.457 338.647L444.699 332.684L448.624 331.832L451.867 333.195L452.379 330.981L455.621 331.321L456.816 321.27L460.229 318.374L460.741 315.649L463.471 315.308L466.031 311.39L472.345 313.945V317.182L475.075 322.292L475.417 330.299H472.345L473.71 332.684L472.004 337.625L469.956 338.987L470.809 341.202L466.713 343.076L466.884 345.291L461.935 347.676L461.253 350.742L457.327 351.764L452.379 349.379L450.672 354.49L442.993 357.216L440.091 360.793L437.19 362.497L434.972 359.26L432.412 358.578L431.9 361.134L427.804 362.156L429.511 363.859L427.975 367.948L429.511 370.503L432.753 370.674L435.825 373.91L443.334 374.251L442.31 380.214L446.918 382.769L447.6 384.643L451.013 386.176L450.331 388.22L453.744 392.309L449.819 394.864L444.87 391.798L441.969 392.139L433.948 386.517L431.559 388.05L432.753 390.776V398.442L431.388 400.656L428.146 400.997V397.931L425.415 399.464L419.101 397.249L414.152 400.997L411.422 399.123H408.521L410.91 394.524L410.227 388.731L406.473 390.946L397.257 391.287L394.698 393.672L388.042 392.479L383.605 388.561L388.895 384.132L392.65 379.192L392.138 376.807L386.848 376.295L384.8 372.548L384.288 366.244L382.752 366.585L384.288 361.815L383.264 358.919L381.557 360.963L378.486 360.452L376.438 354.319L373.025 351.253L372.171 347.846L367.734 345.972Z" fill="white" stroke="black" stroke-width="0.6" stroke-miterlimit="11"/>
<path d="M217.388 169.312L217.559 170.845V172.208L214.999 169.483L217.388 169.312Z" fill="white" stroke="black" stroke-width="0.6" stroke-miterlimit="11"/>
<path d="M472.857 313.945L466.542 311.39L463.983 315.308L461.252 315.648L460.74 318.374L457.327 321.27L456.133 331.321L452.89 330.98L452.378 333.195L449.136 331.832L445.211 332.684L441.968 338.647L438.043 336.262L438.214 333.195H434.971L431.558 328.425L428.999 329.618L424.903 327.914L422.684 331.151L423.196 333.365L420.125 335.239L416.882 335.069L406.814 339.669L402.889 335.921L399.646 339.158L395.209 341.032L391.284 337.284L391.113 335.069L386.165 335.921L384.799 332.854L381.898 335.069L376.608 336.091L372.512 335.58L372 329.447L368.417 326.892L367.563 318.715L368.758 317.011L380.874 309.005L386.335 303.553L388.724 305.768L391.796 302.531L394.527 304.235L397.257 303.042L395.55 299.976L391.796 297.931L389.066 298.272L384.287 293.672L382.41 290.265L387.018 288.732L386.676 285.666L380.533 283.962L384.629 279.192H391.284L388.042 276.296L387.871 273.23L383.946 272.037L380.704 264.201L378.485 261.134L377.973 258.749L381.898 258.579L383.434 256.705L388.383 260.112L395.038 261.305L397.086 264.541L396.916 269.141L403.571 270.845L405.79 273.57L409.203 273.23L412.275 276.296L419.442 272.889L421.49 273.911L422.172 278L424.732 280.044L429.169 277.659L433.606 279.362L435.483 278.511L445.893 283.281L453.402 278.511L454.597 282.429L460.399 284.132L461.764 282.429L466.542 283.281L473.198 280.725L475.758 283.11L478.147 278.34L480.707 278L483.608 282.77L476.27 288.902L473.027 292.65L472.515 296.398L478.488 301.509L479.171 306.108L476.44 305.086L471.491 308.834L473.88 312.071L472.857 313.945Z" fill="white" stroke="black" stroke-width="0.6" stroke-miterlimit="11"/>
<path d="M492.482 261.475L487.363 260.964L484.12 263.69L478.147 262.497L475.246 259.771V253.127L477.977 245.632L476.611 241.203L482.755 239.84L487.874 236.262L492.823 238.818L493.847 242.736L491.8 250.743L492.823 254.32L495.725 256.705L492.482 261.475Z" fill="white" stroke="black" stroke-width="0.6" stroke-miterlimit="11"/>
</svg>
