<svg width="95" height="95" viewBox="0 0 95 95" fill="none" xmlns="http://www.w3.org/2000/svg">
<path d="M59.3748 39.5826L43.5415 55.4159L35.6248 47.4992M52.4323 13.6911L57.2652 17.8097C58.4828 18.8473 59.9947 19.4746 61.5894 19.6019L67.9189 20.1063C71.6403 20.4033 74.5961 23.3573 74.8931 27.0787L75.3964 33.4093C75.5236 35.004 76.1532 36.518 77.1908 37.7356L81.3076 42.5672C83.729 45.4086 83.7294 49.5882 81.308 52.4295L77.1912 57.2619C76.1535 58.4795 75.5248 59.9941 75.3976 61.5888L74.8912 67.9183C74.5942 71.6397 71.6429 74.5956 67.9216 74.8925L61.5898 75.3977C59.9951 75.525 58.4818 76.1507 57.2642 77.1883L52.4323 81.307C49.5909 83.7284 45.4087 83.7289 42.5674 81.3075L37.7354 77.1887C36.5178 76.151 35.0045 75.5242 33.4098 75.397L27.0781 74.8925C23.3567 74.5956 20.4054 71.6404 20.1085 67.9191L19.6021 61.5892C19.4748 59.9945 18.8461 58.4812 17.8084 57.2636L13.6916 52.4298C11.2702 49.5884 11.2691 45.4101 13.6905 42.5687L17.811 37.7348C18.8486 36.5172 19.4713 35.004 19.5986 33.4093L20.105 27.0794C20.4019 23.3581 23.3618 20.4029 27.0831 20.106L33.4079 19.6015C35.0026 19.4742 36.5166 18.8474 37.7342 17.8098L42.5678 13.6911C45.4091 11.2696 49.5909 11.2696 52.4323 13.6911Z" stroke="black" stroke-width="2" stroke-linecap="round" stroke-linejoin="round"/>
</svg>
