<svg width="75" height="75" viewBox="0 0 75 75" fill="none" xmlns="http://www.w3.org/2000/svg">
<path d="M49.3748 29.5826L33.5415 45.4159L25.6248 37.4992M42.4323 3.69106L47.2652 7.80969C48.4828 8.84732 49.9947 9.47464 51.5894 9.60189L57.9189 10.1063C61.6403 10.4033 64.5961 13.3573 64.8931 17.0787L65.3964 23.4093C65.5236 25.004 66.1532 26.518 67.1908 27.7356L71.3076 32.5672C73.729 35.4086 73.7294 39.5882 71.308 42.4295L67.1912 47.2619C66.1535 48.4795 65.5248 49.9941 65.3976 51.5888L64.8912 57.9183C64.5942 61.6397 61.6429 64.5956 57.9216 64.8925L51.5898 65.3977C49.9951 65.525 48.4818 66.1507 47.2642 67.1883L42.4323 71.307C39.5909 73.7284 35.4087 73.7289 32.5674 71.3075L27.7354 67.1887C26.5178 66.151 25.0045 65.5242 23.4098 65.397L17.0781 64.8925C13.3567 64.5956 10.4054 61.6404 10.1085 57.9191L9.60207 51.5892C9.47481 49.9945 8.84608 48.4812 7.80845 47.2636L3.69162 42.4298C1.27022 39.5884 1.26908 35.4101 3.69049 32.5687L7.81102 27.7348C8.84865 26.5172 9.47134 25.004 9.5986 23.4093L10.105 17.0794C10.4019 13.3581 13.3618 10.4029 17.0831 10.106L23.4079 9.6015C25.0026 9.47424 26.5166 8.84744 27.7342 7.80981L32.5678 3.69106C35.4091 1.26965 39.5909 1.26965 42.4323 3.69106Z" stroke="black" stroke-width="2" stroke-linecap="round" stroke-linejoin="round"/>
</svg>
